<?xml version="1.0" encoding="utf-8"?>
<!-- Generator: Adobe Illustrator 24.1.2, SVG Export Plug-In . SVG Version: 6.00 Build 0)  -->
<svg version="1.1" id="Capa_1" xmlns="http://www.w3.org/2000/svg" xmlns:xlink="http://www.w3.org/1999/xlink" x="0px" y="0px"
	 viewBox="0 0 400 282.5" style="enable-background:new 0 0 400 282.5;" xml:space="preserve">
<style type="text/css">
	.st0{fill:#0070D1;}
	.st1{fill:#FFFFFF;}
	.st2{fill:#00579F;}
	.st3{fill:#FAA61A;}
	.st4{clip-path:url(#SVGID_2_);}
	.st5{fill:#FF5F01;}
	.st6{fill:#EA001B;}
	.st7{fill:#F79E1C;}
	.st8{fill:none;stroke:#000000;stroke-width:0.8778;stroke-miterlimit:10;}
	.st9{fill:#170606;}
	.st10{fill:#1A1A1A;}
</style>
<g>
	<path d="M126.8,210.7c-0.1-0.4-0.2-0.9-0.4-1.3c-0.2-0.5-0.3-1-0.5-1.5c-0.2-0.5-0.4-1-0.6-1.5c-0.2-0.5-0.4-1-0.7-1.5
		c-0.5-1.1-1.1-2.2-1.6-3.3c0,1.2,0,2.4,0,3.3c0,0.4,0,0.8,0,1.2c0,0.4,0,0.8,0,1.1c0,0.3,0,0.6,0,0.8c0,0.2,0,0.3,0,0.3
		c0,0.1,0,0.2,0.1,0.3s0.1,0.3,0.2,0.4c0.1,0.1,0.3,0.2,0.5,0.3c0.2,0.1,0.5,0.1,0.8,0.1c0.1,0,0.1,0,0.1,0.1c0,0.1,0,0.1,0,0.2
		s0,0.1-0.1,0.2c0,0.1-0.1,0.1-0.1,0.1c-0.1,0-0.2,0-0.3,0c-0.2,0-0.3,0-0.5,0c-0.2,0-0.4,0-0.6,0s-0.3,0-0.4,0c-0.1,0-0.3,0-0.4,0
		c-0.2,0-0.4,0-0.6,0s-0.4,0-0.6,0c-0.2,0-0.3,0-0.3,0c-0.1,0-0.1,0-0.1-0.1c0-0.1-0.1-0.1-0.1-0.2c0-0.1,0-0.1,0-0.2
		c0-0.1,0.1-0.1,0.2-0.1c0.3,0,0.5-0.1,0.7-0.1s0.3-0.1,0.4-0.2c0.1-0.1,0.2-0.2,0.2-0.3c0.1-0.1,0.1-0.3,0.1-0.5c0-0.1,0-0.2,0-0.5
		s0-0.7,0-1.2c0-0.5,0-1,0-1.5s0-1.1,0-1.6s0-1,0-1.5s0-0.8,0-1.1c0-0.2,0-0.3,0-0.5s-0.1-0.3-0.2-0.5c-0.1-0.1-0.2-0.3-0.4-0.3
		c-0.2-0.1-0.5-0.1-0.9-0.2c-0.1,0-0.1,0-0.1-0.1c0-0.1,0-0.1,0-0.2c0-0.1,0-0.1,0.1-0.2c0-0.1,0.1-0.1,0.2-0.1c0.5,0,0.9,0,1.3,0.1
		s0.7,0.2,1.1,0.4c0.3,0.2,0.7,0.5,1,0.9c0.3,0.4,0.6,0.8,1,1.4c0.3,0.5,0.6,1,0.8,1.5c0.3,0.5,0.5,1,0.7,1.5c0.2,0.5,0.4,1,0.5,1.6
		c0.1,0.5,0.2,1,0.3,1.6s0,1-0.1,1.5S127,210.3,126.8,210.7z M127.8,208.1c0-0.2,0-0.4,0-0.6c0-0.2-0.1-0.4-0.1-0.5
		c0-0.2-0.1-0.4-0.2-0.6l3.4-7.5c0,0,0.1-0.1,0.3-0.1c0.2,0,0.3,0,0.5,0c0.2,0,0.4,0,0.7,0s0.5,0,0.7,0s0.4,0,0.6,0
		c0.2,0,0.4,0,0.5,0c0,0,0.1,0,0.1,0s0,0.1,0.1,0.1c0,0,0,0.1,0,0.1s0,0.1,0,0.1c0,0.1-0.1,0.2-0.2,0.3c-0.1,0-0.2,0.1-0.4,0.1
		c-0.2,0-0.3,0-0.5,0.1c-0.2,0.1-0.3,0.2-0.4,0.3c-0.1,0.1-0.2,0.4-0.2,0.7c0,0,0,0.2,0,0.4s0,0.5,0,0.9s0,0.8,0,1.2s0,0.9,0,1.4
		s0,0.9,0,1.4c0,0.4,0,0.8,0,1.2s0,0.6,0,0.9s0,0.4,0,0.4c0,0.2,0,0.4,0,0.5c0,0.2,0.1,0.3,0.2,0.4c0.1,0.1,0.3,0.2,0.5,0.3
		c0.2,0.1,0.5,0.1,0.8,0.1c0.1,0,0.1,0,0.2,0.1s0.1,0.1,0.1,0.2c0,0.1,0,0.1-0.1,0.2s-0.1,0.1-0.2,0.1c-0.1,0-0.3,0-0.6,0
		c-0.2,0-0.6,0-1-0.1s-0.9,0-1.4,0c-0.6,0-1.2,0-2,0.1c0,0-0.1,0-0.1,0s0,0-0.1-0.1c0,0,0-0.1,0-0.1c0,0,0-0.1,0-0.1
		c0,0,0-0.1,0.1-0.2c0-0.1,0.1-0.1,0.2-0.1c0.4,0,0.7-0.1,0.9-0.2c0.2-0.1,0.4-0.2,0.5-0.3c0.1-0.1,0.2-0.2,0.2-0.4s0-0.3,0.1-0.4
		V205c0-1,0-2,0-3.2c0-0.1,0-0.1-0.1-0.1c-0.1,0-0.1,0-0.2,0.1L127.8,208.1z"/>
	<path d="M140.7,203.6c0-0.4,0-0.8,0-1.2c0-0.2,0-0.3,0-0.4c0-0.1,0-0.3,0-0.4c0-0.1,0-0.2,0-0.3c0-0.1,0-0.1,0-0.2
		c0-0.1,0-0.2,0-0.3c0-0.2,0-0.3-0.1-0.5c-0.1-0.2-0.2-0.3-0.4-0.5s-0.5-0.2-0.9-0.2c0,0,0,0-0.1,0c0,0-0.1,0-0.1,0
		c0,0-0.1,0-0.1-0.1c0,0,0-0.1,0-0.2c0,0,0-0.1,0-0.2c0-0.1,0.1-0.1,0.2-0.1c0,0,0.2,0,0.5,0c0.3,0,0.6,0,1,0c0.4,0,0.8,0,1.3,0
		c0.5,0,1,0,1.5,0c0.5,0,1,0,1.5,0s0.9,0,1.3,0s0.7,0,0.9,0c0.2,0,0.3,0,0.4,0c0.1,0,0.1,0.1,0.1,0.3c0,0,0,0.1,0,0.3
		c0,0.2,0,0.4,0,0.7c0,0.2,0,0.5,0,0.7c0,0.2,0,0.4,0,0.5c0,0,0,0.1-0.1,0.1c0,0-0.1,0-0.2,0.1c-0.1,0-0.1,0-0.2,0
		c-0.1,0-0.1-0.1-0.1-0.1c0-0.1-0.1-0.3-0.1-0.4c0-0.2-0.1-0.3-0.1-0.5c0-0.1-0.1-0.2-0.1-0.3s-0.1-0.2-0.2-0.3
		c-0.1-0.1-0.3-0.1-0.4-0.2c-0.2,0-0.4-0.1-0.7-0.1h-2c-0.2,0-0.3,0-0.4,0.1s-0.1,0.1-0.2,0.2c0,0.1-0.1,0.2-0.1,0.3
		c0,0.1,0,0.2,0,0.2c0,0,0,0.1,0,0.2s0,0.2,0,0.3c0,0.1,0,0.3,0,0.4c0,0.2,0,0.3,0,0.5c0,0.4,0,0.8,0,1.3c-0.1,0-0.3,0-0.5,0.1
		c-0.2,0-0.4,0-0.6,0.1s-0.4,0.1-0.5,0.1C140.8,203.5,140.7,203.5,140.7,203.6z M142.5,207c0,0.6,0,1,0.1,1.3
		c0.1,0.3,0.3,0.6,0.5,0.7c0.2,0.2,0.4,0.3,0.7,0.3s0.5,0.1,0.8,0.1c0.3,0,0.6,0,0.9-0.1c0.3,0,0.6-0.1,0.8-0.2s0.4-0.2,0.6-0.4
		c0.2-0.2,0.3-0.4,0.3-0.6c0-0.1,0.1-0.2,0.1-0.4c0-0.1,0.1-0.3,0.1-0.4c0-0.1,0-0.1,0.1-0.1c0.1,0,0.1,0,0.2,0c0.1,0,0.1,0,0.2,0
		s0.1,0.1,0.1,0.1c0,0.1,0,0.3-0.1,0.5c0,0.2,0,0.5-0.1,0.8s0,0.5-0.1,0.7s0,0.4,0,0.5c0,0.1,0,0.1-0.1,0.2
		c-0.1,0.1-0.2,0.1-0.3,0.1c-0.1,0-0.3,0-0.6,0c-0.3,0-0.6,0-1,0s-0.8,0-1.2,0c-0.4,0-0.9,0-1.4,0s-0.9,0-1.4,0c-0.4,0-0.9,0-1.2,0
		c-0.4,0-0.7,0-1,0c-0.3,0-0.5,0-0.6,0c-0.1,0-0.1,0-0.2-0.1s-0.1-0.1-0.1-0.2c0-0.1,0-0.1,0.1-0.2c0-0.1,0.1-0.1,0.2-0.1
		c0.1,0,0.2,0,0.4,0c0.2,0,0.3-0.1,0.5-0.2s0.3-0.2,0.5-0.4c0.1-0.2,0.2-0.5,0.2-0.8l0-3.1l-1.8,0.3c0.2-0.3,0.5-0.6,0.8-0.8
		s0.7-0.4,1.1-0.5c0.4-0.1,0.8-0.2,1.2-0.3c0.4-0.1,0.8-0.1,1.3-0.1c0.4,0,0.8,0,1.2,0c0.4,0,0.7,0,1,0v1.5c0,0-0.1,0-0.2-0.1
		c-0.1-0.1-0.3-0.1-0.5-0.2c-0.2-0.1-0.5-0.1-0.9-0.1s-0.8,0-1.3,0.1v1c0,0.3,0,0.5,0,0.8C142.5,206.7,142.5,206.9,142.5,207z"/>
	<path d="M163.1,211.1c-0.3-0.7-0.6-1.4-0.9-2c-0.4-0.6-0.7-1.2-1.1-1.8s-0.8-1.1-1.2-1.6c-0.4-0.5-0.8-1-1.2-1.4
		c-0.9-1-1.9-1.8-2.9-2.6c0,0-0.1,0.1-0.1,0.2v6c0,0.2,0,0.4,0,0.5c0,0.2,0,0.3,0.1,0.4c0,0.2,0.1,0.3,0.2,0.4
		c0.1,0.1,0.2,0.2,0.4,0.2s0.3,0.1,0.4,0.1c0.1,0,0.3,0,0.4,0c0.1,0,0.1,0,0.1,0.1c0,0.1,0,0.1,0,0.2c0,0.1,0,0.1,0,0.2
		c0,0.1-0.1,0.1-0.1,0.1c-0.1,0-0.2,0-0.3,0c-0.2,0-0.3,0-0.5,0c-0.2,0-0.4,0-0.6,0s-0.3,0-0.4,0c-0.1,0-0.3,0-0.5,0s-0.4,0-0.6,0
		c-0.2,0-0.4,0-0.6,0c-0.2,0-0.3,0-0.3,0c-0.1,0-0.1,0-0.1-0.1c0-0.1-0.1-0.1-0.1-0.2c0-0.1,0-0.1,0-0.2c0-0.1,0.1-0.1,0.1-0.1
		c0.3,0,0.6-0.1,0.8-0.1c0.2-0.1,0.4-0.2,0.5-0.3c0.1-0.1,0.2-0.3,0.2-0.5c0-0.2,0-0.5,0-0.8v-7.1c0-0.1,0-0.2,0-0.3
		c0-0.1-0.1-0.3-0.2-0.4s-0.3-0.3-0.5-0.4c-0.2-0.1-0.5-0.2-0.8-0.2c-0.1,0-0.1,0-0.1-0.1c0-0.1,0-0.1,0-0.2s0-0.1,0-0.2
		s0.1-0.1,0.1-0.1c0.2,0,0.4,0,0.6,0c0.2,0,0.5,0,0.7,0s0.4,0,0.6,0c0.2,0,0.3,0,0.4,0c0.1,0,0.2,0,0.3,0.1c0.1,0,0.1,0,0.1,0.1
		c1.6,1.3,3.1,2.6,4.2,4c0.5,0.6,1,1.2,1.4,1.8c0.4,0.7,0.8,1.3,1.1,2c0.3,0.7,0.5,1.4,0.5,2.1S163.3,210.4,163.1,211.1L163.1,211.1
		z M163.7,208c0-0.2-0.1-0.3-0.2-0.5c-0.1-0.2-0.2-0.4-0.2-0.5c-0.1-0.2-0.2-0.4-0.3-0.5c0-0.9,0-1.8,0-2.5c0-0.3,0-0.6,0-0.9
		s0-0.6,0-0.8c0-0.3,0-0.5,0-0.6c0-0.2,0-0.3,0-0.3c0,0,0-0.1,0-0.3c0-0.1,0-0.3-0.1-0.5c0-0.2-0.1-0.3-0.1-0.5s-0.1-0.3-0.2-0.3
		c-0.2-0.1-0.3-0.2-0.5-0.2c-0.2,0-0.3,0-0.5,0c0,0-0.1,0-0.1-0.1c0-0.1,0-0.1,0-0.2c0-0.1,0-0.1,0-0.2s0.1-0.1,0.1-0.1
		c0.4,0,0.8,0,1.1,0.1c0.3,0,0.5,0,0.8,0c0.2,0,0.5,0,0.8,0c0.3,0,0.6,0,1,0c0.1,0,0.1,0,0.2,0.1s0.1,0.1,0.1,0.2
		c0,0.1,0,0.1-0.1,0.2c0,0.1-0.1,0.1-0.2,0.1c-0.2,0-0.3,0-0.4,0c-0.1,0-0.2,0-0.3,0.1s-0.2,0.1-0.2,0.1s-0.1,0.1-0.2,0.2
		c-0.1,0.1-0.1,0.3-0.2,0.5c0,0.2-0.1,0.4-0.1,0.6s0,0.4-0.1,0.5s0,0.3,0,0.3c0,0,0,0.1,0,0.3s0,0.5,0,0.8c0,0.3,0,0.7,0,1
		s0,0.8,0,1.2s0,0.8,0,1.1c0,0.4,0,0.7,0,1c0,0.3,0,0.5,0,0.6C163.7,208,163.7,208,163.7,208z"/>
	<path d="M182.4,209.2c0.5,0,0.9-0.1,1.4-0.2c0.5-0.2,0.9-0.4,1.3-0.6c0.4-0.3,0.7-0.6,1-1c0.3-0.4,0.4-0.9,0.5-1.3
		c0.1,0.7,0,1.3-0.2,1.8c-0.2,0.5-0.5,1-1,1.3c-0.4,0.4-0.9,0.6-1.4,0.8s-1.1,0.3-1.7,0.3c-0.7,0-1.3-0.1-2-0.3s-1.2-0.6-1.7-1.1
		c-0.5-0.5-0.9-1.1-1.2-1.8c-0.3-0.7-0.5-1.5-0.5-2.5c0-0.9,0.1-1.7,0.4-2.3c0.2-0.6,0.5-1.2,0.9-1.6c0.4-0.4,0.8-0.8,1.2-1
		c0.4-0.2,0.9-0.4,1.3-0.5c0.4-0.1,0.8-0.2,1.1-0.2s0.6,0,0.7,0c0.4,0,0.7,0,1.1,0.1s0.7,0.2,1,0.3c0.3,0.1,0.5,0.2,0.7,0.3
		c0.2,0.1,0.3,0.1,0.3,0.1c0.1,0,0.1,0,0.2-0.1c0,0,0.1-0.1,0.1-0.2c0-0.1,0-0.1,0.1-0.2c0,0,0.1-0.1,0.1-0.1c0.2,0,0.3,0,0.3,0
		c0,0,0.1,0.1,0.1,0.1c0,0.1-0.1,0.3-0.1,0.5s0,0.4,0,0.6c0,0.2,0,0.4,0,0.6c0,0.2,0,0.3,0,0.4c0,0.2,0,0.3,0.1,0.5
		c0,0.2,0,0.3,0.1,0.5c0,0,0,0.1-0.1,0.1c0,0-0.1,0.1-0.2,0.1c-0.1,0-0.1,0-0.2,0c-0.1,0-0.1,0-0.1-0.1c-0.1-0.2-0.2-0.5-0.3-0.8
		c-0.1-0.3-0.3-0.6-0.6-0.9s-0.6-0.5-1-0.7c-0.4-0.2-0.9-0.3-1.6-0.3c-0.6,0-1.1,0.1-1.5,0.3c-0.4,0.2-0.7,0.5-1,0.8
		c-0.3,0.3-0.5,0.7-0.6,1.1s-0.2,0.8-0.3,1.1c-0.1,0.4-0.1,0.7-0.1,0.9c0,0.3,0,0.5,0,0.5c0,0.1,0,0.3,0,0.6s0,0.6,0.1,1
		s0.1,0.7,0.3,1.1c0.1,0.4,0.3,0.8,0.6,1.1c0.3,0.3,0.6,0.6,1,0.8C181.2,209.1,181.8,209.2,182.4,209.2z"/>
	<path d="M196.1,199.5c-0.5,0-0.8,0.1-1.1,0.3c-0.3,0.2-0.4,0.4-0.4,0.7c0,0.4,0,0.9-0.1,1.4c0,0.5,0,1.1,0,1.8c0,0.6,0,1.3,0,2
		s0,1.4,0,2.1c0,0.2,0,0.3,0.1,0.5s0.1,0.3,0.3,0.5c0.2,0.2,0.4,0.3,0.7,0.4c0.3,0.1,0.7,0.2,1.3,0.1c0.3,0,0.6,0,0.9-0.1
		c0.3-0.1,0.5-0.2,0.8-0.3c0.2-0.2,0.4-0.4,0.5-0.6c0.1-0.3,0.2-0.6,0.3-1c0-0.1,0-0.1,0.1-0.1c0.1,0,0.1,0,0.2,0c0.1,0,0.1,0,0.2,0
		c0.1,0,0.1,0.1,0.1,0.1c0,0.1,0,0.3,0,0.5c0,0.2,0,0.5-0.1,0.7c0,0.3,0,0.5-0.1,0.7c0,0.2,0,0.4,0,0.5c0,0,0,0,0,0.1
		c0,0,0,0.1-0.1,0.1c0,0-0.1,0.1-0.1,0.1c0,0-0.1,0.1-0.2,0.1c-0.3,0-0.7,0-1.1,0c-0.3,0-0.7,0-1.2,0s-0.9,0-1.4,0
		c-0.6,0-1.1,0-1.6,0c-0.5,0-1,0-1.4,0c-0.4,0-0.7,0-1,0c-0.3,0-0.5,0-0.6,0c-0.1,0-0.1,0-0.2-0.1c0-0.1-0.1-0.1-0.1-0.2
		c0-0.1,0-0.1,0.1-0.2c0-0.1,0.1-0.1,0.2-0.1c0.1,0,0.2,0,0.4-0.1c0.2,0,0.3-0.1,0.5-0.1c0.2-0.1,0.3-0.1,0.4-0.2s0.2-0.2,0.2-0.4
		c0,0,0-0.2,0-0.5c0-0.3,0-0.7,0-1.2c0-0.5,0-1,0-1.5c0-0.6,0-1.1,0-1.6c0-0.5,0-1,0-1.4c0-0.4,0-0.7,0-0.9v-1.3
		c-0.3,0.1-0.5,0.1-0.8,0.2c-0.2,0-0.4,0.1-0.6,0.1c-0.2,0-0.4,0.1-0.5,0.1c0.3-0.4,0.7-0.7,1.1-1c0.4-0.2,0.8-0.4,1.2-0.6
		s0.8-0.2,1.1-0.2c0.4,0,0.7-0.1,1,0c0.3,0,0.5,0,0.7,0.1c0.2,0,0.3,0,0.3,0c0,0,0,0,0,0.1s0,0.1,0,0.1c0,0,0,0.1,0,0.2
		C196.2,199.5,196.2,199.5,196.1,199.5z"/>
	<path d="M215.2,204.4c0,0.8-0.1,1.5-0.3,2.2c-0.2,0.6-0.5,1.1-0.8,1.6c-0.3,0.4-0.7,0.8-1.1,1c-0.4,0.3-0.8,0.5-1.2,0.6
		c-0.4,0.2-0.8,0.3-1.1,0.3s-0.6,0.1-0.8,0.1c-0.3,0-0.6,0-1-0.1c-0.4,0-0.8-0.1-1.2-0.3c-0.4-0.1-0.8-0.3-1.2-0.6
		c-0.4-0.3-0.7-0.6-1-1c-0.3-0.4-0.5-0.9-0.7-1.6s-0.3-1.4-0.2-2.2c0-0.8,0.1-1.5,0.3-2c0.2-0.6,0.4-1.1,0.8-1.5
		c0.3-0.4,0.7-0.8,1-1s0.8-0.5,1.2-0.6c0.5-0.2,1-0.3,1.5-0.3c0.5,0,0.9,0,1.3,0s0.7,0.1,0.9,0.1s0.3,0.1,0.3,0.1
		c-0.4,0-0.8,0-1.2,0.1c-0.4,0-0.8,0.1-1.2,0.3c-0.4,0.1-0.7,0.3-1.1,0.6c-0.3,0.2-0.6,0.6-0.9,1c-0.3,0.4-0.5,0.9-0.6,1.5
		c-0.2,0.6-0.2,1.3-0.2,2.1c0,0.2,0,0.5,0,0.9c0,0.3,0.1,0.7,0.1,1.1c0.1,0.4,0.2,0.7,0.3,1.1s0.3,0.7,0.6,1
		c0.3,0.3,0.6,0.5,0.9,0.7c0.4,0.2,0.8,0.3,1.3,0.3c0.1,0,0.2,0,0.4,0s0.4-0.1,0.6-0.2c0.2-0.1,0.5-0.3,0.7-0.5
		c0.3-0.2,0.5-0.5,0.7-0.9s0.4-0.8,0.5-1.4c0.1-0.5,0.2-1.2,0.2-2c0-0.7,0-1.4-0.1-1.9s-0.2-1-0.4-1.3s-0.4-0.6-0.6-0.9
		c-0.2-0.2-0.4-0.4-0.6-0.5c-0.2-0.1-0.4-0.2-0.5-0.2c-0.1,0-0.2-0.1-0.3-0.1c0.2-0.1,0.5-0.1,0.8-0.1c0.2,0,0.5,0,0.8,0.1
		s0.6,0.2,0.9,0.3c0.3,0.2,0.5,0.3,0.8,0.6c0.2,0.2,0.5,0.6,0.7,0.9s0.3,0.8,0.5,1.3C215.1,203.2,215.2,203.8,215.2,204.4z"/>
	<path d="M223.6,198.9c-0.1,0-0.2,0-0.3,0.1c-0.2,0-0.4,0.1-0.6,0.2c-0.2,0.1-0.5,0.2-0.7,0.4c-0.3,0.2-0.5,0.4-0.8,0.6
		c-0.4,0-0.7,0-1,0.1c-0.2,0-0.4,0.1-0.6,0.1c-0.1,0-0.2,0.1-0.3,0.1c0,0-0.1,0-0.1,0l0-1.5c0.4,0,0.8-0.1,1.3-0.1
		c0.5,0,0.9,0,1.3,0s0.8,0,1.1,0C223.3,198.9,223.5,198.9,223.6,198.9z M224.9,208.6c0,0.2,0,0.3,0.1,0.5c0.1,0.1,0.2,0.2,0.3,0.3
		c0.1,0.1,0.3,0.1,0.5,0.2c0.2,0,0.4,0.1,0.7,0.1c0.1,0,0.1,0,0.2,0.1c0,0.1,0.1,0.1,0.1,0.2s0,0.1,0,0.2c0,0.1-0.1,0.1-0.2,0.1
		c-0.1,0-0.3,0-0.5,0s-0.5,0-0.7,0s-0.5,0-0.7-0.1c-0.2,0-0.4,0-0.5,0c-0.1,0-0.3,0-0.5,0c-0.2,0-0.5,0-0.8,0s-0.5,0-0.8,0
		c-0.2,0-0.4,0-0.5,0c-0.1,0-0.1,0-0.2-0.1c0-0.1,0-0.1,0-0.2s0-0.1,0-0.2c0-0.1,0.1-0.1,0.2-0.1c0.3,0,0.5-0.1,0.7-0.1
		c0.2,0,0.3-0.1,0.5-0.2c0.1-0.1,0.2-0.2,0.3-0.3c0.1-0.1,0.1-0.3,0.1-0.5c0,0,0-0.2,0-0.4c0-0.3,0-0.6,0-1c0-0.4,0-0.9,0-1.4
		c0-0.5,0-1,0-1.6c0-1.2,0-2.6,0-4.2c-0.2,0-0.4,0.1-0.5,0.1c-0.2,0-0.3,0.1-0.4,0.1c-0.1,0-0.3,0.1-0.4,0.1
		c0.2-0.3,0.5-0.5,0.8-0.7s0.6-0.3,0.9-0.4c0.3-0.1,0.6-0.2,0.9-0.2s0.5-0.1,0.8-0.1c0.3,0,0.5,0,0.8,0c0.3,0,0.6,0,1,0
		c0.3,0,0.7,0,1.1,0c0.4,0,0.8,0,1.3,0.1l-0.1,1.6c0,0-0.1-0.1-0.3-0.2c-0.2-0.1-0.5-0.2-0.9-0.3c-0.4-0.1-0.8-0.2-1.3-0.2
		s-1.1,0-1.6,0.1c0,1.6,0,3,0,4.2c0,0.5,0,1.1,0,1.6c0,0.5,0,1,0,1.4s0,0.7,0,1C224.9,208.4,224.9,208.6,224.9,208.6z"/>
	<path d="M244.3,201.4c0,1.3,0,2.5,0,3.6c0,0.5,0,0.9,0,1.3s0,0.8,0,1.2c0,0.4,0,0.6,0,0.9s0,0.4,0,0.4c0,0.1,0,0.2,0.1,0.3
		c0.1,0.1,0.2,0.2,0.3,0.3c0.1,0.1,0.3,0.2,0.5,0.2s0.4,0.1,0.7,0.1c0.1,0,0.1,0,0.2,0.1c0,0.1,0.1,0.1,0.1,0.2c0,0.1,0,0.1-0.1,0.2
		s-0.1,0.1-0.2,0.1c-0.1,0-0.3,0-0.5,0s-0.5,0-0.7,0c-0.3,0-0.5,0-0.7,0c-0.2,0-0.4,0-0.5,0c-0.1,0-0.3,0-0.5,0c-0.2,0-0.5,0-0.8,0
		c-0.3,0-0.5,0-0.8,0.1c-0.2,0-0.4,0-0.5,0c-0.1,0-0.1,0-0.1-0.1s-0.1-0.1-0.1-0.2c0-0.1,0-0.1,0-0.2c0-0.1,0.1-0.1,0.1-0.1
		c0.2,0,0.4,0,0.6-0.1c0.1,0,0.3,0,0.3-0.1s0.2-0.1,0.2-0.1c0.1,0,0.1-0.1,0.2-0.1c0.1-0.1,0.1-0.1,0.2-0.3c0-0.1,0.1-0.3,0.1-0.5
		s0-0.4,0.1-0.6s0-0.4,0-0.6c0-0.5,0-1.1-0.1-1.7c0,0-0.1,0-0.2-0.1c-0.1,0-0.3-0.1-0.6-0.1c-0.3,0-0.6-0.1-1.1-0.1
		c-0.4,0-1,0-1.6-0.1c-0.3,0-0.7,0-1.1,0c-0.4,0-0.8,0-1.1,0.1c0,0.6,0,1.1,0,1.6c0,0.2,0,0.4,0,0.6s0,0.4,0,0.6c0,0.2,0,0.3,0,0.4
		c0,0.1,0,0.2,0,0.2c0,0.2,0.1,0.4,0.2,0.5c0.1,0.1,0.3,0.2,0.4,0.2c0.2,0,0.3,0.1,0.5,0.1c0.2,0,0.3,0,0.4,0c0.1,0,0.1,0,0.2,0.1
		c0,0.1,0,0.1,0,0.2c0,0.1,0,0.1-0.1,0.2s-0.1,0.1-0.2,0.1c-0.1,0-0.3,0-0.5,0c-0.2,0-0.5,0-0.7-0.1c-0.3,0-0.5,0-0.7,0
		c-0.2,0-0.4,0-0.5,0c-0.4,0-0.8,0-1.3,0.1c-0.2,0-0.4,0-0.6,0c-0.2,0-0.4,0-0.6,0c-0.1,0-0.1,0-0.1-0.1s-0.1-0.1-0.1-0.2
		c0-0.1,0-0.1,0-0.2c0-0.1,0.1-0.1,0.2-0.1c0.1,0,0.2,0,0.4,0c0.2,0,0.3,0,0.5-0.1c0.2-0.1,0.3-0.1,0.4-0.2c0.1-0.1,0.2-0.3,0.2-0.5
		c0,0,0-0.1,0-0.3c0-0.2,0-0.4,0-0.6c0-0.2,0-0.5,0-0.7c0-0.3,0-0.5,0-0.7c0-0.2,0-0.4,0-0.6c0-0.2,0-0.3,0-0.4
		c-0.3,0-0.5,0.1-0.8,0.1s-0.4,0-0.6,0.1c-0.2,0-0.4,0-0.6,0.1c0.4-0.2,0.8-0.5,1.3-0.7c0.5-0.2,1.2-0.4,1.9-0.5s1.6-0.2,2.6-0.3
		c1-0.1,2.2-0.1,3.5,0c0-0.1,0-0.2,0-0.4c0-0.2,0-0.4,0-0.7c0-0.3,0-0.5,0-0.8c0-0.3,0-0.6,0-0.8c0-0.3,0-0.5,0-0.6
		c0-0.2,0-0.3,0-0.3c0-0.1,0-0.2-0.1-0.4c0-0.1-0.1-0.3-0.2-0.4c-0.1-0.1-0.3-0.2-0.5-0.3c-0.2-0.1-0.4-0.1-0.7-0.1
		c-0.1,0-0.1,0-0.2-0.1c0-0.1,0-0.1,0-0.2c0,0,0-0.1,0-0.2c0-0.1,0.1-0.1,0.2-0.1c0.1,0,0.3,0,0.5,0s0.5,0,0.7,0c0.3,0,0.5,0,0.8,0
		c0.2,0,0.4,0,0.5,0c0,0,0.1,0,0.2,0s0.3,0,0.4,0c0.2,0,0.4,0,0.5,0c0.2,0,0.4,0,0.5,0c0.2,0,0.3,0,0.4,0c0.1,0,0.2,0,0.2,0
		c0,0,0.1,0,0.1,0.1c0,0,0.1,0.1,0.1,0.2c0,0,0,0.1,0,0.2c0,0.1-0.1,0.1-0.2,0.1c-0.2,0-0.3,0-0.5,0.1c-0.1,0-0.3,0.1-0.4,0.1
		c-0.2,0.1-0.4,0.2-0.5,0.3s-0.2,0.3-0.2,0.5c0,0.2-0.1,0.4-0.1,0.6C244.3,201.2,244.3,201.3,244.3,201.4z M235,202.4
		c0-0.3,0-0.7,0-1c0-0.4,0-0.7-0.1-1s-0.2-0.5-0.4-0.7s-0.6-0.3-1-0.3c-0.1,0-0.1,0-0.1-0.1c0-0.1-0.1-0.1-0.1-0.2
		c0-0.1,0-0.1,0-0.2c0-0.1,0.1-0.1,0.2-0.1c0.1,0,0.3,0,0.5,0c0.2,0,0.5,0,0.7,0c0.3,0,0.5,0,0.8,0c0.2,0,0.4,0,0.5,0
		c0,0,0.1,0,0.2,0s0.3,0,0.4,0c0.2,0,0.4,0,0.5,0c0.2,0,0.4,0,0.5,0s0.3,0,0.4,0s0.2,0,0.2,0c0.1,0,0.1,0,0.1,0.1c0,0.1,0,0.1,0,0.2
		c0,0.1,0,0.1-0.1,0.2c0,0.1-0.1,0.1-0.1,0.1c-0.4,0-0.7,0.1-0.9,0.2c-0.2,0.1-0.3,0.2-0.4,0.3c-0.1,0.1-0.2,0.2-0.2,0.3
		c0,0.1,0,0.2,0,0.3c0,0,0,0.1,0,0.2c0,0.1,0,0.3,0,0.4c0,0.2,0,0.3,0,0.5c0,0.2,0,0.4,0,0.6c0,0.5,0,1,0,1.6
		c-0.2,0-0.5,0.1-0.7,0.1c-0.2,0-0.4,0.1-0.6,0.1c-0.2,0.1-0.4,0.1-0.6,0.2L235,202.4z"/>
	<path d="M252.2,203.6c0-0.4,0-0.8,0-1.2c0-0.2,0-0.3,0-0.4c0-0.1,0-0.3,0-0.4c0-0.1,0-0.2,0-0.3c0-0.1,0-0.1,0-0.2
		c0-0.1,0-0.2,0-0.3c0-0.2,0-0.3-0.1-0.5c-0.1-0.2-0.2-0.3-0.4-0.5s-0.5-0.2-0.9-0.2c0,0,0,0-0.1,0c0,0-0.1,0-0.1,0
		c0,0-0.1,0-0.1-0.1c0,0,0-0.1,0-0.2c0,0,0-0.1,0-0.2c0-0.1,0.1-0.1,0.2-0.1c0,0,0.2,0,0.5,0c0.3,0,0.6,0,1,0c0.4,0,0.8,0,1.3,0
		c0.5,0,1,0,1.5,0c0.5,0,1,0,1.5,0c0.5,0,0.9,0,1.3,0s0.7,0,0.9,0c0.2,0,0.3,0,0.4,0c0.1,0,0.1,0.1,0.1,0.3c0,0,0,0.1,0,0.3
		c0,0.2,0,0.4,0,0.7c0,0.2,0,0.5,0,0.7c0,0.2,0,0.4,0,0.5c0,0,0,0.1-0.1,0.1c0,0-0.1,0-0.2,0.1c-0.1,0-0.1,0-0.2,0
		c-0.1,0-0.1-0.1-0.1-0.1c0-0.1-0.1-0.3-0.1-0.4c0-0.2-0.1-0.3-0.1-0.5c0-0.1-0.1-0.2-0.1-0.3s-0.1-0.2-0.2-0.3
		c-0.1-0.1-0.3-0.1-0.4-0.2c-0.2,0-0.4-0.1-0.7-0.1h-2c-0.2,0-0.3,0-0.4,0.1s-0.1,0.1-0.2,0.2c0,0.1-0.1,0.2-0.1,0.3
		c0,0.1,0,0.2,0,0.2c0,0,0,0.1,0,0.2s0,0.2,0,0.3c0,0.1,0,0.3,0,0.4c0,0.2,0,0.3,0,0.5c0,0.4,0,0.8,0,1.3c-0.1,0-0.3,0-0.5,0.1
		c-0.2,0-0.4,0-0.6,0.1s-0.4,0.1-0.5,0.1C252.4,203.5,252.3,203.5,252.2,203.6z M254,207c0,0.6,0,1,0.1,1.3c0.1,0.3,0.3,0.6,0.5,0.7
		c0.2,0.2,0.4,0.3,0.7,0.3s0.5,0.1,0.8,0.1c0.3,0,0.6,0,0.9-0.1c0.3,0,0.6-0.1,0.8-0.2s0.4-0.2,0.6-0.4c0.2-0.2,0.3-0.4,0.3-0.6
		c0-0.1,0.1-0.2,0.1-0.4c0-0.1,0.1-0.3,0.1-0.4c0-0.1,0-0.1,0.1-0.1c0.1,0,0.1,0,0.2,0c0.1,0,0.1,0,0.2,0s0.1,0.1,0.1,0.1
		c0,0.1,0,0.3-0.1,0.5c0,0.2,0,0.5-0.1,0.8s0,0.5-0.1,0.7s0,0.4,0,0.5c0,0.1,0,0.1-0.1,0.2c-0.1,0.1-0.2,0.1-0.3,0.1
		c-0.1,0-0.3,0-0.6,0c-0.3,0-0.6,0-1,0s-0.8,0-1.2,0c-0.4,0-0.9,0-1.4,0s-0.9,0-1.4,0c-0.4,0-0.9,0-1.2,0c-0.4,0-0.7,0-1,0
		c-0.3,0-0.5,0-0.6,0c-0.1,0-0.1,0-0.2-0.1s-0.1-0.1-0.1-0.2c0-0.1,0-0.1,0.1-0.2c0-0.1,0.1-0.1,0.2-0.1c0.1,0,0.2,0,0.4,0
		c0.2,0,0.3-0.1,0.5-0.2s0.3-0.2,0.5-0.4c0.1-0.2,0.2-0.5,0.2-0.8l0-3.1l-1.8,0.3c0.2-0.3,0.5-0.6,0.8-0.8s0.7-0.4,1.1-0.5
		c0.4-0.1,0.8-0.2,1.2-0.3c0.4-0.1,0.8-0.1,1.3-0.1c0.4,0,0.8,0,1.2,0c0.4,0,0.7,0,1,0v1.5c0,0-0.1,0-0.2-0.1
		c-0.1-0.1-0.3-0.1-0.5-0.2c-0.2-0.1-0.5-0.1-0.9-0.1s-0.8,0-1.3,0.1v1c0,0.3,0,0.5,0,0.8C254,206.7,254,206.9,254,207z"/>
	<path d="M264.6,205.7c0.1,0.6,0.3,1.1,0.6,1.6s0.6,0.8,1,1.2c0.4,0.3,0.8,0.6,1.1,0.7c0.4,0.2,0.7,0.3,1,0.3c0.3,0,0.6,0,0.8-0.1
		c0.2-0.1,0.4-0.2,0.6-0.3c0.2-0.1,0.3-0.2,0.4-0.3c0.1-0.1,0.2-0.2,0.2-0.3c0,0,0-0.1,0.1-0.2c0-0.1,0.1-0.3,0.1-0.4
		c0-0.2,0-0.4,0-0.6s-0.1-0.4-0.2-0.6c-0.1-0.2-0.3-0.4-0.5-0.6c-0.2-0.2-0.5-0.4-0.9-0.6c-0.1,0-0.2-0.1-0.4-0.2
		c-0.2-0.1-0.4-0.2-0.6-0.3c-0.2-0.1-0.4-0.2-0.6-0.3c-0.2-0.1-0.3-0.2-0.4-0.2s-0.2-0.1-0.5-0.2c-0.2-0.1-0.4-0.3-0.6-0.5
		c-0.2-0.2-0.4-0.5-0.6-0.8c-0.2-0.3-0.2-0.7-0.2-1.2c0-0.1,0-0.2,0-0.4c0-0.2,0.1-0.4,0.1-0.6c0.1-0.2,0.2-0.4,0.3-0.6
		s0.4-0.4,0.6-0.6c0.3-0.2,0.6-0.3,1-0.4s0.9-0.2,1.5-0.2c0.3,0,0.6,0,0.9,0.1s0.5,0.1,0.6,0.2c0,0,0.1,0,0.1,0c0.1,0,0.1,0,0.2,0
		c0.1,0,0.1,0,0.2,0c0.1,0,0.1,0,0.1,0c0.1,0,0.2-0.1,0.3-0.2c0,0,0-0.1,0.1-0.1s0.1,0,0.2,0c0.1,0,0.2,0,0.2,0.1s0,0,0,0.1
		c-0.1,0.2-0.1,0.4-0.1,0.6c0,0.3,0,0.6,0,0.8c0,0.3,0,0.5,0.1,0.8s0,0.4,0,0.5c0,0,0,0.1-0.1,0.1c-0.1,0-0.1,0-0.1,0
		c-0.1,0-0.1,0-0.2,0c0,0-0.1-0.1-0.1-0.1c0-0.1-0.1-0.3-0.1-0.5s-0.1-0.5-0.2-0.7s-0.3-0.5-0.5-0.7s-0.5-0.3-0.8-0.4
		c0,0-0.1,0-0.3,0c-0.2,0-0.3,0-0.5,0s-0.4,0-0.6,0.1c-0.2,0-0.4,0.1-0.6,0.2c-0.2,0.1-0.4,0.3-0.5,0.5c-0.1,0.2-0.2,0.5-0.2,0.8
		c0,0.2,0,0.4,0.1,0.6s0.2,0.4,0.4,0.5c0.1,0.2,0.3,0.3,0.5,0.4c0.2,0.1,0.4,0.2,0.5,0.3c0.2,0.1,0.3,0.1,0.4,0.2
		c0.1,0,0.2,0.1,0.2,0.1c0.1,0,0.2,0.1,0.3,0.1c0.2,0.1,0.3,0.2,0.5,0.3s0.4,0.2,0.6,0.3c0.2,0.1,0.4,0.3,0.6,0.4
		c0.2,0.2,0.4,0.3,0.6,0.5c0.2,0.2,0.3,0.4,0.4,0.6c0,0.1,0.1,0.2,0.1,0.4c0.1,0.2,0.1,0.4,0.1,0.7c0,0.3,0,0.5,0,0.9
		c0,0.3-0.1,0.6-0.3,0.9s-0.4,0.6-0.8,0.8c-0.3,0.3-0.8,0.5-1.4,0.6c-0.1,0-0.2,0-0.4,0.1c-0.2,0-0.4,0.1-0.6,0.1s-0.5,0-0.8,0
		c-0.3,0-0.6-0.1-0.9-0.2s-0.6-0.2-0.9-0.4c-0.3-0.2-0.5-0.5-0.7-0.8c-0.2-0.3-0.4-0.7-0.5-1.2C264.7,207,264.6,206.4,264.6,205.7z"
		/>
</g>
<g>
	<path d="M96.5,139.7c0.4,0.1,0.6,0.3,0.7,0.6c-4.7,5.4-9,8.1-12.9,8.1c-1.1,0-3.2-0.6-6.4-1.7c-0.5-0.1-1.1-0.1-1.6-0.1
		c-2.3,0-3.9,1.4-4.8,4.1c0.2,0.8,0.4,1.3,0.4,1.6c0,0.6-0.3,0.9-1,0.9c-0.3,0-0.7-0.7-1.2-2.1v-0.2c0-3.8,2.4-7.1,7.1-9.9
		c0.7-0.3,1.9-0.6,3.5-0.7c1,0,4,0.5,8.9,1.5c0.2,0.1,0.7,0.1,1.5,0.1h0.9C93.2,141.7,94.9,141,96.5,139.7z M105.3,139.2
		c3.1,0,8.3,3.7,15.6,11l0.7,1c0,0.6-1.7,2.3-5,5c-2.9,2.4-4.5,3.8-5,4.1v0.1c5.5,0.4,8.2,0.9,8.2,1.5c1.2,0.9,1.7,3.3,1.7,7.1
		c0.1,1.6,0.1,3.3,0.1,5.1v2c0,4.7-1,7.7-2.9,9c-1.2,1.1-3.5,2.6-6.9,4.3c-1.9,1.5-4,2.2-6.3,2.2h-2.2c-0.7,0-3.7-0.2-9-0.7h-0.1
		c-2.2,0.2-3.8,0.4-4.6,0.4h-0.9l-1.2-0.1V191c1.3-0.9,2-3.6,2-8.3v-3.2c-0.2-8.8-0.2-14.6-0.2-17.4c0-7.9,0.7-12.7,2.1-14.4
		c1.9-2.2,4.9-4.3,9-6.3C102.1,139.9,103.7,139.2,105.3,139.2z M99.1,146.1c-0.7,2.7-1,6.2-1,10.5c0,2.6,0.1,8.1,0.4,16.5
		c0,5.9-0.7,9.8-2.2,11.7v0.1h0.1c2.1-1.2,4.3-1.9,6.6-1.9c1.8,0,5,0.5,9.7,1.5c0.1-3.1,0.1-5.5,0.1-7.1v-7.9
		c-0.4-0.9-1.3-1.4-2.7-1.4c-1.6-0.2-5-0.4-10.2-0.6c-0.6-0.1-0.9-0.3-0.9-0.5v-0.4c0-0.6,0.9-1.5,2.7-2.9l10.2-8.7
		c0-0.5-1-1.4-3-2.7C104.6,148.6,101.3,146.5,99.1,146.1z"/>
	<path d="M139.1,156c2.5,1.3,6.8,3.9,12.9,8.1h0.2v0.2c0,0.5-0.6,1.2-1.9,2.1c0,0.1,0,0.2-0.1,0.4c0.1,8.6,0.2,14.3,0.2,17.2
		c1.3,1.1,2.4,1.7,3.3,1.7h1.1l0.2-0.1v1.1c-1.6,1.9-3,3-4.2,3.3c-1.2,1.6-2.2,2.4-2.9,2.4c-0.4,0-2.2-1.4-5.6-4.1
		c-0.8,0-2.4,1.1-5,3.3c-1,0.7-1.6,1-2,1h-1.4c-0.3,0-1.7-0.9-4.1-2.6c-1.8-1-3.3-1.6-4.3-1.9V188c0-0.5,0.5-1.1,1.5-2
		c0.2-1.8,0.4-4.5,0.5-8.1l-0.4-14.5c1-0.6,3.4-1.9,7.1-3.7c2.2-1.7,3.7-2.9,4.5-3.7H139.1z M135.2,163.8l0.2,20.2
		c2.5,1.7,3.9,2.6,4.3,2.6c1.8-1.1,2.8-1.6,3-1.6v-16.7c-1.9-1.8-3.9-3.4-6.1-4.7l-0.4-0.4L135.2,163.8z"/>
	<path d="M173.9,155.2c1.1,0,2,0.5,2.7,1.5c0.1,0,1.9,1.8,5.5,5.5c-0.4,3.5-0.6,6.4-0.6,8.8c0,2.2,0,6.7,0.1,13.5
		c0.3,0.7,0.8,1.4,1.5,1.9c0.5,0,1.2-0.4,2.2-1.1h0.2c0.4,0.2,0.6,0.5,0.6,1v0.4c-1.5,1.4-4,3.4-7.4,6.1h-0.2
		c-2.6-1.8-4.3-3.6-5.1-5.2v-0.2c0.4-3.7,0.6-7.2,0.6-10.3c-0.1-4.6-0.1-8.7-0.1-12.1c-0.7-0.5-2-1.6-3.8-3.2c-2.3,2-3.6,3-3.8,3.1
		c-0.1,2.2-0.1,3.9-0.1,5.2v15c1.6,1.5,2.4,2.6,2.4,3.1l-6.2,4.7H162c-1.4-0.9-3.4-2.6-5.9-5.2l2.7-2.9c-0.1-6.7-0.1-12-0.1-15.7
		v-6.1c0-0.2-0.5-0.7-1.4-1.5H157c-0.1,0-0.8,0.2-1.9,0.6c-0.5-0.2-0.7-0.5-0.7-1c0.5-0.3,2.7-2.1,6.8-5.3h0.9
		c3,2.5,4.5,4.3,4.5,5.3C168.2,160.1,170.6,158.2,173.9,155.2z"/>
	<path d="M196.5,193c-1.1,0-3.4-1.9-6.9-5.6l-0.9-1V186c0.2-1,0.4-3,0.4-5.8c0-2.6,0-8.5,0.1-17.6c2.9-1.4,5.7-3.4,8.7-5.8
		c1.7-1.5,2.6-2.2,2.9-2.2c2.3,1.9,3.6,2.9,3.8,2.9v-0.1c0.2-1.4,0.2-2.2,0.2-2.5c-0.1-2.1-0.1-3.8-0.1-5.1l-0.1-0.6
		c0.2,0,2.7-1.8,7.4-5.5h0.4c0,1.2,0,3.8-0.1,7.9c0.1,3.5,0.2,5.9,0.5,7.2c0.6,0,2.3-1,5.2-3.1c0.1,0,0.1,0,0.1,0.1
		c0,2.8-1.9,5.5-5.7,7.9v20.3c0,0.4,0.9,1.5,2.6,3.3l0.1,0.6v0.7c-0.3,0.1-2.1,1.5-5.6,4.1h-0.1c-3.4-3.6-5.1-5.5-5.1-5.7L196.5,193
		z M204.3,183v-7.7c0-2.6,0-6.1,0.1-10.5c-1.7,0-4.2-0.7-7.6-2.2h-0.1c-0.1,4.1-0.1,7.3-0.1,9.5v1.5c0,2.4,0,5.7,0.1,9.9
		c1.8,1.8,2.9,2.7,3.3,2.7h0.2C200.9,186.2,202.3,185.1,204.3,183z"/>
	<path d="M225.7,155.8c1.2,0.6,3.3,2.1,6.3,4.6v0.2c0,0.2-0.7,1-2.1,2.4l-0.1,0.2c0.1,8.5,0.1,14.4,0.1,17.7c0,0.7,0,2.3,0.1,4.7
		c0.4,0.3,0.6,0.5,0.6,0.5h0.4c0.5-0.7,1-1.1,1.5-1.1h0.9c0.1,0,0.6,0.5,1.5,1.5v0.1c-2.2,2.3-4.6,4.3-7.3,6.1h-0.2
		c-1.2-0.7-3.6-2.7-7.2-6.2c0.8-0.2,1.4-0.9,2-2c0.2-0.9,0.4-1.6,0.4-2.2v-1.1c0-3.9-0.1-10.2-0.4-18.7c-0.4-0.2-1.1-0.8-2.1-2
		C220.9,159.3,222.8,157.7,225.7,155.8z M225.9,142.1c3.2,3.1,4.7,4.6,4.7,4.7c-3.1,3.2-4.6,4.8-4.7,4.8c-3.2-3.1-4.8-4.6-4.8-4.8
		C224.2,143.7,225.8,142.1,225.9,142.1z"/>
	<path d="M243.3,193c-1.1,0-3.4-1.9-6.9-5.6l-0.9-1V186c0.2-1,0.4-3,0.4-5.8c0-2.6,0-8.5,0.1-17.6c2.9-1.4,5.7-3.4,8.7-5.8
		c1.7-1.5,2.6-2.2,2.9-2.2c2.3,1.9,3.6,2.9,3.8,2.9v-0.1c0.2-1.4,0.2-2.2,0.2-2.5c-0.1-2.1-0.1-3.8-0.1-5.1l-0.1-0.6
		c0.2,0,2.7-1.8,7.4-5.5h0.4c0,1.2,0,3.8-0.1,7.9c0.1,3.5,0.2,5.9,0.5,7.2c0.6,0,2.3-1,5.2-3.1c0.1,0,0.1,0,0.1,0.1
		c0,2.8-1.9,5.5-5.7,7.9v20.3c0,0.4,0.9,1.5,2.6,3.3l0.1,0.6v0.7c-0.3,0.1-2.1,1.5-5.6,4.1h-0.1c-3.4-3.6-5.1-5.5-5.1-5.7L243.3,193
		z M251.1,183v-7.7c0-2.6,0-6.1,0.1-10.5c-1.7,0-4.2-0.7-7.6-2.2h-0.1c-0.1,4.1-0.1,7.3-0.1,9.5v1.5c0,2.4,0,5.7,0.1,9.9
		c1.8,1.8,2.9,2.7,3.3,2.7h0.2C247.7,186.2,249,185.1,251.1,183z"/>
	<path d="M278.5,156h0.2c2.7,1.7,6.7,3.6,12,5.5v0.2c-0.2,4.6-0.2,7.6-0.2,9V187c-0.5,0.3-2.7,1.4-6.8,3.3c-1.3,0.8-2.5,1.6-3.6,2.4
		h-0.2c-5.8-3.6-10.3-5.3-13.4-5.3l-0.1-0.6c0-0.2,0.5-0.9,1.5-2.1c0.2-1.8,0.4-5,0.5-9.8c-0.1-5.9-0.1-9.8-0.1-11.5
		c-0.1-0.5-0.1-0.8-0.1-1c0.6-0.5,2.6-1.5,6.1-3.1C274.1,159.1,275.6,158.1,278.5,156z M275.7,162.2c0.1,1.5,0.1,2.6,0.1,3.3v18.1
		l7.2,2.7v-19.8c0-1.3-0.5-2-1.4-2C280.8,164.1,278.8,163.3,275.7,162.2z"/>
	<path d="M307.7,138.9h0.2c0.6,0,2.1,0.7,4.5,2.2c1.7,0.7,3.3,1.1,4.8,1.1h1.1c2.7,0,5.2-0.9,7.3-2.7h0.4v0.7c0,2.4-1.5,5-4.6,7.9
		c-2.2,2-4.8,3-7.7,3c-3.2,0-6.1-1.2-8.9-3.5c-1.3,1-2,2.3-2,4.1v0.6c0,1.2,1,2.7,3,4.5c1.2,1,3.1,1.9,5.7,2.7
		c6.2,2.1,10.4,5.3,12.5,9.5c0.5,1.3,0.7,2.3,0.7,3.2v0.4c0,4.8-2.3,10.2-6.8,16.4c-2,2.3-3.3,3.5-4,3.5h-0.4c-0.2,0-1-0.4-2.5-1.2
		c-3.5-1.7-6.7-2.6-9.7-2.6c-3.3,0-5.6,1-6.7,3c-0.6,0.7-1.1,1-1.6,1h-0.1c0.2-1.9,1.2-4.2,3.1-6.9c2.3-3,4-4.5,5.1-4.5
		c1.4-0.6,2.9-0.9,4.3-0.9c3,0,7,1.1,12,3.3h0.1c1.2-1.7,1.9-3.3,1.9-4.8c0-3.2-2.9-6-8.8-8.2c-4.9-2.3-8.5-4.1-10.7-5.6
		c-2.8-2.1-4.2-3.9-4.2-5.5c0-0.4,0-0.7-0.1-1c0-3.7,3.6-10.2,10.7-19.3C307.1,139.1,307.6,138.9,307.7,138.9z"/>
</g>
<g>
	<path class="st9" d="M226.9,75.1l-9.6-4.8l-10-4.3l-10,4.3l-9.6,4.8l-9.3,31.9c-0.6,2-0.5,4.1,0.3,6.1c0.8,2,2.1,3.6,4,4.9
		l24.7,16.4l24.7-16.4c1.8-1.2,3.2-2.9,4-4.9c0.8-2,0.9-4.1,0.3-6.1L226.9,75.1z"/>
	<path class="st9" d="M242,114.9c1.2-3,1.3-6.3,0.4-9.4l-9.9-33.9c-0.1-0.2-0.2-0.3-0.3-0.4l-11.8-6c0,0,0,0,0,0l-12.6-5.4
		c-0.2-0.1-0.4-0.1-0.6,0l-12.6,5.4c0,0,0,0,0,0l-11.8,6c-0.2,0.1-0.3,0.2-0.3,0.4l-9.9,33.9c-0.9,3.1-0.8,6.4,0.4,9.4
		c1.2,3,3.3,5.7,6.2,7.6l27.8,18.4l0.2,0.1l0.1,0.1c0.1,0.1,0.3,0.1,0.4,0.1c0.2,0,0.3,0,0.4-0.1l0.3-0.2l27.8-18.4
		C238.6,120.6,240.8,118,242,114.9z M207.3,139.8l-27.6-18.3c-5.3-3.5-7.8-9.8-6.1-15.6l9.8-33.7l11.5-5.8l12.3-5.2l12.3,5.2
		l11.5,5.8l9.8,33.7c0,0,0,0,0,0c1.7,5.8-0.7,12.1-6.1,15.6L207.3,139.8z"/>
	<path class="st9" d="M237.6,106.2l-9.4-31.8c-0.1-0.2-0.2-0.3-0.3-0.4L218,69c0,0,0,0,0,0l-10.4-4.4c-0.2-0.1-0.4-0.1-0.6,0
		L196.6,69c0,0,0,0,0,0l-9.9,4.9c-0.2,0.1-0.3,0.2-0.3,0.4l-9.4,31.8c-0.7,2.3-0.6,4.6,0.3,6.8c0.9,2.2,2.4,4.1,4.5,5.4l25.1,16.5
		c0.1,0.1,0.3,0.1,0.4,0.1c0.2,0,0.3,0,0.4-0.1l25.1-16.5c2.1-1.4,3.6-3.2,4.5-5.4C238.2,110.8,238.3,108.5,237.6,106.2z
		 M235.9,112.6c-0.8,1.9-2.1,3.6-4,4.8l-24.7,16.2l-24.7-16.2c-1.8-1.2-3.2-2.9-4-4.8c-0.8-2-0.9-4-0.3-6l9.3-31.6l9.6-4.8l10-4.2
		l10,4.2l9.6,4.8l9.3,31.6C236.8,108.6,236.7,110.7,235.9,112.6z"/>
	<g>
		<path class="st1" d="M197.7,118.8c0.5,2.3,2.9,1.1,2.9,1.1c1.7-1.1,0.5-2.7,0.5-2.7C199.9,118.5,197.7,118.6,197.7,118.8z"/>
		<path class="st1" d="M206.7,117.6c1.8-1.1,1.5-2.9,1.5-2.9c-1.2,1.3-5.5,2.3-5.5,2.3C203.1,119.2,206.7,117.6,206.7,117.6z"/>
		<path class="st1" d="M202.7,120c-0.8,0.9-2.5,1.2-2.6,1.2l3.5,0.3C203.7,120.8,202.7,120,202.7,120z"/>
		<path class="st1" d="M208.8,125.1c4.6-2.7,5.3-4.1,9.2-8.8c3.9-4.8,2.9-5.7,2.9-5.7c-2.3,3.5-8.4,6.9-8.4,6.9l-6.9,5.2
			c0,0-3.5,0-3.3,0.1C207.5,125.7,208.8,125.1,208.8,125.1z"/>
		<path class="st1" d="M205.8,121l3.9-3.2l-0.5-1c0,0-0.6,2.1-5.1,2.7C204.2,119.4,204,120.6,205.8,121z"/>
		<path class="st1" d="M220.9,106.9c0.2-3.3-2.7-2.7-2.7-2.7l-1.4,3.1l0.6,4.7C220.7,109.1,220.9,106.9,220.9,106.9z"/>
		<path class="st1" d="M210.8,116.9c0.7-0.2,4.6-2.9,4.6-2.9c0.9-2.6,0-5.5,0-5.5c-0.8,1.1-4.9,4.8-4.9,4.8
			C209.4,115,210.8,116.9,210.8,116.9z"/>
		<path class="st1" d="M201.3,113.5c-0.1,1.1,0.5,1.7,0.5,1.7c1.3,1.2,5.3-1.1,5.3-1.1c2.9-1.6,2.5-4.2,2.5-4.2
			C207.2,111.8,201.3,113.5,201.3,113.5z"/>
		<path class="st1" d="M193.1,78.7c0,0,2.2,1.7,6.4-2.2l-1.6-1l-5.4-0.7C192.5,74.8,191,76.8,193.1,78.7z"/>
		<path class="st1" d="M193.7,65l0.9,1.5l-0.2,1.8c0,1.4,0.3,2.5,1.1,3.6c2.3,2.9,6.4,4.4,6.4,4.4l0.3-14.2l-4.8-3.1l0.7-3.3
			l5.8,2.6l4.4-2.4l0.6,3l-3.7,2.9l0.5,12.8c2.3-1.2,4.6-1.8,4.6-1.8c1-1.6,0.2-6.8,0.2-6.8l0.9-1.2l-2-9.1l-5.9-4.5l-6.9,5
			L193.7,65z"/>
		<path class="st1" d="M207.5,57.5c-2,0.7-1.9,2.2-1.9,2.2C208.1,59.7,207.5,57.5,207.5,57.5z"/>
		<path class="st1" d="M217.9,95.1c0.6,6.6-4.3,9.4-4.3,9.4c-0.4,2.2-2.5,4.2-2.5,4.2l-0.1,2.6c3.9-3.7,7.3-8.4,7.6-11.6
			C218.9,96.6,217.9,95.1,217.9,95.1z"/>
		<path class="st1" d="M208.1,109.8c4-2.3,4.1-4.7,4.1-4.7c-4.2,5.3-12.9,7.6-12.7,7.6C203.4,112.3,208.1,109.8,208.1,109.8z"/>
		<path class="st1" d="M219.1,89.6l0.3,0.8c1.3-3.4-0.2-8.3-0.2-8.5C220.2,85.7,219.1,89.5,219.1,89.6z"/>
		<path class="st1" d="M217.8,89.6c-2.5-7-9.4-7.5-11.9-7.5c-2.5,0.1-3.8,1.2-3.8,1.2c2.6-0.6,7-0.9,10.6,1.4
			c3.3,2.1,5.3,6.7,5.3,6.7C218.1,90.3,217.8,89.6,217.8,89.6z"/>
		<path class="st1" d="M217.5,80.2c-0.4-1.9-2.7-3.4-4.2-4.1c-0.8-0.4-1.8-0.5-2.7-0.3l-1.2,0.4c-7.4,2.6-7.6,5.1-7.6,5.1
			c10.2-3,15.2,4.3,15.2,4.3S218.2,83.2,217.5,80.2z"/>
		<path class="st1" d="M177.7,109.1c2.9-4.6,1.9-8.9,1-9.5c-0.9-0.5-3.5,0-4.7,3.3c-1.2,3.3-0.3,8.5-0.3,8.5
			C176,110.9,177.7,109.1,177.7,109.1z"/>
		<path class="st1" d="M172.4,99.2l0.9,0.1c-0.1-0.7,0-1.4,0.1-2l-0.3,0.1L172.4,99.2z"/>
		<path class="st1" d="M192.8,54.7c-0.2,0.3-0.4,0.6-0.6,0.9c0.6,0.3,1.8,0.9,2.8,1l0.3-0.8C194.6,55.7,193.5,55.5,192.8,54.7z"/>
		<path class="st1" d="M171.5,106.9l0.4-2.2l-1.7,1C170.2,105.6,171.3,106.4,171.5,106.9z"/>
		<path class="st1" d="M180.8,107.4l0.7-0.3c0.9-3.5-0.6-5.3-0.6-5.3C181.6,105,180.8,107.4,180.8,107.4z"/>
		<path class="st1" d="M174.2,98.5c0,0.5,0,0.8,0,0.8c3-2.1,5.3-1.3,5.3-1.3c0-0.1,0-0.3-0.1-0.4C178.6,97.2,176.6,96.7,174.2,98.5z
			"/>
		<path class="st1" d="M182.5,118.8l-0.4-0.1c-0.9,1.8-2.4,3.3-2.5,3.4C182,120.2,182.5,118.8,182.5,118.8z"/>
		<path class="st1" d="M185.5,81.9c0,0-2.3,0.4-3.7,5.9c0,0-2.4,7.8,4,13.8c0,0,1-9.9,2.7-15C188.5,86.5,189.5,82.1,185.5,81.9z"/>
		<path class="st1" d="M176.6,114.5l1-3.5l-1.1,0.4l-1.3,3.4c1.3,1.1,6,2.4,6,2.4l2.1-0.6L176.6,114.5z"/>
		<path class="st1" d="M202.3,78.4c0.2-0.1,7.3-4.2,10-3.9c2.8,0.4,6.6,4.4,6.6,4.4s2.9,3.2,7,10.4c0,0,5,7.5,9.8,9.8
			C235.5,99,229.9,95,226,87C222,78.8,215.2,67.2,202.3,78.4z"/>
		<path class="st1" d="M192.6,84.4c-2.1,0.7-3.5,4.9-3.5,4.9c-1.7,5.5-2,11.4-2,11.5c3.4-4.2,7.3-6.2,7.3-6.2c0.3-5.4,2.9-8,2.9-8
			c-0.1-2.1-1.2-3.3-1.2-3.3S194.7,83.7,192.6,84.4z"/>
		<path class="st1" d="M194.6,95.9c-3.1,1.5-5.5,4.9-5.6,5c2.1-2.4,5.6-4.4,5.6-4.4L194.6,95.9z"/>
		<path class="st1" d="M191.6,113.4c5.8-0.9,12.4-4.2,12.4-4.2c8.6-5.1,6.3-9.3,6.3-9.3c-7.6-5.4-14-3.1-14-3.1
			c-3.2,0.9-9.1,7.2-11.5,9.3c-2.4,2.1-5.6,3.2-5.6,3.2s-1.6,4.6-1.5,4.7c0.1,0.2,7.7,2,7.7,2C187.5,114.3,191.6,113.4,191.6,113.4z
			"/>
		<path class="st1" d="M206,94.6c0,0-5.2-1.8-10.2,0.4c0,0.2,0,0.3,0,0.3c12.1-2.2,17.2,5,18.4,7C213.9,100.6,212.7,97,206,94.6z"/>
		<path class="st1" d="M180.6,96.7c2,5.6,4.8,7.4,4.8,7.4c0.5,0.1,0.6-0.5,0.6-0.5c-3.8-3.3-5.5-8.9-5.5-8.9
			C180,95.2,180.6,96.7,180.6,96.7z"/>
		<path class="st1" d="M200.2,85.6c-2.8,2.1-3.8,5.4-4.2,7.5c2.4-0.6,11.6-2.4,16.8,4.2c1.2-1,3.7-3.7,2.1-8.9
			C209.4,80.8,200.2,85.6,200.2,85.6z"/>
		<path class="st1" d="M215.1,101.7c2.4-4,1.9-7.7,1.2-10.2c0.5,2.4,0.5,5.7-1.3,9.7C215,101.4,215.1,101.5,215.1,101.7z"/>
		<path class="st1" d="M199.2,57.8c0.7,2.8,3,1.9,3,1.9C201.2,57.2,199.2,57.7,199.2,57.8z"/>
		<path class="st1" d="M173.2,126.2c-1.1,1.1-1.3,2.2-1.3,2.2l0.9,0.9c0.4-0.7,1.2-1.8,2.5-2.6C174.4,126.1,173.7,126,173.2,126.2z"
			/>
		<path class="st1" d="M196.3,54.7l4.2-2.9c-3.1-0.4-5.3,0.5-6.8,1.9C194.2,54.2,195.1,54.8,196.3,54.7z"/>
		<path class="st1" d="M177.4,125.8l-1-1.1c-0.2,0-0.4,0.1-0.6,0.1l1,1.1C177,125.9,177.2,125.8,177.4,125.8z"/>
		<path class="st1" d="M174.3,147.4c1.4-6.3,5.5-8,5.5-8l-9.3-10C170.2,139.2,174.3,147.4,174.3,147.4z"/>
		<path class="st1" d="M179.7,129l1.7,1.8c0.2-0.1,0.4-0.1,0.5-0.2l-1.7-1.8C180.1,128.9,179.9,129,179.7,129z"/>
		<path class="st1" d="M180.7,132.4c-0.9,0.6-1.9,1.5-2.5,2.8l1.1,1.2c0.4-0.8,1.2-1.9,2.4-2.8L180.7,132.4z"/>
		<path class="st1" d="M177.6,126.8l1.3,1.5c0.2-0.1,0.4-0.1,0.5-0.2l-1.4-1.5C178,126.6,177.8,126.7,177.6,126.8z"/>
		<path class="st1" d="M177.6,128.8l-0.4-0.5c-0.3-0.4-0.6-0.7-0.9-0.9c-1,0.6-2,1.5-2.7,2.7l1.3,1.4
			C175.3,130.8,176.2,129.7,177.6,128.8z"/>
		<path class="st1" d="M189.5,137.3c-2.5-4.1-6.6-0.6-7.4,1.2c-0.8,1.8,1,3.7,1,3.7C184.5,137.6,189.5,137.3,189.5,137.3z"/>
		<path class="st1" d="M224.3,111.7c1.2-3.4-0.3-4.1-0.3-4.1c0.9,2.2-0.7,5.1-0.7,5.1c0-1.8-1.4-1.1-1.4-1.1
			c-6.4,12.5-13.2,14.7-13.2,14.7c-4.8-0.8-9.5-4.1-9.5-4.1c-0.4-1.1-2-1.9-2-1.9c0,4,0.7,3.9,0.7,3.9c3.8,2.9,11.6,4.4,11.6,4.4
			c1.9-1.1,6.9-5.9,6.9-5.9S223.2,115,224.3,111.7z"/>
		<path class="st1" d="M182.5,134.5c-0.9,0.6-1.8,1.5-2.4,2.8l0.8,0.9c0.4-1,1.5-2,2.4-2.6L182.5,134.5z"/>
		<path class="st1" d="M199.8,115.1c0,0-0.5-1.4-2.4-0.7l-4.9,1.2c0,0,2.7,2.6,5.9,1.8C198.4,117.3,200.3,116.6,199.8,115.1z"/>
		<path class="st1" d="M227.8,94.3c-2.2-3.3-4.3-1.8-4.3-1.8c-3.3,1.8-1.1,10.1-1.1,10.1c4.6,4.1,4.6,6,4.6,6
			c0.7,6.6-11.8,17.7-11.8,17.7c18.7,6.9,27.9-0.2,27.9-0.2c13.1-9.8,11.6-23.9,11.6-23.9C239.6,108.5,227.8,94.3,227.8,94.3z"/>
		<path class="st1" d="M184.5,118.6c-1.3,3.8-6,6.4-6,6.4s5.7,6.3,7.2,7.7c1.5,1.4,2.8,1.4,2.8,1.4c2.7-3.3,8.5-6.2,8.5-6.2
			C195.3,115,184.5,118.6,184.5,118.6z"/>
		<path class="st1" d="M185.3,134.3l-0.9-1c-0.1,0.1-0.3,0.1-0.5,0.2l0.9,1C185.2,134.4,185.3,134.3,185.3,134.3z"/>
		<path class="st1" d="M183.9,143l0,0.1c2.7,1.4,5.2-0.8,5.2-0.8c1.8-1.8,1.3-3.9,1.3-3.9C185.4,137.7,183.9,143,183.9,143z"/>
		<path class="st1" d="M180,131.6l-1.6-1.9c-1,0.6-2,1.4-2.7,2.7l1.8,1.9C177.9,133.5,178.7,132.4,180,131.6z"/>
		<path class="st1" d="M196,73.8c-1-0.6-1.6-1.4-2.1-2.2c-1-0.1-4.2-0.6-5.5-3.4c-0.4,0.8-0.7,1.1-0.7,1.1
			C191.1,74.8,196,73.8,196,73.8z"/>
		<path class="st1" d="M191.5,82.1c0,0,4.2,0.6,6.2-0.9c0,0,2.8-2.5,3.7-3.5l-0.5-0.2c0,0-3.2,3.7-8.3,2.8c0,0-3-1.1-2.1-6.4
			l-0.8-0.6c0,0-1.4,2.9-0.7,5.3C189.7,80.8,191.5,82.1,191.5,82.1z"/>
		<path class="st1" d="M186.8,80c-0.8-0.3-2.1-0.5-4.1,0.7c-0.2,0.1,2.4-3,6.1-0.5c-2-2.3-0.6-5.7-0.6-5.7c-5.4,2-6.7,7.8-6.7,7.9
			C183.4,80.6,185.3,80.1,186.8,80z"/>
		<path class="st1" d="M181.3,84.9c-3.6,2.5-5,5.4-5.5,7.1c1.4-0.6,2.7-0.1,3.5,0.3C179.6,88,181.3,84.9,181.3,84.9z"/>
		<path class="st1" d="M182.1,131.7l1.1,1.2c0.2-0.1,0.4-0.1,0.5-0.2l-1.1-1.2C182.5,131.5,182.3,131.6,182.1,131.7z"/>
		<path class="st1" d="M193.4,70.3c-0.5-1.8-0.2-3.6-0.2-3.6l-1.2-1.3l2.6-7.6c-0.8-0.2-2.2-0.7-2.9-1.3c-1.3,2.8-1.7,6-2,7.7
			c-0.3,1.3-0.6,2.3-0.9,3.1C189.3,68.2,190.6,69.9,193.4,70.3z"/>
		<path class="st1" d="M179.1,94.4c0-0.3,0-0.5,0-0.8c-1.6-1.2-2.9-0.9-3.7-0.6c-0.1,0.4-0.1,0.7-0.1,0.7
			C177.8,93.2,179.1,94.4,179.1,94.4z"/>
		<path class="st1" d="M196.8,49.5c0,0-0.7-1.8-3.2-1.9c0,0,2.2-1.2,4.4,1.9c0,0,0.1-2.3-2.6-3.7c0,0,3.1,0.5,3.7,3.9
			c0,0,0.9-1,0.4-2.8c-0.3-1.3-1.3-2.3-2.6-2.7c0,0,0,0-0.1,0c-0.8-0.2-1.6-0.2-2.4,0c-1.1,0.3-3.3,0.9-5.6,1.8c0,0-5.2,1.5-6.5,0.3
			c0,0,1.1,2.7,6.6,1.2c0,0-0.9,1.3-3.1,2c0,0-8.2,2.2-6.5,11.3c0,0,0.1-6.1,6.3-8.7c0,0-8.6,6.8-3.7,13.5c0,0-0.5-7,3.2-8.9
			c0,0,1.9-0.4,1.6,2.9c0,0,0.6,0,1-3.7C187.6,55.9,188.9,49.1,196.8,49.5z"/>
		<path class="st1" d="M179.3,96.9c-0.7-2.1-2.2-2.7-3.6-1.6c-0.8,0.6-1.1,1.4-1.3,2.2C175.4,96.8,177.1,96,179.3,96.9z"/>
		<path class="st1" d="M172,111.8c-0.6-3.1-3.3-4.7-3.3-4.7s-0.7-0.5-1.6-0.2c-0.9,0.3-0.9,1.1-0.9,1.1s0.2,2,0.5,3.5
			c0.3,1.2,0.9,1.1,0.9,1.1c2.9,0,1.4-4.1,1.4-4.1c1.3,0.4,2.4,3.5,2.4,3.5L172,111.8z"/>
		<path class="st1" d="M164.6,115.4c-0.4-0.1-0.7,0-0.7,0l-2,1.7c0.5-1.3,1.9-2.4,1.9-2.4l1.9-0.7c0.6-0.5-0.1-1.2-0.1-1.2
			c-1.2-0.3-2.6,0.3-2.6,0.3l-2.8,2.3c2.1-4.1,4.7-3.6,4.7-3.6c0.4-0.6-0.2-1.2-0.2-1.2c-2-0.2-3.1,0.3-3.2,0.3
			c-0.1,0.1-3.2,2.6-3.2,2.6c2.5-3.6,3.5-3.8,3.5-3.8l2.4-0.2c0-0.5-0.2-0.7-0.2-0.7c-2.5-0.9-3.3-0.5-3.3-0.5s-3.1,3-3.7,3.9
			c-0.7,0.9-0.1,2.2-0.1,2.2c0,0.1,0.8,1.8,0.8,1.9c0.1,0.7,0.7,1.3,1,1.3c0.3,0,0.8,0.7,1.3,1.6c0.4,0.9,1.6,0.6,1.6,0.6
			C162.4,118,164.6,115.4,164.6,115.4z"/>
		<path class="st1" d="M161.3,107.1l2.4,0.1l7.7-5.1l1.7,0c-0.2-0.7,0.2-1.5,0.4-1.8l-2.1-0.4l1.4-3.2l1-0.2
			c0.2-0.7,0.5-1.1,0.5-1.1l-1.8,0.4l-3,4.2l-24.9,16.1l-5.4,1.2l-4.8,7.8l8.4-1.4l3.5-4.9l9.1-6c1.3-2,2.9-3.9,3.9-5
			C159.7,107.4,160.5,107.1,161.3,107.1z"/>
		<path class="st1" d="M167.9,127.6c-1-3.7-0.1-5.7,0-5.8c0,0-0.1,1.2,0.5,4.2c0.6,3,2.3,2.4,2.3,2.4c-0.1-5.1,2.8-4.9,2.8-4.9
			c2.5-0.3,3.5-0.9,3.5-0.9c2.8-1.3,3.5-4.4,3.5-4.4c-3.7-1-6.4-3-6.4-3l0.9-3.1c0,0-5.3,1.5-7.1,1.8c-1.8,0.3-3.8,3.7-3.8,3.7
			s-1.8,2.8-2.2,4.2c-0.3,1.4,0.6,2.1,0.6,2.1c0.9-3.7,2.2-4.4,2.2-4.4l-1.2,3.6c-0.1,2.5,1.5,2.8,1.5,2.8c0-2.3,1.2-5.6,1.2-5.6
			l-0.3,5.3C166.2,127.5,167.9,127.6,167.9,127.6z"/>
		<polygon class="st1" points="158.3,104.1 116.4,55 105,49.4 154.4,103.6 		"/>
		<polygon class="st1" points="153.3,105 103,50.4 107.6,64.8 152.1,108.2 		"/>
		<path class="st1" d="M153.7,108.9c0,0,5.4-3.2,5.1-3.2c-0.3,0-4.1-0.3-4.1-0.3L153.7,108.9z"/>
		<path class="st9" d="M242.1,100.2c0,0-6.5-1.9-13.5-13.8c0,0-3.8-8.4-8.2-11.9c-3.3-2.6-7.8-2.8-7.8-2.8s0.5-1.7,0-4.8l0.8-1.3
			l-2.2-10.8l-7.3-5.9l-1.8,0.8c0,0-0.4,0.1-0.4-0.4c0,0,1.8-6.7-5.5-7.3c0,0-2.6-0.6-9,2.1c0,0-4.6,1.7-7.1-0.4c0,0-1.3,2.4,1.4,5
			c0.1,0.1-7.2,4.9-3.2,14.6c0,0,1.2,4.3,4.9,5.1c0,0,0.2-3.3,0.7-4.2c0,0,2.2-0.1,4.6-3.9c0,0.1-0.8,5-3.1,8.8c0,0,0.3,2.2,1.7,3.4
			c0,0-5.4,1.7-8.2,11.5c0,0-4.5,2.6-5.8,9.2l-2.3,0.3l-2.4,4.1l-8,5.3l-42.2-50.5l-20.4-9.2l7.3,23.3l45.2,43.1l-6.3,3.9l-6.2,1.7
			l-7.5,13.1l13.4-2.2l4-5.5l7.4-4.8c0,0,0.7,0.1,0.9,1.5c0,0,0.3,1.7,1.8,2.4c0,0,0.5,0.5,0.7,1c0.2,0.5,1.2,1.4,1.6,1.5
			c0,0-0.3,1.8,1.3,3c0,0,1,0.7,1.2,1.3c0,0,0.5,1.5,2.5,1.7c0,0,0.5,0.4,0.7,0.9c0,0,0.5,0.5,2.1,0.7c0,0,1,18.5,7.2,21.5
			c0,0,2.1-6.5,5.2-9.1c0,0,2.1,4,5.6,3.2c3.4-0.8,9.7-5.9,4.8-10.6c0,0,6.3-6.1,12.2-5.4l6,1.6l4.1-2.3c0,0,2.4,0.4,12.6,2.6
			c0,0,15.1,3.4,25.1-8.8c0,0,8.9-10.1,5.6-24C256.4,98.5,248.8,103.7,242.1,100.2z M226,87c3.9,8,9.5,12,9.7,12.1
			c-4.8-2.3-9.8-9.8-9.8-9.8c-4.1-7.1-7-10.4-7-10.4s-3.8-4-6.6-4.4c-2.7-0.4-9.8,3.8-10,3.9C215.2,67.2,222,78.8,226,87z
			 M181.1,117.3c0,0-4.6-1.4-6-2.4l1.3-3.4l1.1-0.4l-1,3.5l6.6,2.2L181.1,117.3z M182.5,118.8c0,0-0.5,1.4-2.9,3.3
			c0,0,1.6-1.5,2.5-3.4L182.5,118.8z M174,102.9c1.2-3.3,3.8-3.8,4.7-3.3c0.9,0.5,1.9,4.9-1,9.5c0,0-1.7,1.8-4.1,2.3
			C173.7,111.4,172.8,106.2,174,102.9z M171.5,106.9c-0.1-0.4-1.3-1.2-1.3-1.2l1.7-1L171.5,106.9z M173.3,99.4l-0.9-0.1l0.8-1.8
			l0.3-0.1C173.3,98,173.3,98.7,173.3,99.4z M179.6,98c0,0-2.3-0.8-5.3,1.3c0,0-0.1-0.3,0-0.8c2.3-1.8,4.4-1.3,5.3-0.9
			C179.5,97.7,179.6,97.8,179.6,98z M181.5,107.1l-0.7,0.3c0,0,0.8-2.4,0.1-5.7C180.9,101.7,182.4,103.6,181.5,107.1z M177.6,114.1
			c-0.1-0.2,1.5-4.7,1.5-4.7s3.1-1.1,5.6-3.2c2.4-2.1,8.4-8.4,11.5-9.3c0,0,6.4-2.3,14,3.1c0,0,2.3,4.2-6.3,9.3
			c0,0-6.5,3.3-12.4,4.2c0,0-4.1,0.9-6.4,2.7C185.2,116.1,177.6,114.3,177.6,114.1z M186,103.5c0,0-0.1,0.6-0.6,0.5
			c0,0-2.8-1.7-4.8-7.4c0,0-0.6-1.4-0.1-2.1C180.5,94.6,182.2,100.3,186,103.5z M212.8,97.4c-5.2-6.6-14.5-4.8-16.8-4.2
			c0.4-2.1,1.4-5.4,4.2-7.5c0,0,9.2-4.8,14.7,2.8C216.5,93.6,214,96.4,212.8,97.4z M216.3,91.5c0.8,2.4,1.2,6.2-1.2,10.2
			c-0.1-0.2-0.1-0.3-0.2-0.5C216.8,97.2,216.8,93.9,216.3,91.5z M214.1,102.3c-1.2-2-6.2-9.3-18.4-7c0,0,0-0.1,0-0.3
			c5-2.2,10.2-0.4,10.2-0.4C212.7,97,213.9,100.6,214.1,102.3z M197.4,86.5c0,0-2.6,2.6-2.9,8c0,0-4,2-7.3,6.2c0-0.1,0.3-6,2-11.5
			c0,0,1.4-4.2,3.5-4.9c2.1-0.7,3.6-1.1,3.6-1.1S197.3,84.4,197.4,86.5z M194.6,95.9l0,0.6c0,0-3.5,2-5.6,4.4
			C189.1,100.8,191.5,97.5,194.6,95.9z M188.5,86.5c-1.7,5.1-2.7,15-2.7,15c-6.4-6-4-13.8-4-13.8c1.4-5.4,3.7-5.9,3.7-5.9
			C189.5,82.1,188.5,86.5,188.5,86.5z M212.1,105.1c0,0,0,2.3-4.1,4.7c0,0-4.7,2.5-8.6,2.9C199.3,112.7,207.9,110.4,212.1,105.1z
			 M207.1,114.1c0,0-4,2.2-5.3,1.1c0,0-0.6-0.6-0.5-1.7c0,0,6-1.7,8.3-3.6C209.6,110,210,112.5,207.1,114.1z M215.5,108.6
			c0,0,0.8,2.9,0,5.5c0,0-3.9,2.6-4.6,2.9c0,0-1.4-1.9-0.3-3.5C210.5,113.4,214.6,109.6,215.5,108.6z M204.2,119.4
			c4.5-0.6,5.1-2.7,5.1-2.7l0.5,1l-3.9,3.2C204,120.6,204.2,119.4,204.2,119.4z M202.7,116.9c0,0,4.3-1,5.5-2.3c0,0,0.3,1.9-1.5,2.9
			C206.7,117.6,203.1,119.2,202.7,116.9z M201.1,117.2c0,0,1.2,1.6-0.5,2.7c0,0-2.4,1.2-2.9-1.1
			C197.7,118.6,199.9,118.5,201.1,117.2z M202.7,120c0,0,1,0.8,1,1.6l-3.5-0.3C200.2,121.2,201.9,120.9,202.7,120z M205.4,122.6
			l6.9-5.2c0,0,6.1-3.4,8.4-6.9c0,0,1,1-2.9,5.7c-3.9,4.8-4.6,6.2-9.2,8.8c0,0-1.2,0.6-6.7-2.3C201.9,122.7,205.4,122.6,205.4,122.6
			z M217.4,112.1l-0.6-4.7l1.4-3.1c0,0,2.9-0.6,2.7,2.7C220.9,106.9,220.7,109.1,217.4,112.1z M218.6,99.8
			c-0.4,3.2-3.8,7.9-7.6,11.6l0.1-2.6c0,0,2.1-2,2.5-4.2c0,0,4.9-2.8,4.3-9.4C217.9,95.1,218.9,96.6,218.6,99.8z M212.7,84.8
			c-3.6-2.3-8-2-10.6-1.4c0,0,1.3-1.1,3.8-1.2c2.5-0.1,9.4,0.5,11.9,7.5c0,0,0.2,0.7,0.1,1.8C218,91.5,216,86.8,212.7,84.8z
			 M201.8,81.3c0,0,0.1-2.5,7.6-5.1l1.2-0.4c0.9-0.3,1.9-0.2,2.7,0.3c1.5,0.8,3.8,2.2,4.2,4.1c0.7,3-0.5,5.4-0.5,5.4
			S212.1,78.3,201.8,81.3z M219.1,89.6c0.1-0.1,1.1-3.9,0.1-7.7c0.1,0.2,1.5,5.1,0.2,8.5L219.1,89.6z M203.5,51.3l5.9,4.5l2,9.1
			l-0.9,1.2c0,0,0.8,5.1-0.2,6.8c0,0-2.3,0.5-4.6,1.8l-0.5-12.8l3.7-2.9l-0.6-3l-4.4,2.4l-5.8-2.6l-0.7,3.3l4.8,3.1l-0.3,14.2
			c0,0-4.1-1.4-6.4-4.4c-0.8-1.1-1.2-2.2-1.1-3.6l0.2-1.8l-0.9-1.5l3-8.7L203.5,51.3z M205.6,59.6c0,0-0.2-1.5,1.9-2.2
			C207.5,57.5,208.1,59.7,205.6,59.6z M202.2,59.7c0,0-2.3,0.9-3-1.9C199.2,57.7,201.2,57.2,202.2,59.7z M199.5,76.5
			c-4.2,3.9-6.4,2.2-6.4,2.2c-2.1-1.9-0.6-3.9-0.6-3.9l5.4,0.7L199.5,76.5z M195.2,55.8l-0.3,0.8c-1-0.1-2.2-0.7-2.8-1
			c0.2-0.3,0.4-0.6,0.6-0.9C193.5,55.5,194.6,55.7,195.2,55.8z M193.7,53.8c1.5-1.5,3.7-2.4,6.8-1.9l-4.2,2.9
			C195.1,54.8,194.2,54.2,193.7,53.8z M186.6,59.6c0.3-3.3-1.6-2.9-1.6-2.9c-3.7,1.9-3.2,8.9-3.2,8.9c-4.9-6.7,3.7-13.5,3.7-13.5
			c-6.2,2.6-6.3,8.7-6.3,8.7c-1.7-9.2,6.5-11.3,6.5-11.3c2.2-0.7,3.1-2,3.1-2c-5.5,1.5-6.6-1.2-6.6-1.2c1.3,1.2,6.5-0.3,6.5-0.3
			c2.4-0.9,4.6-1.5,5.6-1.8c0.8-0.2,1.6-0.2,2.4,0c0,0,0.1,0,0.1,0c1.3,0.4,2.2,1.4,2.6,2.7c0.5,1.8-0.4,2.8-0.4,2.8
			c-0.6-3.4-3.7-3.9-3.7-3.9c2.7,1.4,2.6,3.7,2.6,3.7c-2.2-3.1-4.4-1.9-4.4-1.9c2.5,0.1,3.2,1.9,3.2,1.9c-7.9-0.3-9.1,6.4-9.1,6.4
			C187.2,59.6,186.6,59.6,186.6,59.6z M189.7,64.3c0.4-1.7,0.7-5,2-7.7c0.7,0.6,2,1,2.9,1.3l-2.6,7.6l1.2,1.3c0,0-0.3,1.7,0.2,3.6
			c-2.8-0.4-4.2-2.1-4.7-3C189.1,66.6,189.4,65.6,189.7,64.3z M188.4,68.2c1.3,2.8,4.6,3.3,5.5,3.4c0.4,0.9,1.1,1.7,2.1,2.2
			c0,0-4.8,1-8.4-4.6C187.6,69.3,187.9,68.9,188.4,68.2z M189.7,73.2l0.8,0.6c-1,5.4,2.1,6.4,2.1,6.4c5.1,0.9,8.3-2.8,8.3-2.8
			l0.5,0.2c-0.9,1-3.7,3.5-3.7,3.5c-2,1.5-6.2,0.9-6.2,0.9s-1.8-1.3-2.5-3.6C188.3,76.1,189.7,73.2,189.7,73.2z M188.2,74.4
			c0,0-1.4,3.4,0.6,5.7c-3.7-2.4-6.3,0.6-6.1,0.5c2-1.2,3.3-1,4.1-0.7c-1.4,0.1-3.4,0.6-5.3,2.4C181.5,82.3,182.8,76.5,188.2,74.4z
			 M181.3,84.9c0,0-1.6,3.1-2,7.4c-0.8-0.4-2.1-0.8-3.5-0.3C176.3,90.3,177.7,87.4,181.3,84.9z M175.5,93c0.7-0.4,2-0.7,3.7,0.6
			c0,0.3,0,0.5,0,0.8c0,0-1.4-1.2-3.7-0.6C175.4,93.7,175.4,93.5,175.5,93z M175.7,95.3c1.5-1.1,2.9-0.5,3.6,1.6
			c-2.2-0.9-4-0.1-4.9,0.6C174.6,96.7,175,95.9,175.7,95.3z M116.4,55l42,49.1l-3.9-0.5L105,49.4L116.4,55z M158.8,105.8
			c0.3,0-5.1,3.2-5.1,3.2l1-3.4C154.7,105.5,158.6,105.8,158.8,105.8z M107.6,64.8L103,50.4l50.4,54.6l-1.2,3.2L107.6,64.8z
			 M155.3,113l-9.1,6l-3.5,4.9l-8.4,1.4l4.8-7.8l5.4-1.2l24.9-16.1l3-4.2l1.8-0.4c0,0-0.3,0.4-0.5,1.1l-1,0.2l-1.4,3.2l2.1,0.4
			c-0.2,0.3-0.5,1.2-0.4,1.8l-1.7,0l-7.7,5.1l-2.4-0.1c-0.8,0-1.6,0.3-2.1,0.9C158.2,109.1,156.5,111,155.3,113z M168.9,108.5
			c0,0,1.6,4.1-1.4,4.1c0,0-0.6,0.1-0.9-1.1c-0.3-1.4-0.5-3.5-0.5-3.5s0-0.8,0.9-1.1c0.9-0.3,1.6,0.2,1.6,0.2s2.7,1.6,3.3,4.7
			l-0.7,0.2C171.2,112,170.1,108.9,168.9,108.5z M160.1,119.3c-0.4-0.9-1-1.6-1.3-1.6c-0.3,0-0.9-0.7-1-1.3c0-0.1-0.8-1.9-0.8-1.9
			c0,0-0.6-1.3,0.1-2.2c0.7-0.9,3.7-3.9,3.7-3.9s0.8-0.4,3.3,0.5c0,0,0.2,0.2,0.2,0.7l-2.4,0.2c0,0-1,0.2-3.5,3.8
			c0,0,3.2-2.6,3.2-2.6c0.1-0.1,1.2-0.5,3.2-0.3c0,0,0.6,0.6,0.2,1.2c0,0-2.6-0.5-4.7,3.6l2.8-2.3c0,0,1.4-0.6,2.6-0.3
			c0,0,0.7,0.6,0.1,1.2l-1.9,0.7c0,0-1.4,1.1-1.9,2.4l2-1.7c0,0,0.3-0.1,0.7,0c0,0-2.2,2.6-2.9,4.5
			C161.7,119.9,160.5,120.2,160.1,119.3z M165.9,125.6l0.3-5.3c0,0-1.1,3.3-1.2,5.6c0,0-1.7-0.3-1.5-2.8l1.2-3.6
			c0,0-1.3,0.7-2.2,4.4c0,0-0.9-0.7-0.6-2.1c0.3-1.4,2.2-4.2,2.2-4.2s2-3.4,3.8-3.7c1.8-0.3,7.1-1.8,7.1-1.8l-0.9,3.1
			c0,0,2.7,2,6.4,3c0,0-0.8,3.1-3.5,4.4c0,0-1,0.7-3.5,0.9c0,0-2.9-0.2-2.8,4.9c0,0-1.7,0.6-2.3-2.4c-0.6-3-0.5-4.2-0.5-4.2
			c0,0.1-1,2.1,0,5.8C167.9,127.6,166.2,127.5,165.9,125.6z M183.2,132.8l-1.1-1.2c0.2-0.1,0.4-0.2,0.5-0.2l1.1,1.2
			C183.6,132.7,183.4,132.7,183.2,132.8z M184.5,133.4l0.9,1c0,0-0.2,0.1-0.5,0.3l-0.9-1C184.1,133.5,184.3,133.4,184.5,133.4z
			 M181.4,130.9l-1.7-1.8c0.2-0.1,0.4-0.1,0.5-0.2l1.7,1.8C181.8,130.7,181.6,130.8,181.4,130.9z M179,128.2l-1.3-1.5
			c0.2-0.1,0.4-0.1,0.5-0.2l1.4,1.5C179.3,128.1,179.1,128.2,179,128.2z M176.2,127.4c0.3,0.3,0.6,0.6,0.9,0.9l0.4,0.5
			c-1.4,0.8-2.3,2-2.7,2.7l-1.3-1.4C174.2,128.9,175.3,128,176.2,127.4z M172.8,129.3l-0.9-0.9c0,0,0.2-1.2,1.3-2.2
			c0.5-0.2,1.1-0.1,2.1,0.5C174,127.5,173.2,128.6,172.8,129.3z M175.8,124.8c0.2,0,0.4-0.1,0.6-0.1l1,1.1c-0.2,0-0.4,0.1-0.5,0.2
			L175.8,124.8z M178.3,129.7l1.6,1.9c-1.3,0.8-2.1,1.9-2.5,2.8l-1.8-1.9C176.3,131.2,177.4,130.3,178.3,129.7z M174.3,147.4
			c0,0-4.2-8.2-3.8-18l9.3,10C179.8,139.4,175.8,141.1,174.3,147.4z M178.2,135.2c0.6-1.2,1.6-2.1,2.5-2.8l1,1.1
			c-1.2,0.9-2,2-2.4,2.8L178.2,135.2z M180.1,137.2c0.6-1.2,1.5-2.1,2.4-2.8l0.9,1c-1,0.7-2,1.6-2.4,2.6L180.1,137.2z M182.1,138.4
			c0.8-1.8,4.9-5.3,7.4-1.2c0,0-4.9,0.3-6.4,4.8C183,142.1,181.3,140.2,182.1,138.4z M189.1,142.3c0,0-2.5,2.2-5.2,0.8l0-0.1
			c0,0,1.5-5.3,6.5-4.6C190.4,138.4,190.9,140.5,189.1,142.3z M197,127.8c0,0-5.8,2.9-8.5,6.2c0,0-1.4,0.1-2.8-1.4
			c-1.5-1.4-7.2-7.7-7.2-7.7s4.8-2.6,6-6.4C184.5,118.6,195.3,115,197,127.8z M192.5,115.6l4.9-1.2c1.9-0.7,2.4,0.7,2.4,0.7
			c0.5,1.4-1.3,2.2-1.3,2.2C195.2,118.2,192.5,115.6,192.5,115.6z M209.5,128.5c0,0-7.9-1.5-11.6-4.4c0,0-0.7,0.1-0.7-3.9
			c0,0,1.6,0.8,2,1.9c0,0,4.7,3.3,9.5,4.1c0,0,6.8-2.3,13.2-14.7c0,0,1.4-0.7,1.4,1.1c0,0,1.6-2.8,0.7-5.1c0,0,1.4,0.8,0.3,4.1
			c-1.2,3.4-8,10.9-8,10.9S211.4,127.4,209.5,128.5z M243.1,126c0,0-9.2,7.2-27.9,0.2c0,0,12.5-11.1,11.8-17.7c0,0,0-1.9-4.6-6
			c0,0-2.2-8.3,1.1-10.1c0,0,2.2-1.5,4.3,1.8c0,0,11.8,14.2,27,7.8C254.7,102.1,256.2,116.3,243.1,126z"/>
	</g>
</g>
</svg>
