<svg xmlns="http://www.w3.org/2000/svg" xmlns:xlink="http://www.w3.org/1999/xlink" version="1.1" id="Capa_1" x="0px" y="0px" viewBox="0 0 400 282.5" style="enable-background:new 0 0 400 282.5;" xml:space="preserve">
<style type="text/css">
	.st0{fill:#ffffff;}
	.st1{fill:#ffffff;}
	.st2{fill:#ffffff;}
	.st3{fill:#ffffff;}
	.st4{clip-path:url(#SVGID_2_);}
	.st5{fill:#ffffff;}
	.st6{fill:#ffffff;}
	.st7{fill:#ffffff;}
	.st8{fill:none;stroke:#ffffff;stroke-width:0.8778;stroke-miterlimit:10;}
	.st9{fill:#ffffff;}
	.st10{fill:#ffffff;}
</style>
<g>
	<g>
		<path d="M112.4,177.7c0,1.1,0,2.2,0,3.2c0,0.7-0.5,1.2-1.3,1.3c-0.5,0.1-1,0.1-1.4,0.1c-2.3,0-4.6,0-7,0c-2.5,0-5,0-7.5,0    c-0.3,0-0.7,0.1-1-0.2c-0.1-0.1-0.1-0.2-0.1-0.3c0-0.1,0-0.1,0.1-0.2c0.7-0.7,1.2-1.6,1.5-2.6c0.1-0.3,0.4-0.5,0.7-0.4    c0.5,0.1,1,0.1,1.4,0.2c0.2,0,0.5-0.2,0.6-0.4c0.1-0.2,0-0.4-0.1-0.7c-0.1-0.1-0.2-0.2-0.2-0.3c-0.1-0.1-0.3-0.2-0.4-0.3    c-0.5-0.6-1.1-1.1-1.6-1.7c-0.1-0.2-0.2-0.4-0.2-0.7c-0.1-0.7-0.1-1.3-0.1-2c0-3.4,0-6.8,0-10.2c0-0.6,0-1.2,0-1.8    c0-1.2-0.3-2.2-1.2-3.1c-0.1-0.1-0.2-0.3-0.3-0.4c0-0.1,0-0.3,0.1-0.3c0.2-0.1,0.3-0.2,0.5-0.2c2.1,0,4.2,0,6.3,0    c0.2,0,0.4,0.1,0.6,0.1c0.4,0.1,0.7,0.6,0.4,1c-0.4,0.8-0.9,1.6-1.5,2.2c-0.2,0.2-0.2,0.4-0.1,0.7c0.1,0.2,0.2,0.4,0.3,0.6    c0.1,0.3,0.2,0.6,0.2,0.8c0.1,0.7-0.1,1.3-1.1,1.6c-0.3,0.1-0.6,0.2-0.8,0.4c-0.1,0.1-0.1,0.4,0,0.5c0.2,0.1,0.3,0.2,0.5,0.2    c0.1,0.1,0.3,0,0.3,0.1s-0.1,0.1-0.2,0.1c-0.7,0-1.3,0.1-2,0.1c-0.2,0-0.3,0.1-0.4,0.2c-0.1,0.1-0.1,0.3-0.1,0.5    c0,0.1,0.1,0.2,0.2,0.2c0.3,0.1,0.7,0.2,1,0.3c0.6,0.1,1.2,0.2,1.7,0.4c0.4,0.1,0.7,0.4,0.8,0.9c0.1,0.5,0.1,1.1,0.1,1.6    c0,1.6,0,3.1,0,4.7c0,0.5,0,1.1,0.1,1.6c0.1,0.6,0.5,1,1.1,1c0.5,0.1,1.1,0.1,1.6,0.1c2.4,0,4.8,0,7.1,0c0.3,0,0.6,0,0.9,0.1    c0.2,0.1,0.4,0.2,0.5,0.4c0.1,0.2,0.1,0.3,0.1,0.5L112.4,177.7z M97.4,161.9c0.2,0.1,0.4-0.1,0.5-0.3c0.1-0.2-0.1-0.5-0.3-0.5    c-0.2-0.1-0.4,0.1-0.5,0.3C97,161.7,97.2,161.9,97.4,161.9z M97.5,180.8c0.1,0.1,0.3,0,0.4-0.2c-0.1-0.1-0.1-0.2-0.2-0.3    c-0.1-0.1-0.4,0-0.4,0.2C97.3,180.6,97.4,180.7,97.5,180.8L97.5,180.8z M97.8,169.7c0.2,0,0.3-0.2,0.2-0.4    c-0.1-0.1-0.2-0.1-0.3-0.1s-0.1,0.2-0.2,0.2C97.7,169.5,97.8,169.6,97.8,169.7L97.8,169.7z M105.3,180.6c0.3,0,0.5-0.3,0.4-0.7    c-0.1-0.3-0.2-0.4-0.4-0.6c-0.2-0.1-0.4-0.2-0.7-0.2c-1.1-0.1-2.3-0.1-3.4-0.3c-0.4-0.1-0.8,0-1.2,0.1c-0.3,0.1-0.5,0.3-0.6,0.6    c-0.1,0.3,0.1,0.7,0.4,0.9s0.7,0.2,1,0.2c0.8-0.1,1.7-0.2,2.5-0.2c0.4,0,0.8-0.1,1.1-0.1c0.4,0.1,0.6,0.1,0.9,0.1L105.3,180.6z     M108,179.9c0-0.1-0.1-0.3-0.2-0.4c-0.2-0.1-0.4-0.2-0.5-0.2c-0.4,0-0.6,0.2-0.6,0.4s0.1,0.5,0.3,0.6c0.2,0.1,0.4,0.1,0.7,0    C107.8,180.3,108,180.1,108,179.9L108,179.9z M109.2,178.2l-0.1-0.1v0.1L109.2,178.2z" fill="#ffffff"/>
		<path d="M143.1,181.7c0.1,0.1-0.2,0.3-0.4,0.3c-0.1,0-0.2,0.1-0.3,0.1c-0.1,0-0.2,0-0.4,0c-2.3,0-4.6,0-7,0    c-0.2,0-0.5-0.1-0.7-0.1c-0.2,0-0.3-0.3-0.3-0.4c0.2-0.3,0.4-0.6,0.6-0.9c0.1-0.3,0.2-0.6,0.2-0.8c0.1-0.6-0.3-1.2-1-1.3    c-0.5-0.1-1-0.1-1.4-0.1c-1.3,0-2.6,0-4,0c-1.2,0-2.4,0-3.6,0c-0.6,0-1.2,0.1-1.8,0.2c-0.4,0.1-0.7,0.5-0.8,0.9    c0,0.3,0,0.6,0.1,0.9c0.1,0.3,0.2,0.7,0.4,1c0.1,0.3-0.1,0.6-0.4,0.7c-0.1,0-0.2,0.1-0.3,0.1c-2,0-4.1,0-6.1,0    c-0.2,0-0.3-0.1-0.5-0.2c-0.1-0.1-0.1-0.3-0.1-0.3c0.1-0.2,0.3-0.4,0.5-0.5c0.9-0.7,1.5-1.6,1.9-2.5c0.2-0.4,0.4-0.8,0.6-1.3    c1.3-2.8,2.5-5.6,3.8-8.4c1.2-2.6,2.3-5.2,3.5-7.8c0.1-0.2,0.1-0.3,0.2-0.5c0.4-0.9,0.7-1.8,0.4-2.8c-0.1-0.5,0.3-1,0.8-1    c0.8-0.1,1.7-0.2,2.5,0.2c0.4,0.2,0.8,0.2,1.2-0.1c0.1,0,0.1-0.1,0.2-0.1c0.6-0.2,1.1,0,1.3,0.6c0.4,1,0.7,1.9,1.1,2.8    c0.3,0.7,0.3,1.2-0.2,1.8c-0.2,0.2-0.1,0.6,0.2,0.6c1.1,0.3,1.5,1.1,1.8,2c0.8,2.1,1.7,4.1,2.5,6.2c0.2,0.4,0.3,0.8,0.4,1.2    c0.2,0.6,0.4,1.2,0.7,1.8c0.5,1,0.9,2.1,1.3,3.2c0.6,1.7,1.5,3.3,2.9,4.4c0.1,0.1,0.1,0.2,0.2,0.3L143.1,181.7z M124.6,177.5    c0.1-0.1,0-0.2-0.1-0.2c-0.1,0-0.2,0.1-0.2,0.2c0.1,0.1,0.2,0.1,0.2,0.1C124.5,177.6,124.5,177.5,124.6,177.5L124.6,177.5z     M131.2,172.9c0.6-0.1,0.9-0.6,0.7-1.2c0-0.1-0.1-0.2-0.1-0.3c-0.7-1.7-1.4-3.4-2.1-5.1c-0.1-0.2-0.2-0.4-0.4-0.6    c-0.2-0.2-0.6-0.2-0.8,0c-0.2,0.2-0.4,0.5-0.5,0.7c-0.8,1.7-1.6,3.4-2.4,5.2c-0.1,0.3-0.2,0.6-0.2,0.8c0,0.2,0,0.3,0,0.4    c0,0.2,0.1,0.4,0.3,0.4c0.2,0,0.4,0,0.6,0c0.4,0,0.7,0.2,0.8,0.6c0.1,0.3,0.2,0.6,0.4,0.8c0.3,0.4,1,0.5,1.2,0.1    c0.4-1.1,1.1-1.7,2.3-1.6C131.1,172.9,131.1,172.9,131.2,172.9L131.2,172.9z M127.3,160.6c0,0.2,0.1,0.2,0.2,0.2    c0.1,0,0.1-0.1,0.1-0.2c0-0.2-0.1-0.2-0.2-0.2C127.4,160.5,127.3,160.6,127.3,160.6z M128.9,161.5c-0.3,0.3-0.4,0.7-0.2,1.1    c0.1,0.1,0.2,0.1,0.3,0.2c0.1,0,0.1,0,0.2,0c0.4-0.2,0.6-0.8,0.3-1.2C129.2,161.4,129,161.4,128.9,161.5L128.9,161.5z     M131.2,161.8L131.2,161.8L131.2,161.8L131.2,161.8z M133.9,177.6l-0.1-0.1v0.1L133.9,177.6z M136.3,181c0-0.2-0.2-0.3-0.3-0.3    c-0.2,0-0.3,0.2-0.3,0.3s0.2,0.3,0.3,0.3C136.2,181.3,136.3,181.2,136.3,181z M139.3,178.7c0-0.2-0.2-0.4-0.4-0.4    c-0.2,0-0.3,0.1-0.4,0.2c-0.2,0.2-0.2,0.4-0.1,0.7c0.1,0.3,0.5,0.4,0.7,0.2C139.2,179.1,139.3,178.9,139.3,178.7z" fill="#ffffff"/>
		<path d="M175.4,175.3c0,1.8,0,3.6,0,5.4c0,0.2,0,0.4-0.1,0.6c-0.1,0.4-0.4,0.7-0.8,0.8c-0.3,0.1-0.6,0.1-0.9,0.1    c-2.5,0-4.9,0-7.4,0c-0.2,0-0.4,0-0.6,0c-0.4-0.1-0.7-0.2-0.8-0.6c-0.1-0.2-0.1-0.3-0.2-0.5c-0.1-0.2-0.5-0.2-0.7-0.1    c-0.3,0.1-0.5,0.3-0.6,0.6c-0.2,0.3-0.5,0.5-0.9,0.6c-1,0.2-2,0.2-3,0c-0.1,0-0.2-0.1-0.3-0.2c-0.2-0.1-0.3-0.4-0.3-0.6    c0.1-0.3,0.2-0.6,0.3-0.8c0.1-0.4-0.2-0.8-0.6-0.9c-0.5-0.1-1,0.2-1.2,0.6c-0.3,0.4-0.4,0.8-0.6,1.3c-0.1,0.3-0.4,0.5-0.7,0.6    c-0.5,0.2-1.1,0.2-1.6,0c-0.2-0.1-0.3-0.4-0.2-0.6c0.1-0.2,0.2-0.3,0.3-0.4c0.8-1,1.1-2.1,1.1-3.3c-0.2-5,0-10-0.1-15    c0-0.7,0-1.3,0-2c0-1.3-0.3-2.3-1.3-3.2c-0.1-0.1-0.2-0.3-0.3-0.4c0,0,0.1-0.1,0.1-0.1c0.2,0,0.4-0.1,0.6,0    c0.8,0.1,1.7,0.1,2.5-0.1c1.5-0.3,3-0.2,4.5-0.1c0.5,0,0.7,0.3,0.9,0.7c0.1,0.2,0.3,0.2,0.4,0c0.4-0.7,1-0.8,1.7-0.8    c2.6,0,5.1,0,7.7,0c0.5,0,1,0,1.4,0c0.2,0,0.5,0,0.7,0c0.4,0.1,0.8,0.4,0.9,0.8c0,0.1,0,0.1,0,0.2c0,2,0,3.9,0,5.9    c0,0.1-0.1,0.2-0.2,0.2c0,0-0.1,0-0.2,0c-0.1-0.1-0.2-0.2-0.2-0.2c-0.1-0.1-0.3-0.3-0.4-0.4c-0.6-0.6-1.4-0.9-2.2-1    c-0.3,0-0.7,0-1.1,0c-2.5,0-4.9,0-7.4,0c-0.5,0-1.1,0.1-1.6,0.1c-0.4,0.1-0.8,0.4-0.9,0.8c-0.2,1-0.2,1.9,0,2.9    c0.1,0.4,0.4,0.6,0.7,0.7c0.3,0.1,0.7,0.1,1.1,0.1c2.3,0,4.6,0,7,0c0.5,0,1.1-0.1,1.6-0.1c0.2,0,0.5,0.2,0.6,0.4    c0.1,0.2,0.1,0.4,0.1,0.6c0,1.3,0,2.6,0,4c0,0.2-0.1,0.5-0.2,0.7c0,0.1-0.2,0.2-0.3,0.2s-0.2,0.1-0.3,0.1    c-1.2-0.2-2.4-0.2-3.6-0.2c-1.2,0-2.5,0-3.7,0c-0.4,0-0.8-0.1-1.3-0.1c-0.3,0-0.5-0.3-0.5-0.7c0-0.2,0.1-0.5,0.1-0.7    c0-0.4-0.5-0.7-0.9-0.6c-0.4,0.2-0.7,0.6-0.7,1c0,0.1,0,0.1,0,0.2c0.3,0.8,0.2,1.7,0.2,2.5c0,0.5,0,1.1,0.1,1.6    c0.1,0.6,0.4,1,1,1.1c0.5,0.1,1,0.1,1.4,0.1c1.2,0,2.5,0,3.7,0c1.1,0,2.3,0,3.4,0c0.4,0,0.8,0,1.3-0.1c1.2-0.1,2.1-0.7,2.9-1.6    c0.1-0.1,0.2,0,0.3,0c0,0,0.1,0.1,0.1,0.1S175.5,175.2,175.4,175.3L175.4,175.3z M157.7,178.6c0.1-0.1,0.2-0.2,0.2-0.2    c0-0.1-0.1-0.2-0.2-0.2c-0.2,0-0.3,0.2-0.3,0.3C157.5,178.6,157.6,178.6,157.7,178.6L157.7,178.6z M158.7,159.4    c0.3,0,0.4-0.2,0.4-0.5c0-0.2-0.2-0.3-0.4-0.3c-0.3,0-0.4,0.2-0.4,0.5C158.4,159.3,158.6,159.5,158.7,159.4L158.7,159.4z     M161.5,159c0,0,0.1,0.1,0.1,0.1c0.1,0,0.1,0,0.2,0c0.1-0.1,0-0.2-0.1-0.2C161.5,158.9,161.5,159,161.5,159z M167.2,160.2l0.1-0.1    l-0.1-0.1L167.2,160.2z M173.4,178.7c0.4-0.3,0.5-0.6,0.4-1.4c0,0.2-0.3,0-0.5,0.1c-0.5,0.2-0.7,0.8-0.4,1.3    C173.1,178.7,173.3,178.8,173.4,178.7L173.4,178.7z M173.7,159.6c-0.1,0.2,0.1,0.5,0.3,0.6c0.2,0.1,0.5-0.1,0.5-0.3    c0.1-0.2-0.1-0.5-0.4-0.5C174,159.4,173.8,159.4,173.7,159.6L173.7,159.6z" fill="#ffffff"/>
		<path d="M200,170.1c1.2,1.4,1.6,3.1,1.6,5c-0.1,2.3-1.1,4.1-3.1,5.4c-1.1,0.7-2.2,1.1-3.5,1.4c-1.1,0.2-2.6,0.4-4,0.3    c-2.1-0.1-4.5-0.4-6.7-1.3c-1.4-0.6-2.7-1.3-3.9-2.2c-0.3-0.2-0.5-0.5-0.7-0.8c-0.2-0.2-0.2-0.6-0.1-0.8c0.1-0.1,0.1-0.2,0.2-0.3    c0.8-1,1.5-2,2.3-3c0.1-0.1,0.2-0.2,0.3-0.2c0.2-0.2,0.6-0.2,0.8,0c0.1,0.1,0.2,0.2,0.2,0.2c2.3,2.6,5.3,3.6,8.6,4    c0.7,0.1,1.4,0,2.1-0.3c2-0.7,1.8-2.8,0.7-3.7c-0.4-0.4-0.9-0.6-1.4-0.8c-0.8-0.2-1.5-0.3-2.3-0.3c-1.3,0-2.6-0.2-3.9-0.4    c-1.1-0.2-2.2-0.5-3.2-1c-0.3-0.1-0.5-0.3-0.7-0.5c-0.1-0.1-0.2-0.3-0.2-0.5c0.1-0.3,0.3-0.7,0.4-1c0.1-0.2,0-0.5-0.2-0.6    c-0.2-0.2-0.4-0.2-0.7-0.1c-0.3,0.1-0.7,0.3-1,0.4c-0.3,0.2-0.7,0.1-1-0.3c-0.7-0.8-1.1-1.8-1.3-2.9c-0.1-0.8-0.1-1.7-0.1-2.5    c0.1-1.6,0.8-3,2-4.1c0.9-0.8,2-1.4,3.1-1.7c2-0.6,4-0.8,6-0.7c1.1,0.1,2.3,0.2,3.3,0.7c0.2,0.1,0.6,0.2,0.9,0.2    c0.9,0,1.7,0.3,2.4,0.6c1.2,0.5,2.2,1.1,3.2,1.9c0.2,0.2,0.4,0.3,0.5,0.5c0.6,0.5,0.6,1,0.2,1.6c-0.7,1-1.5,2-2.3,3    c-0.1,0.1-0.3,0.3-0.4,0.3c-0.2,0.1-0.3,0-0.5,0c-0.1,0-0.2-0.1-0.3-0.2c-0.7-1-1.7-1.7-2.7-2.3c-0.2-0.1-0.3-0.2-0.4-0.3    c-0.2-0.2-0.3-0.5-0.3-0.8c0.2-0.7,0.4-1.5,0.8-2.2c0.1-0.1,0-0.2-0.1-0.3c-0.1,0-0.1,0-0.2,0c-0.5,0.1-0.8,0.4-1.1,0.8    c-0.2,0.3-0.3,0.6-0.5,1c-0.2,0.4-0.6,0.6-1.1,0.5c-0.6-0.1-1.2-0.2-1.7-0.3c-0.7-0.1-1.4-0.2-2.1-0.1c-0.5,0-1.1,0.1-1.6,0.3    c-1.3,0.6-1.7,2.2-0.8,3.3c0.4,0.5,0.9,0.8,1.5,1c0.6,0.2,1.3,0.3,2,0.4c0.5,0.1,1,0.1,1.4,0.2c0.4,0.1,0.7,0.3,0.8,0.6    c0.1,0.3,0.2,0.6,0.3,0.8c0,0.1,0.1,0.2,0.2,0.3c0.1,0.1,0.2,0.1,0.3,0.1s0.3-0.1,0.3-0.2c0.1-0.3,0.2-0.6,0.2-0.8    c0.1-0.4,0.4-0.6,0.8-0.6C195.9,166.9,198.3,167.9,200,170.1L200,170.1z M182.9,163.1c0.3,0,0.5-0.3,0.4-0.7    c0-0.4-0.2-0.6-0.5-0.7c-0.3,0-0.6,0.3-0.5,0.7c0,0.1,0,0.1,0.1,0.2C182.5,162.9,182.7,163,182.9,163.1L182.9,163.1z M184.5,159    c0.3,0,0.5-0.2,0.5-0.4c0-0.2-0.2-0.3-0.3-0.3c-0.2,0-0.5,0.1-0.5,0.3C184.1,158.8,184.3,159,184.5,159L184.5,159z" fill="#ffffff"/>
		<path d="M222.8,158.3c2.2,1.9,3.1,4.2,2.6,7c-0.5,2.8-2.2,4.7-4.9,5.7c-0.8,0.3-1.6,0.4-2.5,0.4c-1,0-2,0-3,0c-0.5,0-1.1,0-1.6,0    c-1,0.1-1.4,0.5-1.5,1.4c0,0.2,0,0.4,0,0.6c0,1.6,0,3.1,0,4.7c0,0.3,0,0.6,0.1,0.9c0.1,0.7,0.3,1.3,0.7,1.8    c0.2,0.3,0.5,0.5,0.7,0.8c0.1,0.1,0,0.4-0.2,0.4c-0.2,0-0.4,0.1-0.6,0.1c-2.4,0-4.8,0-7.1,0c-0.2,0-0.4-0.1-0.6-0.1    c-0.2,0-0.3-0.3-0.2-0.4c0.2-0.2,0.4-0.5,0.6-0.7c0.6-0.7,0.9-1.4,0.9-2.3c0-0.4,0-0.8,0-1.3c0-5.3,0-10.6,0-15.9    c0-0.1,0-0.3,0-0.4c0.1-1.4-0.3-2.7-1.4-3.7c-0.1,0-0.1-0.1-0.1-0.1c-0.1-0.1,0-0.4,0.1-0.4c0.3-0.1,0.7-0.1,1-0.1    c1.9,0,3.8,0,5.7,0c1.8,0,3.7,0,5.5,0c0.7,0,1.3,0,2,0.2c0.8,0.3,0.8,0.3,0.6,1.1c-0.1,0.3-0.2,0.6-0.2,0.9c0,0.2,0,0.4,0.1,0.5    c0.1,0.1,0.2,0.3,0.4,0.3c0.2,0.1,0.5,0,0.6-0.2c0.1-0.2,0.2-0.4,0.3-0.6c0.1-0.2,0.1-0.4,0.2-0.7c0.1-0.3,0.5-0.4,0.8-0.3    C222.3,158,222.6,158.1,222.8,158.3L222.8,158.3z M209.3,164.1c0-0.2,0.1-0.3,0.1-0.4c0-0.2,0-0.4-0.1-0.6c0-0.1-0.1-0.2-0.2-0.3    c-0.1,0-0.2,0.1-0.3,0.1c-0.2,0.3-0.3,0.6-0.4,0.9c-0.1,0.3,0.1,0.6,0.4,0.6C209.1,164.6,209.3,164.4,209.3,164.1L209.3,164.1z     M210.7,162c0-0.1,0.1-0.1,0.1-0.2c-0.1,0-0.1-0.1-0.2-0.1c0,0.1-0.1,0.1-0.1,0.1S210.6,161.9,210.7,162L210.7,162z M210.9,173.6    c0.1,0,0.1,0,0.2,0c0-0.1,0-0.1,0-0.2c0,0-0.1,0-0.2,0C210.9,173.5,210.9,173.6,210.9,173.6L210.9,173.6z M218.9,166.3    c1-0.3,1.7-1.2,1.7-2.3c0-1-0.7-1.9-1.7-2.2c-0.2-0.1-0.5-0.1-0.7-0.1c-1.6,0-3.1,0-4.7,0c-0.2,0-0.5,0.1-0.7,0.2    c-0.4,0.1-0.7,0.4-0.7,0.7c-0.1,1-0.2,1.9-0.2,2.9c0,0.4,0.3,0.8,0.7,0.9c0.3,0.1,0.6,0.2,0.9,0.2c0.7,0,1.4,0,2.1,0    c0.7,0,1.3,0,2,0C218.1,166.5,218.5,166.4,218.9,166.3L218.9,166.3z M212.7,158.6c-0.1,0-0.2,0.1-0.1,0.3c0,0.1,0.1,0.1,0.2,0.1    c0.1,0,0.2-0.1,0.1-0.2C212.8,158.7,212.8,158.7,212.7,158.6L212.7,158.6z M218.5,157.9c-0.1,0.1-0.2,0.2-0.1,0.2    c0,0.1,0.2,0.1,0.2,0.2c0.1-0.1,0.1-0.2,0.2-0.2C218.7,158,218.6,157.9,218.5,157.9L218.5,157.9z" fill="#ffffff"/>
		<path d="M254.8,181.7c0.1,0.1-0.2,0.3-0.4,0.3c-0.1,0-0.2,0.1-0.3,0.1c-0.1,0-0.2,0-0.4,0c-2.3,0-4.6,0-7,0    c-0.2,0-0.5-0.1-0.7-0.1c-0.2,0-0.3-0.3-0.3-0.4c0.2-0.3,0.4-0.6,0.6-0.9c0.1-0.3,0.2-0.6,0.2-0.8c0.1-0.6-0.3-1.2-1-1.3    c-0.5-0.1-1-0.1-1.4-0.1c-1.3,0-2.6,0-4,0c-1.2,0-2.4,0-3.6,0c-0.6,0-1.2,0.1-1.8,0.2c-0.4,0.1-0.7,0.5-0.8,0.9    c0,0.3,0,0.6,0.1,0.9c0.1,0.3,0.2,0.7,0.4,1c0.1,0.3-0.1,0.6-0.4,0.7c-0.1,0-0.2,0.1-0.3,0.1c-2,0-4.1,0-6.1,0    c-0.2,0-0.3-0.1-0.5-0.2c-0.1-0.1-0.1-0.3-0.1-0.3c0.1-0.2,0.3-0.4,0.5-0.5c0.9-0.7,1.5-1.6,1.9-2.5c0.2-0.4,0.4-0.8,0.6-1.3    c1.3-2.8,2.5-5.6,3.8-8.4c1.2-2.6,2.3-5.2,3.5-7.8c0.1-0.2,0.1-0.3,0.2-0.5c0.4-0.9,0.7-1.8,0.4-2.8c-0.1-0.5,0.3-1,0.8-1    c0.8-0.1,1.7-0.2,2.5,0.2c0.4,0.2,0.8,0.2,1.2-0.1c0.1,0,0.1-0.1,0.2-0.1c0.6-0.2,1.1,0,1.3,0.6c0.4,1,0.7,1.9,1.1,2.8    c0.3,0.7,0.3,1.2-0.2,1.8c-0.2,0.2-0.1,0.6,0.2,0.6c1.1,0.3,1.5,1.1,1.8,2c0.8,2.1,1.7,4.1,2.5,6.2c0.2,0.4,0.3,0.8,0.4,1.2    c0.2,0.6,0.4,1.2,0.7,1.8c0.5,1,0.9,2.1,1.3,3.2c0.6,1.7,1.5,3.3,2.9,4.4c0.1,0.1,0.1,0.2,0.2,0.3L254.8,181.7z M236.2,177.5    c0.1-0.1,0-0.2-0.1-0.2c-0.1,0-0.2,0.1-0.2,0.2c0.1,0.1,0.2,0.1,0.2,0.1C236.1,177.6,236.2,177.5,236.2,177.5L236.2,177.5z     M242.9,172.9c0.6-0.1,0.9-0.6,0.7-1.2c0-0.1-0.1-0.2-0.1-0.3c-0.7-1.7-1.4-3.4-2.1-5.1c-0.1-0.2-0.2-0.4-0.4-0.6    c-0.2-0.2-0.6-0.2-0.8,0c-0.2,0.2-0.4,0.5-0.5,0.7c-0.8,1.7-1.6,3.4-2.4,5.2c-0.1,0.3-0.2,0.6-0.2,0.8c0,0.2,0,0.3,0,0.4    c0,0.2,0.1,0.4,0.3,0.4c0.2,0,0.4,0,0.6,0c0.4,0,0.7,0.2,0.8,0.6c0.1,0.3,0.2,0.6,0.4,0.8c0.3,0.4,1,0.5,1.2,0.1    c0.4-1.1,1.1-1.7,2.3-1.6C242.8,172.9,242.8,172.9,242.9,172.9L242.9,172.9z M239,160.6c0,0.2,0.1,0.2,0.2,0.2    c0.1,0,0.1-0.1,0.1-0.2c0-0.2-0.1-0.2-0.2-0.2C239,160.5,239,160.6,239,160.6z M240.5,161.5c-0.3,0.3-0.4,0.7-0.2,1.1    c0.1,0.1,0.2,0.1,0.3,0.2c0.1,0,0.1,0,0.2,0c0.4-0.2,0.6-0.8,0.3-1.2C240.9,161.4,240.7,161.4,240.5,161.5L240.5,161.5z     M242.9,161.8L242.9,161.8L242.9,161.8L242.9,161.8z M245.5,177.6l-0.1-0.1v0.1L245.5,177.6z M248,181c0-0.2-0.2-0.3-0.3-0.3    c-0.2,0-0.3,0.2-0.3,0.3s0.2,0.3,0.3,0.3C247.9,181.3,248,181.2,248,181z M250.9,178.7c0-0.2-0.2-0.4-0.4-0.4    c-0.2,0-0.3,0.1-0.4,0.2c-0.2,0.2-0.2,0.4-0.1,0.7c0.1,0.3,0.5,0.4,0.7,0.2C250.9,179.1,251,178.9,250.9,178.7z" fill="#ffffff"/>
		<path d="M277.2,159.2c3.7,2.8,6,7.9,4.7,13.2c0,0.1,0,0.1-0.1,0.2c-0.2,0.4-0.3,0.9-0.6,1.3c-0.3,0.4-0.7,0.8-0.7,1.4    c-0.1,0.5-0.3,0.9-0.6,1.3c-0.3,0.5-0.8,0.9-1.4,1.1c-0.3,0.1-0.6,0.2-0.8,0.3c-0.2,0.1-0.4,0.3-0.4,0.6c0,0.1-0.1,0.2-0.1,0.3    c-0.1,0.5-0.4,0.9-0.8,1.1c-0.9,0.5-1.8,1-2.7,1.4c-1.3,0.5-2.6,0.7-4,0.8c-1,0-1.9,0-2.9,0c-2.1,0-4.2,0-6.3,0    c-0.5,0-1.1-0.1-1.6-0.1c-0.4-0.1-0.6-0.5-0.5-0.8c0-0.1,0-0.1,0.1-0.2c0.8-1.1,1-2.4,1-3.8c0-2.5,0-4.9,0-7.4c0-2.3,0-4.6,0-7    c0-1.1,0-2.2,0.4-3.2c0.2-0.3,0-0.7-0.3-1c-0.5-0.5-1-1-1.5-1.5c-0.1-0.1-0.1-0.2-0.1-0.3s0.2-0.3,0.4-0.3c0.2,0,0.5-0.1,0.7-0.1    c3.5,0,6.9,0,10.4,0C272.4,156.7,274.9,157.5,277.2,159.2L277.2,159.2z M262.2,177.9c0.2,0.1,0.5-0.1,0.5-0.3    c0-0.2-0.1-0.3-0.3-0.4c-0.2,0-0.3,0.1-0.4,0.3C262,177.7,262.1,177.9,262.2,177.9L262.2,177.9z M272.7,175.8    c2.9-1.4,4.5-4.4,4-7.5c-0.4-3.1-2.8-5.6-5.9-6.1c-1.5-0.3-3.1-0.2-4.6-0.1c-0.1,0-0.1,0-0.2,0.1c-0.4,0.1-0.8,0.4-0.8,0.9    c-0.1,0.5-0.1,1.1-0.1,1.6c0,1.6,0,3.1,0,4.7c0,1.5,0,3,0,4.4c0,0.5,0,1.1,0.1,1.6c0.1,0.7,0.5,1.1,1.2,1.1c0.5,0.1,1,0,1.4,0.1    c0.5,0.1,1.1,0.1,1.6,0.2c0.5,0.1,0.9,0.1,1.4-0.1C271.3,176.4,272,176.2,272.7,175.8L272.7,175.8z M271.7,178.3    c0.1-0.3-0.2-0.6-0.4-0.6s-0.5,0.2-0.5,0.5c0,0.2,0.2,0.4,0.4,0.5C271.4,178.8,271.7,178.6,271.7,178.3L271.7,178.3z M278,165.1    l0-0.1l-0.1,0.1L278,165.1z" fill="#ffffff"/>
		<path d="M311.8,181.7c0.1,0.1-0.2,0.3-0.4,0.3c-0.1,0-0.2,0.1-0.3,0.1c-0.1,0-0.2,0-0.4,0c-2.3,0-4.6,0-7,0    c-0.2,0-0.5-0.1-0.7-0.1c-0.2,0-0.3-0.3-0.3-0.4c0.2-0.3,0.4-0.6,0.6-0.9c0.1-0.3,0.2-0.6,0.2-0.8c0.1-0.6-0.3-1.2-1-1.3    c-0.5-0.1-1-0.1-1.4-0.1c-1.3,0-2.6,0-4,0c-1.2,0-2.4,0-3.6,0c-0.6,0-1.2,0.1-1.8,0.2c-0.4,0.1-0.7,0.5-0.8,0.9    c0,0.3,0,0.6,0.1,0.9c0.1,0.3,0.2,0.7,0.4,1c0.1,0.3-0.1,0.6-0.4,0.7c-0.1,0-0.2,0.1-0.3,0.1c-2,0-4.1,0-6.1,0    c-0.2,0-0.3-0.1-0.5-0.2c-0.1-0.1-0.1-0.3-0.1-0.3c0.1-0.2,0.3-0.4,0.5-0.5c0.9-0.7,1.5-1.6,1.9-2.5c0.2-0.4,0.4-0.8,0.6-1.3    c1.3-2.8,2.5-5.6,3.8-8.4c1.2-2.6,2.3-5.2,3.5-7.8c0.1-0.2,0.1-0.3,0.2-0.5c0.4-0.9,0.7-1.8,0.4-2.8c-0.1-0.5,0.3-1,0.8-1    c0.8-0.1,1.7-0.2,2.5,0.2c0.4,0.2,0.8,0.2,1.2-0.1c0.1,0,0.1-0.1,0.2-0.1c0.6-0.2,1.1,0,1.3,0.6c0.4,1,0.7,1.9,1.1,2.8    c0.3,0.7,0.3,1.2-0.2,1.8c-0.2,0.2-0.1,0.6,0.2,0.6c1.1,0.3,1.5,1.1,1.8,2c0.8,2.1,1.7,4.1,2.5,6.2c0.2,0.4,0.3,0.8,0.4,1.2    c0.2,0.6,0.4,1.2,0.7,1.8c0.5,1,0.9,2.1,1.3,3.2c0.6,1.7,1.5,3.3,2.9,4.4c0.1,0.1,0.1,0.2,0.2,0.3L311.8,181.7z M293.3,177.5    c0.1-0.1,0-0.2-0.1-0.2c-0.1,0-0.2,0.1-0.2,0.2c0.1,0.1,0.2,0.1,0.2,0.1C293.1,177.6,293.2,177.5,293.3,177.5L293.3,177.5z     M299.9,172.9c0.6-0.1,0.9-0.6,0.7-1.2c0-0.1-0.1-0.2-0.1-0.3c-0.7-1.7-1.4-3.4-2.1-5.1c-0.1-0.2-0.2-0.4-0.4-0.6    c-0.2-0.2-0.6-0.2-0.8,0c-0.2,0.2-0.4,0.5-0.5,0.7c-0.8,1.7-1.6,3.4-2.4,5.2c-0.1,0.3-0.2,0.6-0.2,0.8c0,0.2,0,0.3,0,0.4    c0,0.2,0.1,0.4,0.3,0.4c0.2,0,0.4,0,0.6,0c0.4,0,0.7,0.2,0.8,0.6c0.1,0.3,0.2,0.6,0.4,0.8c0.3,0.4,1,0.5,1.2,0.1    c0.4-1.1,1.1-1.7,2.3-1.6C299.8,172.9,299.8,172.9,299.9,172.9L299.9,172.9z M296,160.6c0,0.2,0.1,0.2,0.2,0.2    c0.1,0,0.1-0.1,0.1-0.2c0-0.2-0.1-0.2-0.2-0.2C296.1,160.5,296,160.6,296,160.6z M297.6,161.5c-0.3,0.3-0.4,0.7-0.2,1.1    c0.1,0.1,0.2,0.1,0.3,0.2c0.1,0,0.1,0,0.2,0c0.4-0.2,0.6-0.8,0.3-1.2C297.9,161.4,297.7,161.4,297.6,161.5L297.6,161.5z     M299.9,161.8L299.9,161.8L299.9,161.8L299.9,161.8z M302.5,177.6l-0.1-0.1v0.1L302.5,177.6z M305,181c0-0.2-0.2-0.3-0.3-0.3    c-0.2,0-0.3,0.2-0.3,0.3s0.2,0.3,0.3,0.3C304.9,181.3,305,181.2,305,181z M308,178.7c0-0.2-0.2-0.4-0.4-0.4    c-0.2,0-0.3,0.1-0.4,0.2c-0.2,0.2-0.2,0.4-0.1,0.7c0.1,0.3,0.5,0.4,0.7,0.2C307.9,179.1,308,178.9,308,178.7z" fill="#ffffff"/>
	</g>
	<g>
		<g>
			<path d="M123.5,189.6c0.1,0.2-0.1,0.4-0.2,0.5c-0.3,0.4-0.6,0.9-0.9,1.3c-1.8,2.4-3.6,4.7-5.3,7.1c-1.2,1.6-1.2,1.6-3.2,1.7     c-0.3,0-0.6,0-1,0c-0.3,0.1-0.4,0.3-0.5,0.5c-0.1,0.2,0.2,0.6,0.4,0.6c0.2,0,0.4,0,0.6,0c0.3-0.1,0.5-0.1,0.8-0.2     c0.2,0,0.5,0.3,0.4,0.5c-0.1,0.1-0.1,0.3-0.1,0.4c-0.1,0.2-0.3,0.5-0.4,0.7c-1.4,1.8-1.4,2-1.4,4.2c0,1.8,0,3.7,0,5.5     c0,0.4,0,0.8,0,1.2c0,1.1,0.4,2.1,1.2,2.9c0.2,0.2,0.4,0.4,0.5,0.6c0.1,0.1,0,0.5-0.2,0.5c-0.3,0-0.6,0.1-1,0.1     c-1.2,0-2.4,0-3.6,0c-1.3,0-2.5,0-3.8,0c-0.3,0-0.5-0.1-0.8-0.1c-0.2,0-0.3-0.3-0.2-0.5c0.2-0.3,0.4-0.5,0.6-0.8     c0.6-0.7,0.9-1.6,1-2.5c0-0.3,0-0.5,0-0.8c0-2.2,0-4.5,0-6.7c0-1.1-0.3-2.1-1-2.9c-0.5-0.7-1-1.4-1.5-2c-0.5-0.7-0.8-1.5-1.3-2.2     c-0.5-0.6-1.1-1.1-1.6-1.7c-1.2-1.7-2.7-3.3-3.7-5.1c-0.1-0.3-0.4-0.5-0.6-0.8c-0.6-0.5-1.2-1-1.8-1.5c0,0,0-0.1,0-0.2     c0-0.1,0.1-0.1,0.1-0.1c0.1,0,0.1-0.1,0.2-0.1c0.9,0.1,1.8,0.1,2.7,0c0.6-0.1,1.3-0.1,1.9,0.2c0.4,0.2,0.8,0.1,1.1,0     c1-0.4,2.1-0.3,3.1-0.1c0.2,0,0.5,0.3,0.5,0.6c0,0.2,0,0.4-0.1,0.6c-0.1,0.7,0.1,1.3,0.4,1.9c0.3,0.4,0.5,0.8,0.8,1.1     c0.6,0.8,1.3,1.7,1.9,2.5c0.2,0.3,0.5,0.6,0.7,0.9c0.7,0.8,1.3,0.8,2,0.1c0.2-0.2,0.4-0.4,0.5-0.6c0.8-1.1,1.7-2.2,2.5-3.3     c0-0.1,0.1-0.1,0.1-0.2c0.7-0.9,1.1-1.9,0.6-3.1c-0.1-0.2,0.1-0.4,0.3-0.5c0.1,0,0.1,0,0.2,0c0.2,0,0.4-0.1,0.6-0.1     c2.6,0,5.1,0,7.7,0C123.1,189.5,123.3,189.5,123.5,189.6L123.5,189.6z M102,195.1c0-0.1,0-0.2-0.2-0.3c-0.1,0.1-0.2,0.1-0.2,0.2     c0,0.1,0.1,0.2,0.3,0.1C101.9,195.2,102,195.1,102,195.1L102,195.1z M108.7,215.6c0.5-0.2,0.8-0.8,0.6-1.3     c-0.1-0.1-0.3-0.3-0.4-0.3c-0.1,0-0.3,0.1-0.4,0.1c-0.4,0.3-0.5,0.8-0.3,1.2c0,0.1,0.2,0.1,0.3,0.2     C108.5,215.6,108.6,215.7,108.7,215.6L108.7,215.6z M109.7,201.2c0,0-0.1-0.1-0.1-0.1c0,0,0,0.1-0.1,0.1     C109.5,201.2,109.6,201.2,109.7,201.2C109.6,201.2,109.6,201.2,109.7,201.2z" fill="#ffffff"/>
			<path d="M155.9,212.8c0,1.2,0,2.4,0,3.6c0,0.8-0.6,1.3-1.4,1.4c-0.5,0.1-1.1,0.1-1.6,0.1c-2.6,0-5.1,0-7.7,0c-2.8,0-5.5,0-8.3,0     c-0.4,0-0.8,0.1-1.1-0.2c-0.1-0.1-0.1-0.2-0.1-0.3c0-0.1,0-0.1,0.1-0.2c0.8-0.8,1.3-1.8,1.6-2.9c0.1-0.3,0.4-0.5,0.8-0.5     c0.5,0.1,1.1,0.1,1.6,0.2c0.2,0,0.5-0.2,0.6-0.4c0.1-0.3,0-0.5-0.1-0.7c-0.1-0.1-0.2-0.2-0.3-0.3c-0.1-0.1-0.3-0.2-0.5-0.4     c-0.6-0.6-1.2-1.2-1.7-1.9c-0.1-0.2-0.2-0.5-0.3-0.7c-0.1-0.7-0.1-1.5-0.1-2.2c0-3.8,0-7.5,0-11.3c0-0.7,0-1.3,0-2     c0-1.3-0.4-2.5-1.3-3.4c-0.1-0.1-0.3-0.3-0.3-0.5c0-0.1,0-0.3,0.1-0.4c0.2-0.1,0.4-0.2,0.6-0.2c2.3,0,4.6,0,6.9,0     c0.2,0,0.4,0.1,0.6,0.1c0.5,0.1,0.7,0.6,0.5,1.1c-0.5,0.9-1,1.7-1.7,2.5c-0.2,0.2-0.2,0.5-0.1,0.8c0.1,0.2,0.3,0.4,0.4,0.7     c0.1,0.3,0.2,0.6,0.3,0.9c0.1,0.8-0.1,1.5-1.2,1.8c-0.3,0.1-0.6,0.3-0.9,0.4c-0.1,0.1-0.1,0.4,0,0.5c0.2,0.1,0.4,0.2,0.5,0.2     c0.1,0.1,0.3,0,0.4,0.1c0.1,0.1-0.1,0.1-0.3,0.1c-0.7,0-1.5,0.1-2.2,0.1c-0.2,0-0.4,0.1-0.5,0.3s-0.1,0.4-0.1,0.6     c0,0.1,0.1,0.2,0.2,0.3c0.4,0.1,0.8,0.2,1.1,0.3c0.6,0.1,1.3,0.2,1.9,0.4c0.5,0.1,0.8,0.5,0.9,1c0.1,0.6,0.1,1.2,0.1,1.8     c0,1.7,0,3.4,0,5.2c0,0.6,0,1.2,0.1,1.8c0.1,0.6,0.5,1.1,1.2,1.1c0.6,0.1,1.2,0.1,1.8,0.1c2.6,0,5.3,0,7.9,0c0.3,0,0.6,0,1,0.1     c0.3,0.1,0.5,0.2,0.6,0.5c0.1,0.2,0.1,0.4,0.1,0.6L155.9,212.8z M139.4,195.3c0.3,0.1,0.5-0.1,0.6-0.4c0.1-0.3-0.1-0.5-0.4-0.6     c-0.2-0.1-0.5,0.1-0.6,0.4C138.9,195,139.1,195.3,139.4,195.3z M139.5,216.2c0.1,0.1,0.4,0,0.4-0.2c-0.1-0.1-0.1-0.3-0.2-0.3     c-0.1-0.1-0.4,0-0.4,0.2C139.3,216,139.4,216.1,139.5,216.2L139.5,216.2z M139.8,203.9c0.2,0,0.4-0.3,0.2-0.4     c-0.1-0.1-0.2-0.1-0.3-0.1s-0.1,0.2-0.2,0.3C139.7,203.7,139.8,203.8,139.8,203.9L139.8,203.9z M148.1,216c0.3,0,0.6-0.4,0.5-0.7     c-0.1-0.3-0.2-0.5-0.5-0.6c-0.2-0.1-0.5-0.2-0.8-0.2c-1.3-0.1-2.5-0.1-3.7-0.4c-0.4-0.1-0.9,0-1.4,0.1c-0.3,0.1-0.5,0.3-0.6,0.7     c-0.1,0.4,0.1,0.8,0.5,1c0.4,0.2,0.7,0.3,1.1,0.2c0.9-0.1,1.8-0.2,2.7-0.3c0.5,0,0.9-0.1,1.2-0.1c0.4,0.1,0.7,0.1,1,0.1     L148.1,216z M151.1,215.2c0-0.1-0.1-0.4-0.2-0.5c-0.2-0.1-0.5-0.2-0.6-0.2c-0.4,0-0.7,0.2-0.7,0.5s0.1,0.6,0.4,0.6     c0.2,0.1,0.5,0.1,0.7,0C150.9,215.6,151.1,215.4,151.1,215.2L151.1,215.2z M152.4,213.3l-0.1-0.1v0.1L152.4,213.3z" fill="#ffffff"/>
			<path d="M189.9,217.2c0.1,0.1-0.2,0.3-0.4,0.4c-0.1,0-0.2,0.1-0.4,0.1s-0.3,0-0.4,0c-2.6,0-5.1,0-7.7,0c-0.3,0-0.5-0.1-0.8-0.1     c-0.2,0-0.4-0.3-0.3-0.5c0.2-0.4,0.4-0.7,0.6-1c0.1-0.3,0.2-0.6,0.3-0.9c0.1-0.7-0.4-1.3-1.1-1.5c-0.5-0.1-1.1-0.1-1.6-0.1     c-1.5,0-2.9,0-4.4,0c-1.3,0-2.6,0-3.9,0c-0.6,0-1.3,0.1-2,0.2c-0.4,0.1-0.8,0.5-0.8,1c0,0.3,0,0.7,0.1,1c0.1,0.4,0.3,0.7,0.4,1.1     c0.1,0.3-0.1,0.7-0.5,0.7c-0.1,0-0.2,0.1-0.4,0.1c-2.2,0-4.5,0-6.7,0c-0.2,0-0.4-0.1-0.5-0.2c-0.1-0.1-0.1-0.3-0.1-0.4     c0.1-0.2,0.3-0.4,0.5-0.6c1-0.8,1.6-1.7,2.1-2.8c0.2-0.5,0.5-0.9,0.7-1.4c1.4-3.1,2.8-6.2,4.2-9.3c1.3-2.9,2.6-5.8,3.9-8.6     c0.1-0.2,0.1-0.3,0.2-0.5c0.5-1,0.7-2,0.4-3.1c-0.1-0.5,0.3-1.1,0.8-1.1c0.9-0.1,1.9-0.2,2.7,0.3c0.5,0.2,0.9,0.2,1.3-0.1     c0.1,0,0.1-0.1,0.2-0.1c0.7-0.2,1.2,0,1.4,0.7c0.4,1.1,0.8,2.1,1.2,3.1c0.3,0.7,0.3,1.4-0.2,2c-0.2,0.2-0.1,0.6,0.2,0.7     c1.2,0.3,1.6,1.2,2,2.2c0.9,2.3,1.8,4.5,2.7,6.8c0.2,0.4,0.4,0.9,0.5,1.3c0.2,0.7,0.5,1.3,0.8,2c0.5,1.1,1,2.3,1.4,3.5     c0.6,1.9,1.6,3.6,3.2,4.9c0.1,0.1,0.1,0.2,0.2,0.3L189.9,217.2z M169.4,212.5c0.1-0.1,0-0.2-0.1-0.2c-0.1,0-0.2,0.1-0.3,0.2     c0.1,0.1,0.2,0.1,0.3,0.1C169.3,212.6,169.4,212.6,169.4,212.5L169.4,212.5z M176.8,207.4c0.7-0.1,1-0.6,0.8-1.3     c0-0.1-0.1-0.2-0.1-0.4c-0.8-1.9-1.5-3.8-2.3-5.7c-0.1-0.2-0.3-0.4-0.4-0.6c-0.2-0.2-0.7-0.3-0.9,0c-0.2,0.3-0.4,0.5-0.6,0.8     c-0.9,1.9-1.8,3.8-2.7,5.7c-0.1,0.3-0.2,0.6-0.2,0.8c0,0.3,0,0.4,0,0.5c0,0.2,0.1,0.4,0.3,0.4c0.2,0,0.4,0,0.6,0     c0.4,0,0.8,0.2,0.9,0.6c0.1,0.3,0.3,0.6,0.4,0.9c0.3,0.5,1.1,0.6,1.3,0.1c0.5-1.2,1.2-1.8,2.5-1.8     C176.6,207.5,176.7,207.5,176.8,207.4L176.8,207.4z M172.4,193.9c0,0.2,0.1,0.2,0.3,0.2c0.1,0,0.1-0.1,0.1-0.2     c0-0.2-0.1-0.2-0.3-0.2C172.5,193.7,172.4,193.8,172.4,193.9z M174.2,194.9c-0.4,0.3-0.5,0.8-0.3,1.2c0.1,0.1,0.2,0.1,0.3,0.2     c0.1,0,0.1,0,0.2,0c0.5-0.2,0.6-0.9,0.3-1.3C174.6,194.8,174.3,194.8,174.2,194.9L174.2,194.9z M176.7,195.2L176.7,195.2     L176.7,195.2L176.7,195.2z M179.7,212.7l-0.1-0.1v0.1L179.7,212.7z M182.4,216.4c0-0.2-0.2-0.4-0.4-0.4c-0.2,0-0.4,0.2-0.4,0.4     c0,0.2,0.2,0.4,0.4,0.4C182.3,216.8,182.4,216.6,182.4,216.4z M185.7,213.8c0-0.3-0.2-0.5-0.5-0.5c-0.2,0-0.4,0.1-0.5,0.2     c-0.2,0.2-0.2,0.5-0.1,0.7c0.1,0.3,0.6,0.4,0.8,0.2C185.6,214.3,185.7,214.1,185.7,213.8z" fill="#ffffff"/>
			<path d="M226,217.4c0,0.1,0,0.3-0.1,0.3c-0.2,0.1-0.5,0.1-0.8,0.1c-1.6,0-3.3,0-4.9,0c-0.9,0-1.9,0-2.8,0c-0.3,0-0.5-0.1-0.8-0.1     c-0.2,0-0.5-0.4-0.4-0.6c0.1-0.4,0.3-0.7,0.4-1.1c0.2-0.6,0.2-1.2,0.1-1.8c-0.1-0.4-0.2-0.8-0.4-1.1c-0.7-1.7-1.3-3.3-2-5     c-0.1-0.4-0.3-0.7-0.5-1.1c-0.3-0.6-0.8-0.9-1.4-1c-0.5,0-0.9,0-1.4,0c-0.6,0.1-1,0.4-1.1,0.9c-0.2,0.8-0.4,1.6-0.3,2.5     c0.2,2.1,0.1,4.2,0.1,6.3c0,0.3,0,0.5-0.1,0.8c-0.1,0.5-0.4,0.8-0.9,0.9c-0.2,0.1-0.4,0.1-0.6,0.1c-1.8,0-3.7,0-5.5,0     c-0.1,0-0.3-0.1-0.4-0.1c-0.1-0.1-0.1-0.2-0.1-0.4s0.1-0.3,0.2-0.4c0.9-0.9,1.3-2,1.5-3.2c0-0.2,0.1-0.4,0.2-0.6     c0.1-0.1,0.4-0.3,0.5-0.2c0.2,0.1,0.5,0.2,0.7,0.3c0.4,0.2,0.7,0.1,1.1-0.2c0.9-0.9,0.6-1.9-0.4-2.5c-0.4-0.2-0.7-0.3-1.1-0.4     c-0.6-0.3-0.9-0.7-1-1.4c0-0.5-0.1-0.9-0.1-1.4c0-3.3,0-6.6,0-9.9c0-0.1,0-0.3,0-0.4c0-0.9,0.1-1.7,0.7-2.4     c0.2-0.3,0.2-0.7,0-0.9c-0.5-0.6-0.8-1.2-1.1-1.8c-0.3-0.6-0.8-1.1-1.2-1.6c-0.1-0.1-0.1-0.2-0.1-0.3c0-0.1,0.2-0.3,0.4-0.3     c0.3,0,0.6-0.1,1-0.1c1,0,2,0,3,0c1.1,0,2.2,0,3.3,0c2,0,4,0,6,0c0.8,0,1.7,0.1,2.5,0.3c3.5,0.8,5.7,3.8,6.1,6.6     c0.3,2,0,3.8-1,5.5c-0.4,0.8-1,1.4-1.7,2c-0.4,0.3-0.7,0.6-1.1,0.8c-0.4,0.3-0.6,0.7-0.8,1.1c-0.1,0.3-0.2,0.7,0,1     c0.3,0.5,0.4,1.1,0.5,1.7c0.2,0.8,0.5,1.6,1.2,2.2c0.3,0.2,0.5,0.6,0.7,1c0.2,0.5,0.4,1,0.6,1.5c0.5,1.5,1.3,2.7,2.6,3.6     c0.1,0.1,0.3,0.3,0.4,0.4L226,217.4z M208.9,195.8c0.5-0.3,1.1-0.6,1.6-0.7c0.2-0.2,0.4-0.5,0.7-0.7c0.6-0.4,1.2-0.8,1.8-1.3     c0.2-0.1,0.4-0.3,0.6-0.6c0.1-0.2,0.1-0.6-0.1-0.7c-0.1-0.1-0.3-0.3-0.5-0.3c-0.3,0-0.6,0-0.8,0.1c-1.2,0.6-2.5,1.2-3.6,1.9     c-0.4,0.2-0.6,0.5-0.9,0.8s-0.3,0.7-0.2,1.1c0.1,0.3,0.5,0.6,0.8,0.5S208.7,195.9,208.9,195.8L208.9,195.8z M209.3,202.8     c0-0.1,0.1-0.1,0.1-0.2c-0.1,0-0.1-0.1-0.1-0.1c0,0,0,0.1-0.1,0.2C209.2,202.8,209.3,202.8,209.3,202.8L209.3,202.8z      M217.1,200.4c1.1-0.3,1.7-1.3,1.8-2.4c0-1.1-0.6-2.1-1.6-2.5c-0.4-0.1-0.8-0.2-1.1-0.3c-0.7-0.1-1.5-0.1-2.2-0.1     c-1.2,0-2.3-0.1-3.5-0.1c-0.3,0.4-0.5,0.7-0.6,1.2c-0.2,1.1-0.2,2.1,0,3.2c0.1,0.5,0.5,1,1.1,1.1c0.3,0.1,0.5,0.1,0.8,0.1     c1.4,0,2.7,0,4.1,0C216.2,200.6,216.7,200.5,217.1,200.4L217.1,200.4z M215,192.8c-0.2,0.2-0.3,0.6-0.1,0.9     c0.2,0.3,0.5,0.5,0.8,0.4c0.1-0.1,0.3-0.1,0.3-0.2c0.3-0.4,0.1-0.9-0.3-1.2C215.6,192.6,215.2,192.6,215,192.8L215,192.8z      M217.3,203c0.1-0.3-0.2-0.8-0.5-0.7c-0.5,0.1-1.1,0.1-1.6,0.3c-0.1,0-0.2,0.2-0.2,0.4c0,0.1,0.1,0.3,0.2,0.3     c0.5,0.1,1,0.3,1.5,0.4C216.9,203.7,217.2,203.4,217.3,203L217.3,203z" fill="#ffffff"/>
			<path d="M253.4,204.7c0.5,0.4,0.6,1,0.6,1.6c-0.1,1.1-0.5,2-0.9,3c-0.2,0.5-0.6,0.9-1,1.2c-0.4,0.2-0.6,0.5-0.6,1     c0,0.6-0.3,1.1-0.7,1.6c-1.3,1.5-2.9,2.7-4.8,3.5c-9.4,4.1-19.8-2.6-19.8-13.9c0-1.1,0.5-3.2,1.4-5.1c0.2-0.4,0.4-0.7,0.6-1.1     c0.3-0.5,0.7-0.8,1.3-0.8c0.3,0,0.5-0.1,0.8-0.2c0.1-0.1,0.2-0.3,0.3-0.5c0-0.1,0-0.1,0-0.2c-0.3-0.8,0-1.4,0.6-1.9     c1.5-1.2,3.1-2.2,5-2.6c0.3-0.1,0.5-0.1,0.8-0.2c3.9-1.1,7.6-0.3,11,1.8c0.2,0.1,0.3,0.2,0.5,0.4c0.5,0.4,0.8,0.8,0.8,1.5     c0.1,0.8,0.2,0.9,1.1,1c0.5,0.1,0.9,0.2,1.2,0.6c1.3,1.6,2.1,3.5,2.5,5.5c0.1,0.6,0,1.2-0.5,1.6c-0.1,0.1-0.3,0.3-0.4,0.4     c-0.3,0.4-0.3,1,0,1.3c0.1,0.1,0.2,0.3,0.4,0.4L253.4,204.7z M230.9,196.5c0,0.2,0.2,0.4,0.4,0.4c0.2,0,0.4-0.2,0.4-0.4     s-0.2-0.4-0.4-0.4S230.9,196.3,230.9,196.5L230.9,196.5z M242.3,211.9c3.8-0.9,6.4-4.3,6.4-8.7c0-2.2-1-4.3-3-6     c-0.4-0.3-0.7-0.6-1.1-0.8c-0.5-0.3-1-0.6-1.3-1.2c-0.1-0.1-0.3-0.2-0.4-0.1c-1.1,0.3-2.2,0.1-3.4,0.2c-1.3,0.1-2.6,0.5-3.8,1.1     c-0.8,0.5-1.5,1.1-2.1,1.8c-0.5,0.6-1.1,1-1.8,1.2c-0.4,0.1-0.6,0.6-0.4,0.9c0.4,0.7,0.4,1.4,0.3,2.1c-0.1,0.5-0.2,1.1-0.2,1.6     c0,0.3,0,0.7,0.1,1c0.3,0.9,0.6,1.9,1.1,2.8C234.2,210.8,237.9,212.9,242.3,211.9L242.3,211.9z M237.7,193c0,0.4,0.3,0.8,0.7,0.8     c0.2,0,0.5-0.2,0.5-0.5c0-0.4-0.3-0.8-0.7-0.8C238,192.5,237.7,192.7,237.7,193z M244.3,215.5c0-0.3-0.1-0.5-0.3-0.6     c-0.2-0.1-0.6,0.1-0.7,0.4c-0.1,0.2-0.1,0.5-0.2,0.8c0,0.2,0.3,0.5,0.5,0.5c0.1-0.1,0.3-0.1,0.4-0.2     C244.2,216.2,244.3,215.9,244.3,215.5L244.3,215.5z M251,197.6c0.1-0.2-0.2-0.5-0.5-0.5c-0.1,0-0.2,0-0.5-0.1     c-0.1,0-0.4,0-0.6,0.1c-0.2,0.1-0.3,0.2-0.4,0.3c-0.1,0.1-0.2,0.4,0,0.5c0.1,0.1,0.3,0.3,0.5,0.3c0.4-0.1,0.9-0.1,1.3-0.3     C250.8,197.9,250.9,197.7,251,197.6L251,197.6z M252.1,201.6L252.1,201.6l-0.1,0L252.1,201.6z" fill="#ffffff"/>
			<path d="M283.4,209.4c0.2,0.2,0.3,0.4,0.2,0.7c-0.1,0.2-0.1,0.4-0.2,0.6c-1.2,2-2.6,3.6-4.7,4.6c-0.2,0.1-0.5,0.2-0.7,0.4     c-2,1.4-4.4,1.9-6.8,1.8c-4.3-0.1-7.9-1.8-10.7-5.2c-0.4-0.5-0.8-1.1-1.1-1.6c-0.4-0.6-0.6-1.2-0.4-1.9c0.1-0.4-0.1-0.8-0.4-1.1     c-0.6-0.6-0.9-1.3-1-2.1c-0.4-1.7-0.3-3.4,0.1-5.1c0.7-3.3,2.4-6,5-8.1c0.7-0.6,1.5-1.1,2.4-1.3c0.6-0.5,1.2-0.8,1.9-1.1     c6.2-2.1,12.5,0.4,15.8,5.1c0.3,0.4,0.5,0.8,0.7,1.2c0.3,0.6,0.1,1.1-0.4,1.4c-0.1,0.1-0.2,0.1-0.4,0.2c-1.2,0.6-2.3,1.2-3.5,1.8     c-0.1,0.1-0.2,0.1-0.4,0.1c-0.3,0.1-0.7-0.1-0.8-0.4c0-0.1-0.1-0.1-0.1-0.2c0-0.8-0.4-1.4-0.9-1.9c-0.3-0.3-0.6-0.7-1-1     c-0.2-0.2-0.5-0.4-0.8-0.5c-0.6-0.2-1.3-0.4-1.9-0.6c-4.6-1.1-8.8,1.7-10,5.9c-0.2,0.6-0.3,1.1-0.4,1.7c-0.1,0.3-0.3,0.4-0.5,0.5     c-0.2,0.1-0.5,0.1-0.7,0.2c-1.1,0.4-1.2,2-0.4,2.6c0.4,0.2,0.8,0.2,1.1-0.1c0.1-0.2,0.3-0.4,0.4-0.6c0.1-0.1,0.4-0.1,0.5,0.1     c0.2,0.4,0.4,0.8,0.6,1.2c2,4.1,6,5.4,9.1,4.8c0.5-0.1,0.9-0.1,1.4-0.2c0.6-0.1,1.1-0.4,1.6-0.8c0.4-0.4,0.9-0.8,1.3-1.2     c0.6-0.6,0.9-1.3,0.7-2.2c0-0.1,0-0.3,0-0.4c0.1-0.1,0.2-0.2,0.3-0.2s0.3,0,0.4,0.1c1.4,0.7,2.8,1.4,4.2,2.1     c0.2,0.1,0.4,0.3,0.6,0.5L283.4,209.4z M260.4,200.7c0.2,0.4,0.8,0.4,1.2,0.1c0.1-0.1,0.1-0.2,0.2-0.4c0-0.1,0-0.1,0-0.2     c-0.3-0.4-1-0.5-1.3-0.1C260.4,200.3,260.4,200.6,260.4,200.7L260.4,200.7z M265.3,191.4c-0.1-0.1-0.1-0.1-0.2-0.1     C265.1,191.3,265.2,191.4,265.3,191.4C265.5,191.5,265.5,191.5,265.3,191.4L265.3,191.4z M269.5,191.5c-0.1,0-0.2,0.1-0.2,0.2     c0,0.1,0.1,0.1,0.1,0.2c0.1,0.1,0.3,0,0.3-0.1C269.8,191.7,269.7,191.6,269.5,191.5L269.5,191.5z M280.7,195.8     c-0.2,0.1-0.3,0.2-0.3,0.4c0,0.3,0.3,0.5,0.5,0.4c0.3-0.1,0.4-0.3,0.3-0.6C281.1,195.9,280.9,195.8,280.7,195.8L280.7,195.8z" fill="#ffffff"/>
			<path d="M313.5,217.2c0.1,0.1-0.2,0.3-0.4,0.4c-0.1,0-0.2,0.1-0.4,0.1s-0.3,0-0.4,0c-2.6,0-5.1,0-7.7,0c-0.3,0-0.5-0.1-0.8-0.1     c-0.2,0-0.4-0.3-0.3-0.5c0.2-0.4,0.4-0.7,0.6-1c0.1-0.3,0.2-0.6,0.3-0.9c0.1-0.7-0.4-1.3-1.1-1.5c-0.5-0.1-1.1-0.1-1.6-0.1     c-1.5,0-2.9,0-4.4,0c-1.3,0-2.6,0-3.9,0c-0.6,0-1.3,0.1-2,0.2c-0.4,0.1-0.8,0.5-0.8,1c0,0.3,0,0.7,0.1,1c0.1,0.4,0.3,0.7,0.4,1.1     c0.1,0.3-0.1,0.7-0.5,0.7c-0.1,0-0.2,0.1-0.4,0.1c-2.2,0-4.5,0-6.7,0c-0.2,0-0.4-0.1-0.5-0.2c-0.1-0.1-0.1-0.3-0.1-0.4     c0.1-0.2,0.3-0.4,0.5-0.6c1-0.8,1.6-1.7,2.1-2.8c0.2-0.5,0.5-0.9,0.7-1.4c1.4-3.1,2.8-6.2,4.2-9.3c1.3-2.9,2.6-5.8,3.9-8.6     c0.1-0.2,0.1-0.3,0.2-0.5c0.5-1,0.7-2,0.4-3.1c-0.1-0.5,0.3-1.1,0.8-1.1c0.9-0.1,1.9-0.2,2.7,0.3c0.5,0.2,0.9,0.2,1.3-0.1     c0.1,0,0.1-0.1,0.2-0.1c0.7-0.2,1.2,0,1.4,0.7c0.4,1.1,0.8,2.1,1.2,3.1c0.3,0.7,0.3,1.4-0.2,2c-0.2,0.2-0.1,0.6,0.2,0.7     c1.2,0.3,1.6,1.2,2,2.2c0.9,2.3,1.8,4.5,2.7,6.8c0.2,0.4,0.4,0.9,0.5,1.3c0.2,0.7,0.5,1.3,0.8,2c0.5,1.1,1,2.3,1.4,3.5     c0.6,1.9,1.6,3.6,3.2,4.9c0.1,0.1,0.1,0.2,0.2,0.3L313.5,217.2z M293,212.5c0.1-0.1,0-0.2-0.1-0.2c-0.1,0-0.2,0.1-0.3,0.2     c0.1,0.1,0.2,0.1,0.3,0.1C292.9,212.6,293,212.6,293,212.5L293,212.5z M300.4,207.4c0.7-0.1,1-0.6,0.8-1.3c0-0.1-0.1-0.2-0.1-0.4     c-0.8-1.9-1.5-3.8-2.3-5.7c-0.1-0.2-0.3-0.4-0.4-0.6c-0.2-0.2-0.7-0.3-0.9,0c-0.2,0.3-0.4,0.5-0.6,0.8c-0.9,1.9-1.8,3.8-2.7,5.7     c-0.1,0.3-0.2,0.6-0.2,0.8c0,0.3,0,0.4,0,0.5c0,0.2,0.1,0.4,0.3,0.4c0.2,0,0.4,0,0.6,0c0.4,0,0.8,0.2,0.9,0.6     c0.1,0.3,0.3,0.6,0.4,0.9c0.3,0.5,1.1,0.6,1.3,0.1c0.5-1.2,1.2-1.8,2.5-1.8C300.3,207.5,300.3,207.5,300.4,207.4L300.4,207.4z      M296.1,193.9c0,0.2,0.1,0.2,0.3,0.2c0.1,0,0.1-0.1,0.1-0.2c0-0.2-0.1-0.2-0.3-0.2C296.1,193.7,296.1,193.8,296.1,193.9z      M297.8,194.9c-0.4,0.3-0.5,0.8-0.3,1.2c0.1,0.1,0.2,0.1,0.3,0.2c0.1,0,0.1,0,0.2,0c0.5-0.2,0.6-0.9,0.3-1.3     C298.2,194.8,297.9,194.8,297.8,194.9L297.8,194.9z M300.4,195.2L300.4,195.2L300.4,195.2L300.4,195.2z M303.3,212.7l-0.1-0.1     v0.1L303.3,212.7z M306.1,216.4c0-0.2-0.2-0.4-0.4-0.4c-0.2,0-0.4,0.2-0.4,0.4c0,0.2,0.2,0.4,0.4,0.4     C305.9,216.8,306.1,216.6,306.1,216.4z M309.3,213.8c0-0.3-0.2-0.5-0.5-0.5c-0.2,0-0.4,0.1-0.5,0.2c-0.2,0.2-0.2,0.5-0.1,0.7     c0.1,0.3,0.6,0.4,0.8,0.2C309.2,214.3,309.3,214.1,309.3,213.8z" fill="#ffffff"/>
		</g>
	</g>
	<g>
		<g>
			<path d="M170.2,61.2c8,0,15.8,0,23.7,0c0,5.5,0,11,0,16.4c0,0-0.1,0-0.1,0c-0.7-1.8-1.3-3.6-2-5.4c-0.5-1.3-0.9-2.6-1.4-3.8     c-0.1-0.3-0.5-0.6-0.7-0.6c-3.6,0-7.3,0-11.1,0c1.5,4,2.9,7.9,4.4,12c1.4-1.7,2.6-3.3,4.1-5.1c1.5,4.6,2.9,9,4.3,13.5     c-0.1,0-0.1,0.1-0.2,0.1c-1.5-1.9-3.1-3.8-4.7-5.9c-1.2,1.7-2.4,3.3-3.6,5c-2-3-3.9-6-5.8-8.9c-0.1,0-0.1,0.1-0.2,0.1     c0,8.3,0,16.5,0,25.1c3.8-3.9,7.4-7.6,11.1-11.4c1.4,1.2,2.9,2.4,4.3,3.6c3.6-4,7.1-7.8,10.7-11.8c4.4,4,8.8,8,13.2,12     c-5.3,7.1-10.7,14.2-16,21.3c7.9-7.8,15.8-15.6,23.8-23.4c2.5,2.1,5,4.1,7.5,6.2c1.2,1,2.4,1.9,3.5,3c0.4,0.3,0.7,1,0.7,1.5     c0.1,4.6,0,9.1,0,13.7c0,0.5-0.2,1.1-0.6,1.4c-10.6,8.6-21.2,17.2-31.8,25.8c-0.1,0.1-0.2,0.2-0.4,0.3c-0.4-0.3-0.7-0.5-1-0.8     c-10.3-8.4-20.6-16.8-31-25.1c-0.5-0.4-0.8-0.8-0.8-1.5c0-18.6,0-37.2,0-55.8C170.2,62,170.2,61.7,170.2,61.2z M226.5,118     c0-0.1-0.1-0.1-0.1-0.2c-0.3,0.2-0.6,0.3-0.9,0.5c-7.2,4.7-14.4,9.4-21.6,14.2c-0.7,0.5-1.2,0.5-1.9,0     c-7.2-4.8-14.5-9.5-21.7-14.2c-0.3-0.2-0.5-0.3-0.8-0.4c0,0.1-0.1,0.1-0.1,0.2c7.8,6.4,15.7,12.7,23.6,19.2     C210.9,130.7,218.7,124.3,226.5,118z M196.1,104.2c-2.7-2.4-5.3-4.7-8-7c-4.5,4.6-8.8,9.1-13.2,13.6c0.1,0.1,0.1,0.1,0.2,0.2     c4.5-3,9-6,13.6-9c0,0,0.1,0.1,0.1,0.1c-1.1,2-2.2,4-3.3,6c0.1,0,0.1,0.1,0.2,0.1c2.4-1.5,4.8-3,7.5-4.7c-0.3,1.1-0.6,1.9-0.9,3     C193.7,105.7,194.8,105,196.1,104.2z M210.6,112.4c0,0,0.1,0.1,0.1,0.1c5.2-3.3,10.5-6.6,16-10.1c-0.4,1.3-0.7,2.4-1.1,3.7     c1.6-0.9,3-1.7,4.4-2.6c-2.1-1.7-4-3.3-5.7-4.7C219.7,103.5,215.1,108,210.6,112.4z M202.8,96.6c1.8-0.8,3.2-1.5,4.8-2.3     c-0.1,0.9-0.2,1.5-0.3,2.4c1-0.5,1.8-1,2.7-1.4c-2.3-2.2-4.5-4.2-6.8-6.3c-2.5,2.9-4.9,5.6-7.3,8.4c0,0,0.1,0.1,0.1,0.1     c2.6-1.5,5.2-2.9,8.1-4.5C203.6,94.3,203.3,95.3,202.8,96.6z" fill="#ffffff"/>
			<path d="M198.2,83.5c0-0.6,0-1,0-1.4c0-10.4,0-20.8,0-31.2c0-0.8-0.3-1.3-0.9-1.8c-3.6-2.5-8.3-2.5-11.9,0     c-0.3,0.2-0.6,0.5-1.1,0.8c0-2.6,0-5.2,0-7.8c5.2,0,10.5,0,15.9,0c-0.1-1.2-0.2-2.4-0.4-3.5c-0.7-6.6-0.5-13.1,0.7-19.6     c0.1-0.7,0-1.1-0.5-1.6c-1.4-1.5-1.2-3.9,0.2-5.3c1.5-1.4,3.9-1.4,5.4,0c1.4,1.4,1.5,3.7,0.2,5.3c-0.3,0.3-0.6,0.8-0.5,1.2     c1.4,7.6,1.4,15.3,0.4,22.9c0,0.1,0,0.2,0,0.5c5.3,0,10.6,0,15.9,0c0,2.7,0,5.2,0,7.9c-0.4-0.3-0.7-0.5-1-0.7     c-3.6-2.6-8.4-2.6-12-0.1c-0.7,0.5-1,1-1,1.9c0,9.9,0,19.8,0,29.7c0,0.5,0,1,0,1.8c-1.7-1.6-3.2-2.9-4.6-4.4     c-0.2-0.2-0.2-0.8-0.2-1.1c0-6.5,0-12.9,0-19.4c0-2.6-0.7-4.9-2.5-6.9c0,0.4,0,0.8,0,1.1c0,9-0.1,18.1,0.1,27.1     C200.6,81.1,199.5,82.1,198.2,83.5z M202.9,19.7c0,0-0.1,0-0.1,0c-0.1,0.3-0.2,0.7-0.3,1c-1.4,7-1,13.9-0.2,20.9     c0,0.2,0.2,0.4,0.3,0.6c0.1,0,0.2-0.1,0.2-0.1C202.9,34.6,202.9,27.1,202.9,19.7z M186.6,45.4c0,0.1,0.1,0.2,0.1,0.3     c5.7-1.2,11.2-0.7,16.2,2.6c-0.1-2.1-1.6-3.9-3.7-4c-3.4-0.1-6.8,0-10.2,0.1C188.2,44.5,187.4,45.1,186.6,45.4z M203.8,12.9     c-1.3-0.5-2.5,0-3,1.1c-0.5,1.1-0.1,2.2,1,2.8C201.4,14.2,201.6,13.8,203.8,12.9z" fill="#ffffff"/>
			<path d="M228.9,78.7c-2.3,2.5-4.5,5.1-6.9,7.7c-1.1-2.1-2.1-4-3.2-6c-2.1,1.7-4.1,3.4-6.2,5c-0.1,0-0.1-0.1-0.2-0.1     c2.2-4.3,4.5-8.5,6.8-13c1.1,2.3,2.2,4.4,3.3,6.7c2.2-3.8,4.3-7.4,6.5-11.2c-0.4,0-0.7-0.1-1-0.1c-3.8,0-7.6,0-11.3,0     c-0.7,0-1.1,0.2-1.4,0.9c-1,1.9-2,3.7-3.2,5.9c0-4.6,0-8.9,0-13.3c7.8,0,15.7,0,23.6,0c0,12.1,0,24.2,0,36.4     c-0.2-0.1-0.3-0.1-0.4-0.2c-1.9-1.5-3.8-3.1-5.6-4.7c-0.3-0.3-0.5-0.9-0.5-1.3c0-3.9,0-7.7,0-11.6c0-0.4,0-0.8,0-1.2     C229,78.8,229,78.8,228.9,78.7z" fill="#ffffff"/>
		</g>
	</g>
</g>
<g>
	<path d="M160,226.3c0.2,0,0.2,0.1,0.2,0.2c0.3,0.8,0.7,2.2,1.3,4.3c0.5,1.5,0.8,2.2,0.9,2.2c0,0,0.1,0.1,0.1,0.1h0   c0.1,0,0.2-0.1,0.6-0.2h0.1c0,0,0.1,0,0.1,0v0.1c-0.9,0.6-1.4,1-1.5,1c-0.1,0-0.2,0.1-0.3,0.1h-0.1c-0.3,0-0.5-0.3-0.7-0.8   c-0.2-0.6-0.4-1.1-0.5-1.7c-0.1-0.2-0.1-0.3-0.1-0.4c-0.4,0.3-0.8,0.5-1,0.5c-0.3,0-0.5-0.1-0.7-0.3c-0.2-0.1-0.3-0.2-0.4-0.2h-0.1   c-0.1,0-0.2,0.1-0.3,0.4c-0.3,0.9-0.6,1.4-0.8,1.5v0c0.2-0.1,0.4-0.1,0.6-0.1c0.5,0,0.8,0,0.9,0c0.2,0,0.4,0,0.6-0.1h0   c-0.1,0.3-0.4,0.6-0.8,0.9c-0.3,0.2-0.7,0.3-1,0.3l-1.2-0.1c-0.2,0-0.4,0-0.5,0.1v-0.1c0-0.1,0.1-0.2,0.3-0.4   c0.5-1.1,1-2.5,1.6-4.1c0.3-0.8,0.6-1.5,0.9-2c0.3-0.4,0.7-0.7,1.1-0.8C159.3,226.6,159.6,226.5,160,226.3z M158.9,226.5   c-0.7,0.7-1.2,1-1.5,1h-0.1c-0.2,0-0.3,0-0.4-0.1c-0.2-0.1-0.6-0.2-0.9-0.2v0c0.2-0.4,0.5-0.6,1-0.6l1,0.1   C158.2,226.6,158.4,226.6,158.9,226.5L158.9,226.5z M159.1,227.9c-0.2,0.5-0.6,1.4-1,2.6c0.3-0.2,0.5-0.4,0.7-0.4h0   c0.1,0,0.4,0.1,0.8,0.4c0.1,0,0.2,0.1,0.4,0.1C159.9,230.4,159.6,229.5,159.1,227.9L159.1,227.9z" fill="#ffffff"/>
	<path d="M168,226c0.2,0,0.7,0.1,1.5,0.3c0.1,0,0.1,0,0.2,0h0.2c0.1,0,0.4-0.1,0.8-0.2l0,0c0,0.1-0.1,0.2-0.2,0.2   c-0.6,0.6-1.2,1-1.8,1c-0.3,0-0.7-0.1-1.3-0.4c-0.1,0-0.3-0.1-0.3-0.1h-0.2c-0.2,0-0.3,0.1-0.4,0.2c0,0.4-0.1,0.5-0.3,0.5   c0,0-0.1,0-0.1,0c0-0.1-0.1-0.2-0.1-0.3c0-0.2,0.1-0.4,0.2-0.6C166.8,226.3,167.4,226,168,226z M172.1,225.8c0.6,0.6,1,1,1.2,1.1   c0.2,0.2,0.6,0.4,1.1,0.7v0.1c-0.5,0.5-1.2,1.1-1.9,1.7c-0.3,0.3-0.5,0.5-0.5,0.5c0.2,0.1,0.5,0.3,0.9,0.7c0.4,0.5,0.8,1.1,1.3,1.7   c0.5,0.6,0.8,0.8,0.9,0.8c0,0,0.1,0,0.1,0c0.3,0,0.4-0.1,0.6-0.2c0.1,0,0.1,0,0.1,0.1v0.1c0,0.2-0.2,0.3-0.5,0.5   c-0.5,0.4-0.9,0.6-1.2,0.6H174c-0.4-0.1-0.9-0.6-1.5-1.6l-1.1-1.3c-0.4-0.3-0.6-0.5-0.7-0.5l0-0.1v-0.1c0-0.1,0.1-0.3,0.3-0.4   l1.8-1.6v0c-0.1-0.1-0.7-0.6-1.8-1.4c-0.3,0.1-0.4,0.6-0.4,1.5c0,2.6-0.1,4.1-0.4,4.3l-0.2,0.3c0.2-0.1,0.4-0.1,0.6-0.1   c0.5,0,0.8,0,0.9,0c0.2,0,0.4,0,0.6-0.1c-0.4,0.8-0.9,1.2-1.4,1.2c-0.2,0-0.4,0-0.7,0.1l-1.4-0.1v0c0,0,0.1-0.1,0.2-0.2   c0.2-0.3,0.4-0.6,0.4-1.1V232c0-0.1,0-0.5,0.1-1c0-0.8,0-1.4,0-1.6c0-1.1,0.3-1.9,0.8-2.4c0.7-0.5,1.4-0.9,2-1.2H172.1z" fill="#ffffff"/>
	<path d="M188,226.2c0.4,0,0.8,0.3,1.4,0.8c0.2,0.4,0.3,1,0.3,1.9v0.1l-0.1,2.5v0.2c0,0.5-0.1,0.9-0.4,1.2l0.1,0c0.2,0,0.5,0,0.8,0   c0.2,0,0.3,0,0.5-0.1l0.1,0.1v0c-0.4,0.4-0.9,0.8-1.4,1l-0.4,0c-0.3,0-0.6,0-0.9,0H188c-0.1,0-0.2,0-0.4,0l0-0.1v0   c0.4-0.3,0.6-0.7,0.6-1.3c0-0.4,0-0.8,0-1c0-0.2,0-0.3,0-0.3c0-0.2,0-0.3,0-0.4v-2.6c-0.1-0.3-0.3-0.6-0.7-0.8   c-0.1-0.1-0.3-0.1-0.5-0.2c-0.4,0.2-0.6,0.3-0.7,0.5c0,0.1-0.1,0.1-0.1,0.1v0.7l0.1,2.2c0,0.7-0.1,1.4-0.4,1.9   c-0.2,0.2-0.3,0.3-0.3,0.4c0,0,0,0,0.1,0c0.7,0,1.1,0,1.3-0.1c0.1,0,0.1,0,0.1,0.1v0c-0.2,0.3-0.5,0.5-0.8,0.7   c-0.4,0.3-0.7,0.4-0.9,0.4h-0.1c-0.2,0-0.5,0-0.9-0.1c0,0-0.1,0-0.1,0c0,0,0,0-0.1-0.1c0.4-0.5,0.6-0.9,0.6-1.1v0   c0-0.5,0-1.8,0.1-3.9c0-0.7-0.2-1.1-0.7-1.3c-0.3-0.2-0.6-0.3-0.7-0.3h-0.1c-0.1,0-0.2,0.1-0.3,0.3c-0.1,0.2-0.1,0.5-0.1,0.9v2.2   c0,0.8-0.1,1.5-0.2,1.9c-0.3,0.4-0.6,0.7-0.9,0.8c-0.6,0.3-0.9,0.5-1,0.5h-0.1c-0.1,0-0.4-0.1-0.9-0.2h-0.2c-0.1,0-0.3,0.2-0.6,0.5   l-0.1,0c-0.1,0-0.1,0-0.1-0.1c0-0.2,0.2-0.6,0.7-1c0.5-0.4,0.8-0.6,1-0.6h0.1c0.2,0,0.4,0.1,0.8,0.2c0,0,0.1-0.3,0.1-0.7v-0.2   c0-0.3,0-1,0-2.1c0-1.1,0.2-2,0.7-2.5c0.2-0.3,0.4-0.4,0.6-0.6c0.7-0.3,1.2-0.5,1.5-0.5h0c0.3,0,0.7,0.2,1.2,0.6   c0.2,0.2,0.2,0.3,0.3,0.3c0.8-0.6,1.4-0.9,1.9-0.9H188z M180.8,226.2c0.2,0,0.4,0.1,0.7,0.2c0.1,0,0.3,0.1,0.4,0.1h0.1   c0.3,0,0.7-0.1,1.1-0.2v0l0,0.1c-0.7,0.6-1.1,1-1.3,1c-0.1,0.1-0.3,0.1-0.5,0.1h-0.1c-0.1,0-0.4-0.1-1-0.3c-0.1,0-0.1,0-0.2,0   c-0.2,0-0.4,0.1-0.6,0.3c0,0.1-0.1,0.2-0.1,0.3v0.4c0,0-0.1,0.1-0.1,0.1c-0.2,0-0.2-0.2-0.2-0.4v-0.1c0-0.3,0.2-0.7,0.6-1.1   C180,226.4,180.4,226.2,180.8,226.2L180.8,226.2z" fill="#ffffff"/>
	<path d="M198.2,226.3c0.2,0,0.2,0.1,0.2,0.2c0.3,0.8,0.7,2.2,1.3,4.3c0.5,1.5,0.8,2.2,0.9,2.2c0,0,0.1,0.1,0.1,0.1h0   c0.1,0,0.2-0.1,0.6-0.2h0.1c0,0,0.1,0,0.1,0v0.1c-0.9,0.6-1.4,1-1.5,1c-0.1,0-0.2,0.1-0.3,0.1h-0.1c-0.3,0-0.5-0.3-0.7-0.8   c-0.2-0.6-0.4-1.1-0.5-1.7c-0.1-0.2-0.1-0.3-0.1-0.4c-0.4,0.3-0.8,0.5-1,0.5c-0.3,0-0.5-0.1-0.7-0.3c-0.2-0.1-0.3-0.2-0.4-0.2h-0.1   c-0.1,0-0.2,0.1-0.3,0.4c-0.3,0.9-0.6,1.4-0.8,1.5v0c0.2-0.1,0.4-0.1,0.6-0.1c0.5,0,0.8,0,0.9,0c0.2,0,0.4,0,0.6-0.1h0   c-0.1,0.3-0.4,0.6-0.8,0.9c-0.3,0.2-0.7,0.3-1,0.3l-1.2-0.1c-0.2,0-0.4,0-0.5,0.1v-0.1c0-0.1,0.1-0.2,0.3-0.4   c0.5-1.1,1-2.5,1.6-4.1c0.3-0.8,0.6-1.5,0.9-2c0.3-0.4,0.7-0.7,1.1-0.8C197.6,226.6,197.8,226.5,198.2,226.3z M197.2,226.5   c-0.7,0.7-1.2,1-1.5,1h-0.1c-0.2,0-0.3,0-0.4-0.1c-0.2-0.1-0.6-0.2-0.9-0.2v0c0.2-0.4,0.5-0.6,1-0.6l1,0.1   C196.4,226.6,196.7,226.6,197.2,226.5L197.2,226.5z M197.4,227.9c-0.2,0.5-0.6,1.4-1,2.6c0.3-0.2,0.5-0.4,0.7-0.4h0   c0.1,0,0.4,0.1,0.8,0.4c0.1,0,0.2,0.1,0.4,0.1C198.1,230.4,197.9,229.5,197.4,227.9L197.4,227.9z" fill="#ffffff"/>
	<path d="M213.6,226.2c0.4,0,0.8,0.3,1.4,0.8c0.2,0.4,0.3,1,0.3,1.9v0.1l-0.1,2.5v0.2c0,0.5-0.1,0.9-0.4,1.2l0.1,0   c0.2,0,0.5,0,0.8,0c0.2,0,0.3,0,0.5-0.1l0.1,0.1v0c-0.4,0.4-0.9,0.8-1.4,1l-0.4,0c-0.3,0-0.6,0-0.9,0h-0.1c-0.1,0-0.2,0-0.4,0   l0-0.1v0c0.4-0.3,0.6-0.7,0.6-1.3c0-0.4,0-0.8,0-1c0-0.2,0-0.3,0-0.3c0-0.2,0-0.3,0-0.4v-2.6c-0.1-0.3-0.3-0.6-0.7-0.8   c-0.1-0.1-0.3-0.1-0.5-0.2c-0.4,0.2-0.6,0.3-0.7,0.5c0,0.1-0.1,0.1-0.1,0.1v0.7l0.1,2.2c0,0.7-0.1,1.4-0.4,1.9   c-0.2,0.2-0.3,0.3-0.3,0.4c0,0,0,0,0.1,0c0.7,0,1.1,0,1.3-0.1c0.1,0,0.1,0,0.1,0.1v0c-0.2,0.3-0.5,0.5-0.8,0.7   c-0.4,0.3-0.7,0.4-0.9,0.4h-0.1c-0.2,0-0.5,0-0.9-0.1c0,0-0.1,0-0.1,0c0,0,0,0-0.1-0.1c0.4-0.5,0.6-0.9,0.6-1.1v0   c0-0.5,0-1.8,0.1-3.9c0-0.7-0.2-1.1-0.7-1.3c-0.3-0.2-0.6-0.3-0.7-0.3H209c-0.1,0-0.2,0.1-0.3,0.3c-0.1,0.2-0.1,0.5-0.1,0.9v2.2   c0,0.8-0.1,1.5-0.2,1.9c-0.3,0.4-0.6,0.7-0.9,0.8c-0.6,0.3-0.9,0.5-1,0.5h-0.1c-0.1,0-0.4-0.1-0.9-0.2h-0.2c-0.1,0-0.3,0.2-0.6,0.5   l-0.1,0c-0.1,0-0.1,0-0.1-0.1c0-0.2,0.2-0.6,0.7-1c0.5-0.4,0.8-0.6,1-0.6h0.1c0.2,0,0.4,0.1,0.8,0.2c0,0,0.1-0.3,0.1-0.7v-0.2   c0-0.3,0-1,0-2.1c0-1.1,0.2-2,0.7-2.5c0.2-0.3,0.4-0.4,0.6-0.6c0.7-0.3,1.2-0.5,1.5-0.5h0c0.3,0,0.7,0.2,1.2,0.6   c0.2,0.2,0.2,0.3,0.3,0.3c0.8-0.6,1.4-0.9,1.9-0.9H213.6z M206.4,226.2c0.2,0,0.4,0.1,0.7,0.2c0.1,0,0.3,0.1,0.4,0.1h0.1   c0.3,0,0.7-0.1,1.1-0.2v0l0,0.1c-0.7,0.6-1.1,1-1.3,1c-0.1,0.1-0.3,0.1-0.5,0.1h-0.1c-0.1,0-0.4-0.1-1-0.3c-0.1,0-0.1,0-0.2,0   c-0.2,0-0.4,0.1-0.6,0.3c0,0.1-0.1,0.2-0.1,0.3v0.4c0,0-0.1,0.1-0.1,0.1c-0.2,0-0.2-0.2-0.2-0.4v-0.1c0-0.3,0.2-0.7,0.6-1.1   C205.6,226.4,206,226.2,206.4,226.2L206.4,226.2z" fill="#ffffff"/>
	<path d="M222.8,226.3c0.1,0,0.2,0,0.2,0.1v0c-0.6,0.9-1.1,1.3-1.5,1.3h-0.1c-0.2,0-0.6-0.1-1.1-0.3c-0.1,0-0.2,0-0.2,0   c-0.3,0.1-0.5,0.2-0.5,0.5c0,0.3-0.1,0.4-0.3,0.4h0c0,0-0.1-0.1-0.1-0.2c0-0.3,0.2-0.7,0.5-1.1c0.3-0.4,0.6-0.6,0.9-0.6h0.1   c0.1,0,0.5,0,1.2,0.1h0.2C222.4,226.6,222.6,226.5,222.8,226.3z M224.1,226.4c0.1,0,0.6,0.1,1.3,0.4c0.1,0,0.2,0,0.2,0h0.1   c0.2,0,0.4-0.1,0.6-0.2h0.2v0.1c0,0.1-0.3,0.4-0.8,0.9c-0.4,0.2-0.7,0.4-1,0.4c-0.1,0-0.5-0.1-0.9-0.3c-0.1,0-0.2-0.1-0.3-0.1h-0.1   c0,0-0.1,0-0.1,0.1c-0.1,0.7-0.1,1.3-0.1,1.6v0.2c0,0.1,0,0.2,0,0.3c0.3-0.4,0.6-0.6,0.9-0.6c0.1,0,0.4,0.1,0.8,0.4   c0.1,0,0.1,0.1,0.2,0.1h0.1c0.1,0,0.3-0.1,0.6-0.3c0,0,0.1,0,0.1,0.1v0c-0.1,0.3-0.4,0.7-0.8,1.1c-0.3,0.2-0.5,0.3-0.7,0.3h-0.1   c-0.2,0-0.5-0.1-0.9-0.4c0,0-0.1,0-0.1,0c-0.1,1.3-0.2,2-0.3,2c0,0.1-0.1,0.3-0.2,0.5c0.3-0.2,0.6-0.4,0.9-0.4   c0.1,0,0.6,0.1,1.4,0.2c0.1,0,0.2,0,0.2,0c0.3,0,0.6-0.1,0.8-0.3v0c-0.2,0.3-0.5,0.7-0.9,1.2c-0.3,0.2-0.6,0.3-0.8,0.4   c-0.9-0.2-1.3-0.3-1.4-0.3c0,0-0.1,0-0.3,0h-0.1c-0.2,0-0.5,0.1-0.8,0.2c-0.1,0-0.2,0.1-0.3,0.1h0c-0.1,0-0.1,0-0.1-0.1   c0-0.1,0.1-0.2,0.2-0.3c0.1-0.6,0.2-2.2,0.3-4.8c0.1-0.4,0.2-0.8,0.4-1c0.1-0.2,0.3-0.5,0.7-0.8   C223.4,226.6,223.8,226.4,224.1,226.4z" fill="#ffffff"/>
	<path d="M235.9,226.1c0.5,0,1.1,0.3,1.7,1c0.4,0.5,0.6,1.2,0.6,1.9c0,1.2-0.5,2.3-1.6,3.3c-0.3,0.3-0.5,0.5-0.5,0.5h0.2   c0.1,0,0.4,0,1,0.1h0.1c0.3,0,0.6-0.1,0.8-0.3l0.3-0.1v0c0,0.1-0.2,0.2-0.5,0.4c-0.6,0.6-1.1,0.9-1.4,0.9c-0.2,0-0.3,0-0.3,0.1   l-0.2,0h-1.4c0,0-0.1,0-0.1-0.1c0-0.1,0.2-0.3,0.6-0.6c1.1-1,1.7-2.1,1.7-3.3c0-0.7-0.2-1.3-0.5-1.8c-0.3-0.4-0.7-0.7-1.2-0.9   c-0.1,0-0.1,0-0.2,0h-0.1c-0.2,0-0.3,0.1-0.3,0.3c-0.1,0.3-0.2,1.4-0.2,3.4c0,0.3-0.1,0.7-0.2,1.4c-0.2,0.4-0.7,0.9-1.5,1.4   c-0.3,0.3-0.5,0.4-0.7,0.4h-0.2c-0.1,0-0.4-0.1-0.9-0.4c-0.1,0-0.2,0-0.2,0h-0.1c-0.2,0-0.4,0.1-0.4,0.4l0,0H230   c0,0-0.1-0.1-0.1-0.2c0-0.3,0.3-0.6,0.8-1.1c0.3-0.2,0.5-0.3,0.7-0.3h0.1c0.2,0,0.5,0.1,0.9,0.4c0.2,0.1,0.3,0.1,0.4,0.1   c0,0,0.1-0.3,0.1-0.9v-0.2c0-0.5,0-1,0-1.6c0-1.6,0.4-2.7,1.1-3.3C234.7,226.4,235.3,226.1,235.9,226.1z M231.9,226.2L231.9,226.2   c0.3,0,0.7,0.1,1.2,0.4c0.1,0,0.2,0,0.3,0h0.1c0.1,0,0.4-0.1,0.7-0.2c0,0,0.1,0,0.1,0v0c0,0-0.4,0.3-1,0.8   c-0.3,0.2-0.6,0.4-0.8,0.4h-0.1c-0.2,0-0.5-0.1-1-0.3c-0.1,0-0.1,0-0.2,0h-0.1c-0.3,0-0.5,0.3-0.6,0.9c0,0.1-0.1,0.1-0.1,0.1   c-0.1,0-0.2-0.1-0.2-0.4v0c0-0.5,0.3-1,1-1.4C231.5,226.3,231.7,226.2,231.9,226.2z" fill="#ffffff"/>
	<path d="M249.6,225.7c0.1,0,0.1,0,0.1,0v0.1c0,0.2-0.3,0.6-0.8,1c-0.4,0.3-0.8,0.4-1.3,0.5c-0.2,0-0.7,0.1-1.5,0.1   c0,0.1,0,0.1-0.1,0.2c-0.3,0.3-0.5,1-0.5,2.2c0,0.3,0,0.6,0,1c0,1-0.2,1.7-0.7,2.1c0.1,0,0.2,0,0.4,0h0.6c0.4,0,0.7-0.1,0.9-0.2   c0,0,0,0,0,0c-0.1,0.2-0.3,0.5-0.6,0.8c-0.4,0.3-0.7,0.5-1,0.5h-0.2c-0.1,0-0.4,0-0.9-0.1c0,0-0.2,0-0.4,0.1   c0.3-0.2,0.5-0.7,0.5-1.4c0-0.3,0-0.6,0.1-0.9v-1.2c0-1.3,0.2-2.2,0.6-2.6c0.3-0.3,0.6-0.5,0.7-0.5v0c-0.9-0.1-1.6-0.2-2.1-0.2   c-0.7,0-1.2,0.1-1.3,0.4c-0.1,0-0.2,0.2-0.2,0.5c0,0.1-0.1,0.2-0.2,0.2h-0.1c0,0-0.1-0.1-0.1-0.3c0-0.4,0.4-0.9,1.1-1.5   c0.4-0.3,1-0.4,1.7-0.4c0.4,0,1.4,0.1,3,0.3c0.1,0,0.2,0,0.5,0h0.1C248.5,226.2,249.1,226.1,249.6,225.7z" fill="#ffffff"/>
	<path d="M254.9,226L254.9,226c0.1,0,0.4,0.1,0.7,0.3c0.3,0.1,0.5,0.2,0.7,0.2h0.2c0.4,0,0.8-0.1,1.1-0.4h0.1v0.1   c0,0.4-0.2,0.7-0.7,1.2c-0.3,0.3-0.7,0.4-1.2,0.4c-0.5,0-0.9-0.2-1.3-0.5c-0.2,0.1-0.3,0.3-0.3,0.6v0.1c0,0.2,0.1,0.4,0.4,0.7   c0.2,0.1,0.5,0.3,0.9,0.4c0.9,0.3,1.6,0.8,1.9,1.4c0.1,0.2,0.1,0.3,0.1,0.5v0.1c0,0.7-0.3,1.5-1,2.5c-0.3,0.3-0.5,0.5-0.6,0.5h-0.1   c0,0-0.2-0.1-0.4-0.2c-0.5-0.3-1-0.4-1.4-0.4c-0.5,0-0.8,0.1-1,0.4c-0.1,0.1-0.2,0.1-0.2,0.1h0c0-0.3,0.2-0.6,0.5-1   c0.3-0.4,0.6-0.7,0.8-0.7c0.2-0.1,0.4-0.1,0.6-0.1c0.4,0,1,0.2,1.8,0.5h0c0.2-0.3,0.3-0.5,0.3-0.7c0-0.5-0.4-0.9-1.3-1.2   c-0.7-0.3-1.3-0.6-1.6-0.8c-0.4-0.3-0.6-0.6-0.6-0.8c0-0.1,0-0.1,0-0.1c0-0.6,0.5-1.5,1.6-2.9C254.8,226,254.9,226,254.9,226z" fill="#ffffff"/>
</g>
<rect x="99.7" y="227.6" width="44.5" height="5" fill="#ffffff"/>
<rect x="269.8" y="227.6" width="44.5" height="5" fill="#ffffff"/>
</svg>