<svg xmlns="http://www.w3.org/2000/svg" xmlns:xlink="http://www.w3.org/1999/xlink" version="1.1" id="Capa_1" x="0px" y="0px" viewBox="0 0 400 282.5" style="enable-background:new 0 0 400 282.5;" xml:space="preserve">
<style type="text/css">
	.st0{fill:#0070D1;}
	.st1{fill:#FFFFFF;}
	.st2{fill:#00579F;}
	.st3{fill:#FAA61A;}
	.st4{clip-path:url(#SVGID_2_);}
	.st5{fill:#FF5F01;}
	.st6{fill:#EA001B;}
	.st7{fill:#f79e1c;}
	.st8{fill:none;stroke:#ffffff;stroke-width:0.8778;stroke-miterlimit:10;}
	.st9{fill:#ffffff;}
	.st10{fill:#ffffff;}
</style>
<g>
	<g>
		<g>
			<path d="M219.3,73.1L219.3,73.1c-2.8-1.1-5.7-1.6-8.7-1.6l3.6-6.9c2.2-0.6,3.8-2.1,4.6-4.2c0.7-1.8,1.2-3.3,0.6-4.3     c-0.2-0.3-0.6-0.7-1.3-0.7c-0.7,0-1.4-0.1-2.1-0.1c1-2,2.1-3.9,3.3-5.7c1.2-1.7,0.7-4.1-0.9-4.6c-5.3-1.7-10.6-3.3-15.9-4.7     c-1.1-0.3-2.4-0.6-3.5,0.3c-1.1,0.8-1.6,2.5-1.8,4c-0.2,1.3-0.3,2.7-0.9,3.9c-0.5-0.3-0.9-0.6-1.4-1c-0.6-0.4-1.4-0.5-2.1-0.1     c-2,1.2-3,4.9-2.4,7.1c0.2,0.7,0.5,1.4,1,2l-1.8,6.7c-2.2-1.8-4.6-3.3-7.1-4.3l0,0c-6.4-2.5-13.8-1.9-19.4,1.4     c-7.2,4.3-11.6,13.5-11.2,23.2c0.3,7.7,3.2,15.7,9,24.7c3.8,5.9,10.8,15.6,12.9,18.4c0.7,1,1.8,1.8,2.9,2.2     c1.1,0.4,2.4,0.6,3.6,0.3c3.4-0.7,15.2-3.2,21.9-5c10.3-2.8,17.9-6.8,23.2-12.3c6.8-7,9.7-16.7,7.3-24.7     C230.9,81,225.7,75.6,219.3,73.1z M209.9,52.4c1,0,2-0.2,2.8-0.6c0.9-0.4,1.7-0.9,2.5-1.5c0.8-0.6,1.4-1.4,2-2.3     c-0.1,1.1-0.6,2.1-1.3,3c-0.7,0.9-1.7,1.6-2.7,2c-1.1,0.4-2.2,0.6-3.3,0.4c-1.1-0.2-2.2-0.6-3-1.3     C207.9,52.3,208.9,52.5,209.9,52.4z M200.2,43.8c0.2-0.3,0.5-0.6,0.9-0.9c0.3-0.2,0.7-0.4,1.1-0.4c-0.6,0.5-0.9,1.1-1.2,1.7     c-0.2,0.6-0.4,1.3-0.6,2c-0.1,0.7-0.2,1.4-0.3,2.1c0,0.7,0,1.4,0.3,2.1c-0.4-0.2-0.6-0.5-0.8-0.9c-0.2-0.4-0.3-0.7-0.4-1.1     c-0.1-0.8-0.1-1.6,0-2.4C199.4,45.2,199.7,44.5,200.2,43.8z M192,54c-0.5-1.7,0.4-4.5,1.7-5.2c0.1,0,0.1,0,0.2,0l0.1,0     c7,5.1,15.3,8,24.1,8.3l0,0c0.1,0.2,0,0.9-0.7,2.7c-0.6,1.6-1.9,2.8-3.6,3.2c-2.1,0.5-7.3-0.4-12-2.1     C196.2,58.9,192.6,56.3,192,54z M212.2,64.8l-3.5,6.7c-3.1,0.2-6.1,0.8-9.1,2c-0.7,0.3-1.3,0.6-2,0.9c-0.3-0.7-0.6-1.3-0.9-2     c-1.5-3-3.4-5.7-5.8-8l1.7-6.6c2.3,2.1,5.8,3.6,7.8,4.4c0.2,0.1,0.3,0.1,0.5,0.2C205.2,63.9,209.4,64.8,212.2,64.8z M224.3,110.8     c-5.2,5.3-12.5,9.1-22.5,11.8c-5.3,1.4-14.8,3.5-21.8,5c-1.9,0.4-3.8-0.4-4.9-1.9c-4.3-5.8-9.9-13.7-12.8-18.4     c-5.6-8.7-8.4-16.5-8.7-23.9c-0.4-9.2,3.7-17.7,10.4-21.7c5.1-3.1,12-3.6,18-1.3l0,0c5.6,2.2,10.5,6.8,13.4,12.7     c0.4,0.9,0.8,1.8,1.1,2.7l0.3,0.9l0.8-0.4c0.9-0.5,1.8-0.9,2.7-1.2c6.1-2.4,12.8-2.6,18.4-0.4l0,0c5.9,2.3,10.7,7.3,12.4,13.1     C233.4,95.2,230.7,104.2,224.3,110.8z" fill="#ffffff"/>
			<path d="M221.6,102.8c0.8-1.1,1.1-2.7,0.6-4c-0.4-1.1-1.2-2.2-2.4-3.2c-4.9-4.2-11.9-4.5-18.1-4.3l-0.3,0c-2.2,0-4.4,0.1-6.6,0     c-3.1-2.8-6.2-5.6-9.6-7.2c-5.3-2.4-11.6-3.5-17-1.5c0.1-2.8,1-5.6,2.4-8.1c0.2-0.4,0.5-0.7,0.8-1.2c1.1-1.5,2.7-3.7,0.5-5.6     c-1.4-1.1-2.9-1.5-4.4-1.2c-4.4,1-7.7,7.7-8.1,8.4c-2.2,4.7-2.6,9.9-1.1,14.3c0.5,1.6,1.2,2.8,2.2,3.7c0.3,0.3,0.6,0.5,0.9,0.7     c1.3,4,3.3,7.9,5.6,11.5c2.7,4.2,7.7,11.2,10.3,14.8c1.1,1.4,2.8,2.1,4.6,1.8c4.4-0.9,12.7-2.7,17.6-4c6.7-1.8,13.4-4.7,18.3-9.7     c1.5-1.5,2.7-3.2,3.7-5C221.5,102.9,221.6,102.9,221.6,102.8z M184.3,97.2c0.7,0.3,0.3,1.3-0.4,1.1     C183.2,98,183.6,96.9,184.3,97.2z M179,107.6c-0.1,0.3-0.1,0.5,0,0.8c0.1,0.3,0.2,0.6,0.4,0.8c0.1,0.1,0,0.2-0.1,0.2     c-0.3,0-0.5,0.1-0.8,0.2c-0.3,0.2-0.5,0.4-0.6,0.6c0,0.1-0.2,0.1-0.2,0c-0.1-0.3-0.2-0.5-0.5-0.7c-0.2-0.2-0.5-0.3-0.8-0.4     c-0.1,0-0.1-0.1,0-0.2c0.2-0.2,0.4-0.4,0.5-0.7c0.1-0.3,0.2-0.6,0.1-0.9c0-0.1,0.1-0.1,0.2-0.1c0.2,0.2,0.5,0.3,0.8,0.3     c0.3,0,0.6,0,0.9-0.1C178.9,107.4,179,107.5,179,107.6z M180,89c0.4-0.2,0.8-0.5,1.1-0.8c0.3-0.4,0.5-0.9,0.6-1.4     c0-0.1,0.2-0.2,0.3-0.1c0.3,0.3,0.7,0.6,1.1,0.8c0.5,0.2,1,0.2,1.5,0.2c0.1,0,0.2,0.1,0.2,0.3c-0.1,0.2-0.2,0.4-0.3,0.6     c-0.1,0.2-0.1,0.5-0.1,0.7c0,0.2,0,0.4,0,0.6c0,0.3,0.1,0.6,0.3,0.9c0.1,0.1,0,0.3-0.2,0.2c-0.4-0.1-0.9-0.1-1.4,0     c-0.5,0.1-1,0.4-1.3,0.7c-0.1,0.1-0.3,0-0.3-0.1c0-0.5-0.2-0.9-0.5-1.3c-0.3-0.4-0.7-0.8-1.1-1C179.8,89.3,179.8,89.1,180,89z      M175.3,102.2c-0.5-0.2-0.2-1,0.3-0.8C176.2,101.6,175.9,102.4,175.3,102.2z M172.3,87.3c0.4,0.1,0.2,0.7-0.2,0.6     C171.7,87.8,171.9,87.2,172.3,87.3z M170,93c0.5,0.2,0.2,1-0.3,0.8C169.2,93.6,169.5,92.8,170,93z M164.3,92.7     c-0.9,0.2-2-0.1-2.8-0.9c-0.7-0.7-1.3-1.6-1.7-3c-1.4-4-1-8.8,1-13.1c1.1-2.3,3.9-6.9,6.9-7.5c1.1-0.2,2.1,0,3,0.9     c0.9,0.8,0.7,1.5-0.7,3.3c-0.3,0.4-0.7,0.9-0.9,1.3c-1.8,3.2-2.8,7-2.6,10.7c0,0.5,0.1,1.1,0.1,1.6c0.1,1.2,0.2,2.4,0,3.5     C166.6,90.8,165.7,92.4,164.3,92.7z M165,97.4c-0.6-0.2-0.2-1.1,0.3-0.9C165.9,96.7,165.5,97.6,165,97.4z M169.2,102.5     c-0.5-1.2-1-2.4-1.5-3.6c-0.4-1.3-0.6-2.9-1.2-4.1c0.9,2,1.9,4,2.9,5.9c3,5.8,6.7,11.1,10.5,16.4     C175.3,113.1,171.7,108,169.2,102.5z M183.4,117.6c-0.4-0.1-0.1-0.7,0.2-0.6C184,117.2,183.8,117.7,183.4,117.6z M194.4,95.1     c0.6,0.2,0.2,1.2-0.4,0.9C193.5,95.8,193.8,94.9,194.4,95.1z M190.2,107.4c-0.4-0.2-0.2-0.9,0.3-0.7     C190.9,106.8,190.6,107.5,190.2,107.4z M190.5,117.7c-0.7-0.3-0.3-1.4,0.4-1.1C191.6,116.8,191.2,117.9,190.5,117.7z      M195.2,112.9c-0.6-0.2-0.2-1.1,0.3-0.9C196.1,112.2,195.7,113.1,195.2,112.9z M204.4,101.1c-0.8-0.3-0.3-1.6,0.5-1.2     C205.6,100.1,205.2,101.4,204.4,101.1z M206.4,112.3c-0.4-0.2-0.8-0.4-1.3-0.4c-0.5,0-1,0.1-1.5,0.3c-0.1,0.1-0.3,0-0.2-0.2     c0.1-0.4,0.1-0.9,0-1.4c-0.1-0.5-0.4-0.9-0.8-1.3c-0.1-0.1,0-0.3,0.1-0.3c0.5,0,0.9-0.2,1.3-0.5c0.4-0.3,0.8-0.7,1-1.1     c0.1-0.1,0.2-0.1,0.3,0c0.2,0.4,0.5,0.8,0.8,1.1c0.4,0.3,0.9,0.5,1.4,0.6c0.1,0,0.2,0.2,0.1,0.3c-0.3,0.3-0.6,0.7-0.8,1.2     c-0.2,0.5-0.2,1-0.1,1.5C206.7,112.3,206.5,112.4,206.4,112.3z M212.8,107.9c-0.4-0.1-0.1-0.7,0.2-0.6     C213.4,107.5,213.1,108,212.8,107.9z M220.7,102.1C220.7,102.1,220.7,102.1,220.7,102.1c-0.3,0-0.6,0-0.9,0     c-6.5-0.4-12.8-2.7-18.4-5.8c-1.8-1-3.5-2.3-5.1-3.8c1.7,0,3.5,0,5.2,0l0.3,0c6-0.1,12.7,0.1,17.3,4c1,0.9,1.7,1.8,2,2.7     C221.5,100.2,221.3,101.3,220.7,102.1z" fill="#ffffff"/>
			<path d="M209.6,97.9c-1.5-0.4-2.9-1-4.3-1.5c-1.4-0.5-2.8-1.1-4.3-1.7c1.3,0.9,2.6,1.6,4,2.3c1.4,0.7,2.9,1.2,4.3,1.7     c1.5,0.5,3,0.8,4.5,1.1c1.5,0.3,3.1,0.4,4.6,0.4c-1.5-0.3-3-0.6-4.5-1C212.5,98.8,211,98.4,209.6,97.9z" fill="#ffffff"/>
			<path d="M161,67.6c1.8-1.9,4-3.5,6.4-4.5c2.4-1,5.1-1.4,7.7-1.3c2.6,0.1,5.3,0.7,7.7,1.9c-2.3-1.5-4.9-2.3-7.7-2.6     c-2.7-0.2-5.5,0.2-8.1,1.2c-2.5,1.1-4.8,2.7-6.6,4.8c-1.8,2.1-3.1,4.6-3.7,7.2C157.7,71.8,159.2,69.5,161,67.6z" fill="#ffffff"/>
			<path d="M156.3,77.5c0.1,0,0.3,0,0.4-0.1c0.1-0.1,0.2-0.1,0.3-0.2c0.1-0.1,0.2-0.2,0.2-0.3c0-0.1,0-0.2,0.1-0.3     c0-0.2,0-0.4-0.1-0.5c0-0.1-0.1-0.2-0.1-0.2c-0.1-0.1-0.3-0.3-0.4-0.3c-0.1-0.1-0.3-0.1-0.4-0.1c-0.1,0-0.3,0-0.4,0.1     c-0.1,0.1-0.2,0.1-0.3,0.2c-0.1,0.1-0.2,0.2-0.2,0.3c0,0.1,0,0.2-0.1,0.3c0,0.2,0,0.4,0.1,0.5c0,0.1,0.1,0.2,0.1,0.2     c0.1,0.1,0.3,0.3,0.4,0.3C156,77.5,156.1,77.6,156.3,77.5z" fill="#ffffff"/>
			<path d="M155.9,78.4c-0.8-0.3-1.3,0.9-0.5,1.2C156.2,80,156.7,78.7,155.9,78.4z" fill="#ffffff"/>
			<path d="M155.5,81.2c-0.5-0.2-0.7,0.5-0.3,0.7C155.6,82.1,155.9,81.4,155.5,81.2z" fill="#ffffff"/>
			<path d="M155.6,82.9c-0.6-0.2-1,0.7-0.4,1C155.9,84.1,156.2,83.2,155.6,82.9z" fill="#ffffff"/>
			<path d="M155.8,84.9c-1.1-0.4-1.7,1.2-0.6,1.7C156.2,86.9,156.9,85.3,155.8,84.9z" fill="#ffffff"/>
			<path d="M156,88.1c-0.4-0.1-0.6,0.4-0.2,0.6C156.2,88.7,156.4,88.2,156,88.1z" fill="#ffffff"/>
			<path d="M194.5,121.4c-2.2,0.5-4.3,1-6.5,1.5l-6.5,1.4c2.2-0.1,4.5-0.4,6.7-0.8c2.2-0.3,4.4-0.8,6.6-1.3c2.2-0.5,4.3-1.1,6.5-1.8     c2.1-0.7,4.2-1.5,6.3-2.4l-6.5,1.8C198.8,120.3,196.7,120.9,194.5,121.4z" fill="#ffffff"/>
			<path d="M210.1,116.6c-0.8,0-0.3,1.4,0.4,0.9C211,117.1,210.5,116.6,210.1,116.6z" fill="#ffffff"/>
			<path d="M213.1,116c-0.3-0.6-1.2-0.8-1.6-0.2c-0.3,0.4-0.2,1,0.1,1.4c0.1,0.1,0.2,0.1,0.3,0.2c0.6,0.2,1.2-0.2,1.3-0.8     C213.2,116.3,213.2,116.1,213.1,116z" fill="#ffffff"/>
			<path d="M214.6,114.5c-0.7-0.3-1.1,0.8-0.4,1C214.9,115.8,215.3,114.8,214.6,114.5z" fill="#ffffff"/>
			<path d="M216.9,113.6c0,0,0-0.1-0.1-0.1c0,0-0.1-0.1-0.1-0.1c0,0-0.1,0-0.1-0.1c0,0-0.1,0-0.1,0c-0.1,0-0.1,0-0.2,0     c0,0-0.1,0-0.1,0.1c-0.1,0-0.1,0.1-0.2,0.1l0,0c0,0,0,0,0,0.1c0,0.1-0.1,0.1-0.1,0.2l0,0l0,0.1c0,0,0,0.1,0,0.1     c0,0,0,0.1,0.1,0.1c0,0.1,0.1,0.1,0.1,0.2c0,0,0.1,0,0.1,0.1c0,0,0.1,0,0.1,0c0,0,0.1,0,0.1,0c0,0,0.1,0,0.1,0     c0.1,0,0.1-0.1,0.2-0.1c0,0,0.1-0.1,0.1-0.1c0,0,0-0.1,0.1-0.1c0,0,0-0.1,0-0.1C216.9,113.7,216.9,113.7,216.9,113.6z" fill="#ffffff"/>
			<path d="M219.9,112.4c0.1,0,0-0.1,0-0.2c-0.2-0.3-0.7-0.9-0.9-0.9c-0.6-0.2-1.2,0.1-1.4,0.6c-0.7,1.5,1.8,2.4,2.2,0.7     C219.9,112.5,219.9,112.5,219.9,112.4C219.9,112.4,219.9,112.4,219.9,112.4z" fill="#ffffff"/>
			<path d="M220.9,110.5c-0.4-0.1-0.6,0.4-0.2,0.6C221.1,111.2,221.3,110.6,220.9,110.5z" fill="#ffffff"/>
			<path d="M208.6,117.4c-0.4-0.1-0.6,0.4-0.2,0.6C208.7,118.1,208.9,117.6,208.6,117.4z" fill="#ffffff"/>
			<path d="M223.5,81.2c-1.9-1.9-4.3-3.2-6.8-3.9c-2.5-0.7-5.3-0.8-7.8-0.1c2.6-0.4,5.2-0.1,7.6,0.7c2.4,0.8,4.7,2.1,6.5,3.9     c1.8,1.8,3.1,4,4,6.4c0.8,2.4,1.1,5,0.8,7.6c0.6-2.5,0.5-5.3-0.2-7.8C226.7,85.5,225.4,83.1,223.5,81.2z" fill="#ffffff"/>
			<path d="M194.3,61.3c0-0.4,0-0.8-0.1-1.3l0,0l0,0l0,0c-0.3,0.8-0.6,1.6-0.8,2.3c-0.2,0.8-0.5,1.6-0.7,2.4l0,0l0.1,0l0,0     c0.4-0.3,0.7-0.6,0.9-1c0.2-0.4,0.4-0.7,0.5-1.1C194.2,62.1,194.3,61.7,194.3,61.3z" fill="#ffffff"/>
			<path d="M203.5,70.5c0.8-0.2,1.6-0.3,2.4-0.3c0.8-0.1,1.6-0.1,2.5-0.1c-0.8-0.3-1.6-0.5-2.5-0.5c-0.9-0.1-1.7,0-2.6,0.2     c-0.8,0.2-1.7,0.5-2.4,0.9c-0.8,0.4-1.5,0.9-2.1,1.5c0.8-0.3,1.5-0.7,2.3-0.9C201.9,70.9,202.7,70.6,203.5,70.5z" fill="#ffffff"/>
			<path d="M221.5,82.9c-0.6,0.3-1.3,0.5-2.1,0.5c-0.8,0-1.6-0.2-2.2-0.6c-0.2-0.1-0.4,0-0.4,0.3c0.1,0.7,0,1.4-0.2,2.1     c-0.3,0.8-0.7,1.4-1.3,1.9c-0.2,0.1-0.1,0.4,0.1,0.5c0.7,0.1,1.4,0.4,2,0.8c0.6,0.5,1.1,1.1,1.4,1.8c0.1,0.2,0.4,0.2,0.5,0     c0.3-0.6,0.8-1.2,1.4-1.6c0.7-0.5,1.4-0.7,2.2-0.8c0.2,0,0.3-0.3,0.2-0.4c-0.5-0.5-0.9-1.1-1.1-1.8c-0.2-0.8-0.2-1.6-0.1-2.3     C221.9,82.9,221.7,82.8,221.5,82.9z" fill="#ffffff"/>
			<path d="M215.6,85.1c0.3-0.8,0.2-1.8-0.3-2.5c0.2,0.8,0.2,1.6-0.1,2.3c-0.3,0.7-0.8,1.3-1.5,1.8     C214.6,86.6,215.3,85.9,215.6,85.1z" fill="#ffffff"/>
			<path d="M222.6,83.3c-0.4,0.6-0.4,1.5-0.1,2.2c0.3,0.7,0.8,1.3,1.5,1.5c-0.5-0.5-0.9-1.1-1.1-1.7C222.6,84.7,222.6,84,222.6,83.3     z" fill="#ffffff"/>
			<path d="M221,89.8c-0.6-0.2-0.9,0.7-0.3,0.9C221.2,90.9,221.6,90,221,89.8z" fill="#ffffff"/>
			<path d="M220.7,92.9c0.5,0.2,0.8-0.6,0.3-0.8C220.5,91.9,220.1,92.7,220.7,92.9z" fill="#ffffff"/>
			<path d="M220,95c0,0.1,0.1,0.1,0.1,0.2c0.1,0.1,0.3,0.2,0.4,0.3c0.1,0.1,0.3,0.1,0.4,0.1c0.1,0,0.3,0,0.4-0.1     c0.1,0,0.2-0.1,0.3-0.2c0.1-0.1,0.2-0.2,0.2-0.3c0-0.1,0-0.2,0.1-0.3c0-0.2,0-0.3-0.1-0.5c0-0.1-0.1-0.1-0.1-0.2     c-0.1-0.1-0.3-0.2-0.4-0.3c-0.1-0.1-0.3-0.1-0.4-0.1c-0.1,0-0.3,0-0.4,0.1c-0.1,0-0.2,0.1-0.3,0.2c-0.1,0.1-0.2,0.2-0.2,0.3     c0,0.1,0,0.2-0.1,0.3C219.9,94.6,219.9,94.8,220,95z" fill="#ffffff"/>
		</g>
		<g>
			<polygon points="178.5,127.8 236.4,128.5 178.5,129.2    " fill="#ffffff"/>
		</g>
		<g>
			<polygon points="186.4,126.5 244.3,127.2 186.4,127.9    " fill="#ffffff"/>
		</g>
		<g>
			<polygon points="192.7,125.2 250.6,125.9 192.7,126.6    " fill="#ffffff"/>
		</g>
		<g>
			<polygon points="197.8,124 255.7,124.7 197.8,125.4    " fill="#ffffff"/>
		</g>
		<g>
			<polygon points="207,121.3 255.6,122 207,122.7    " fill="#ffffff"/>
		</g>
		<g>
			<polygon points="210.2,119.9 250.6,120.6 210.2,121.3    " fill="#ffffff"/>
		</g>
		<g>
			<polygon points="202.9,122.7 260.8,123.4 202.9,124.1    " fill="#ffffff"/>
		</g>
		<g>
			<polygon points="213.6,118.6 244.3,119.3 213.6,120    " fill="#ffffff"/>
		</g>
		<g>
			<polygon points="216.2,117.3 236.4,118 216.2,118.7    " fill="#ffffff"/>
		</g>
	</g>
	<path d="M166.6,182c0.2-0.5,0.6-1.1,1.2-1.6c0.6-0.6,1.3-1,2.1-1.4c-0.4-1-0.7-1.9-0.7-2.6c0-0.7,0.2-1.4,0.7-1.9   c0.5-0.5,1.1-0.9,1.9-1c0.2,0,0.5,0,0.7,0c0.3,0,0.5,0,0.8,0.1c0.3,0.1,0.5,0.2,0.7,0.4c0.2,0.2,0.4,0.4,0.5,0.7   c0.1,0.4,0.2,0.8,0.1,1.3c0,0.3-0.2,0.6-0.4,0.9c-0.2,0.3-0.5,0.6-0.8,0.8s-0.6,0.4-0.9,0.6c-0.3,0.2-0.6,0.3-0.9,0.4l0.2,0.4   c0,0.1,0.1,0.2,0.1,0.2c0.5,1,1.1,2,2,3c0.9-1,1.4-1.9,1.6-2.7c0.1-0.3,0-0.6-0.1-0.9c-0.1-0.3-0.3-0.5-0.7-0.6V178   c2.2,0,3.5,0,3.7,0v0.3c-0.4,0-0.7,0.1-0.9,0.2c-0.2,0.2-0.4,0.4-0.7,0.9c-0.1,0.2-0.2,0.4-0.4,0.7c-0.2,0.4-0.4,0.8-0.7,1.2   c-0.3,0.5-0.7,1-1.2,1.6c0.7,0.8,1.4,1.3,1.9,1.5c0.7,0.2,1.2,0.2,1.5,0c0.3-0.2,0.6-0.6,0.8-1.2l0.5,0.3c0,0.1-0.1,0.3-0.1,0.4   c-0.1,0.2-0.2,0.4-0.4,0.7c-0.2,0.3-0.4,0.5-0.7,0.7c-0.3,0.2-0.7,0.4-1.1,0.5c-1.1,0.2-2.3-0.3-3.6-1.7c-1.2,1.1-2.4,1.7-3.6,1.8   c-1.2,0.1-2.2-0.3-3-1.2c-0.3-0.3-0.4-0.7-0.4-1.3S166.3,182.6,166.6,182z M168.6,184.1c0.4,0.4,0.9,0.7,1.5,0.8   c0.7,0.1,1.6-0.3,2.6-1.1c-0.8-1-1.6-2.1-2.3-3.5l0-0.1c-0.1-0.2-0.2-0.4-0.3-0.6c-0.6,0.4-1.1,0.8-1.5,1.4   c-0.4,0.6-0.5,1.1-0.6,1.7C168.1,183.2,168.3,183.7,168.6,184.1z M173.6,176c0.1-0.6,0-1.1-0.2-1.5c-0.2-0.4-0.6-0.6-1-0.6   c-0.4,0-0.8,0.1-1.1,0.4c-0.4,0.3-0.5,0.8-0.5,1.4c0,0.5,0.3,1.3,0.8,2.4C172.7,177.6,173.4,176.8,173.6,176z" fill="#ffffff"/>
	<g>
		<path d="M135.3,208L135.3,208c-0.1-0.3-0.2-0.6-0.4-0.8c-0.2-0.2-0.5-0.3-0.9-0.3c0,0-0.1,0-0.2,0s-0.1,0-0.2,0v-0.2h1.8    L135.3,208z M135.3,218.5l0.2,1.4h-1.8v-0.2c0,0,0.1,0,0.2,0s0.1,0,0.2,0c0.3,0,0.6-0.1,0.9-0.4    C135.1,219.1,135.2,218.8,135.3,218.5L135.3,218.5z M137.2,206.6v13.3h-2v-13.3H137.2z M137.2,218.5L137.2,218.5    c0.1,0.3,0.2,0.6,0.4,0.8c0.2,0.2,0.5,0.4,0.9,0.4c0,0,0.1,0,0.3,0v0.2h-1.8L137.2,218.5z M139.3,206.6c1.1,0,2,0.2,2.7,0.5    c0.8,0.3,1.3,0.7,1.7,1.3c0.4,0.6,0.6,1.2,0.6,2c0,0.9-0.2,1.6-0.5,2.2c-0.4,0.6-0.9,1.1-1.5,1.4c-0.6,0.3-1.3,0.5-2.1,0.5    c-0.8,0-1.5-0.2-2.2-0.6v-0.2c0.4,0.1,0.8,0.1,1.1,0.1c0.3,0,0.7-0.1,1.1-0.2s0.7-0.4,1.1-0.7c0.3-0.3,0.6-0.8,0.8-1.4    c0.1-0.2,0.1-0.4,0.1-0.6c0-0.2,0-0.4,0-0.6c0-0.9-0.3-1.6-0.9-2.1c-0.6-0.5-1.4-0.8-2.4-0.8h-1.8c-0.1-0.2-0.1-0.5-0.2-0.7H139.3    z" fill="#ffffff"/>
		<path d="M162.7,206.3c1.1,0,2.1,0.2,3,0.5s1.7,0.8,2.4,1.4c0.7,0.6,1.2,1.3,1.6,2.2c0.4,0.8,0.6,1.8,0.6,2.8s-0.2,2-0.6,2.8    c-0.4,0.8-0.9,1.6-1.6,2.2c-0.7,0.6-1.5,1.1-2.4,1.4c-0.9,0.3-1.9,0.5-3,0.5c-1.1,0-2.1-0.2-3-0.5c-0.9-0.3-1.7-0.8-2.4-1.4    c-0.7-0.6-1.2-1.3-1.6-2.2c-0.4-0.8-0.6-1.8-0.6-2.8s0.2-2,0.6-2.8c0.4-0.8,0.9-1.6,1.6-2.2c0.7-0.6,1.5-1.1,2.4-1.4    S161.6,206.3,162.7,206.3z M162.7,219.5c1,0,2-0.3,2.8-0.8s1.4-1.3,1.9-2.2s0.7-2,0.7-3.3c0-1.3-0.2-2.3-0.7-3.3    c-0.5-0.9-1.1-1.6-1.9-2.2s-1.7-0.8-2.8-0.8c-1,0-1.9,0.3-2.7,0.8c-0.8,0.5-1.5,1.2-1.9,2.2c-0.5,0.9-0.7,2-0.7,3.3    c0,1.2,0.2,2.3,0.7,3.3c0.5,0.9,1.1,1.7,1.9,2.2C160.8,219.2,161.7,219.5,162.7,219.5z" fill="#ffffff"/>
		<path d="M179.9,206.3c0.1,0,0.3,0.1,0.6,0.2c0.3,0.1,0.6,0.1,0.9,0.1c0.3,0,0.6,0.1,0.9,0.1l-2.4,0.2V206.3z M192.2,206.6v0.7    h-12.4v-0.7H192.2z M181.5,207.3L181.5,207.3c-0.4,0.1-0.8,0.2-1,0.5c-0.3,0.3-0.4,0.6-0.4,1v0.3h-0.2v-1.8H181.5z M185.1,218.5    v1.4h-1.6v-0.2c0,0,0.1,0,0.3,0c0.3,0,0.6-0.1,0.9-0.4C184.9,219.1,185,218.8,185.1,218.5L185.1,218.5z M187.1,206.7v13.2h-2    v-13.2H187.1z M187,218.5L187,218.5c0.1,0.3,0.2,0.6,0.4,0.8c0.3,0.2,0.5,0.4,0.9,0.4h0.2v0.2H187V218.5z M192.2,206.3v0.6    l-2.4-0.2c0.3,0,0.6,0,0.9-0.1c0.3,0,0.6-0.1,0.9-0.1C191.9,206.4,192.1,206.3,192.2,206.3z M192.2,207.3v1.8H192v-0.3    c0-0.4-0.1-0.8-0.4-1c-0.3-0.3-0.6-0.4-1-0.4v0H192.2z" fill="#ffffff"/>
		<path d="M204.3,208.1L204.3,208.1c-0.1-0.3-0.2-0.6-0.5-0.9c-0.3-0.2-0.6-0.3-1-0.3h-0.3v-0.2h1.8V208.1z M204.3,218.5v1.4h-1.8    v-0.2c0.2,0,0.3,0,0.3,0c0.4,0,0.7-0.1,1-0.4C204.1,219.1,204.2,218.8,204.3,218.5L204.3,218.5z M206.2,206.6v13.3h-2v-13.3H206.2    z M206.1,208.1v-1.4h1.8l0,0.2h-0.3c-0.4,0-0.7,0.1-1,0.3S206.2,207.7,206.1,208.1L206.1,208.1z M206.1,218.5L206.1,218.5    c0.1,0.3,0.2,0.6,0.5,0.8c0.3,0.2,0.6,0.4,1,0.4h0.3l0,0.2h-1.8V218.5z" fill="#ffffff"/>
		<path d="M226.1,206.3c1.1,0,2.1,0.2,3,0.5s1.7,0.8,2.4,1.4c0.7,0.6,1.2,1.3,1.6,2.2c0.4,0.8,0.6,1.8,0.6,2.8s-0.2,2-0.6,2.8    c-0.4,0.8-0.9,1.6-1.6,2.2c-0.7,0.6-1.5,1.1-2.4,1.4c-0.9,0.3-1.9,0.5-3,0.5c-1.1,0-2.1-0.2-3-0.5c-0.9-0.3-1.7-0.8-2.4-1.4    c-0.7-0.6-1.2-1.3-1.6-2.2c-0.4-0.8-0.6-1.8-0.6-2.8s0.2-2,0.6-2.8c0.4-0.8,0.9-1.6,1.6-2.2c0.7-0.6,1.5-1.1,2.4-1.4    S225,206.3,226.1,206.3z M226.1,219.5c1,0,2-0.3,2.8-0.8s1.4-1.3,1.9-2.2s0.7-2,0.7-3.3c0-1.3-0.2-2.3-0.7-3.3    c-0.5-0.9-1.1-1.6-1.9-2.2s-1.7-0.8-2.8-0.8c-1,0-1.9,0.3-2.7,0.8c-0.8,0.5-1.5,1.2-1.9,2.2c-0.5,0.9-0.7,2-0.7,3.3    c0,1.2,0.2,2.3,0.7,3.3c0.5,0.9,1.1,1.7,1.9,2.2C224.2,219.2,225.1,219.5,226.1,219.5z" fill="#ffffff"/>
		<path d="M245.7,218.5v1.4H244v-0.2h0.4c0.3,0,0.6-0.1,0.9-0.3C245.5,219.1,245.6,218.9,245.7,218.5L245.7,218.5z M245.6,206.3    l1.7,1.9l0,11.7h-1.7V209c0-0.8-0.1-1.7-0.2-2.7H245.6z M245.6,206.3l12.5,11.5l0.2,2.4l-12.5-11.5L245.6,206.3z M247.3,218.5    c0,0.3,0.1,0.6,0.4,0.8c0.2,0.2,0.5,0.3,0.9,0.3h0.4v0.2h-1.7L247.3,218.5L247.3,218.5z M256.7,208c0-0.3-0.1-0.6-0.4-0.8    c-0.2-0.2-0.5-0.3-0.9-0.3h-0.4v-0.2h1.7L256.7,208L256.7,208z M258.3,206.6v10.8c0,0.5,0,0.9,0,1.4c0,0.4,0.1,0.9,0.2,1.4h-0.2    l-1.7-2v-11.6H258.3z M258.3,208v-1.4h1.7v0.2h-0.4c-0.3,0-0.6,0.1-0.9,0.3C258.5,207.4,258.3,207.7,258.3,208L258.3,208z" fill="#ffffff"/>
		<path d="M274.6,206.3c0.4,0,0.7,0,1.1,0c0.3,0,0.7,0.1,1,0.1s0.5,0.1,0.8,0.1c0.2,0.1,0.4,0.1,0.5,0.1l-0.1,2.4h-0.2    c0-0.6-0.2-1.1-0.7-1.5c-0.4-0.4-1.1-0.5-2-0.5c-0.7,0-1.4,0.2-1.8,0.6c-0.5,0.4-0.7,0.8-0.7,1.4c0,0.2,0,0.4,0.1,0.6    s0.2,0.4,0.4,0.6c0.2,0.2,0.4,0.4,0.6,0.5l4.1,3c0.4,0.3,0.8,0.7,1,1.1c0.2,0.5,0.3,1,0.3,1.5c0,0.7-0.2,1.3-0.6,1.9    c-0.4,0.6-0.9,1-1.5,1.3c-0.6,0.3-1.4,0.5-2.2,0.5c-0.5,0-1,0-1.5-0.1c-0.5-0.1-1-0.2-1.4-0.4c-0.4-0.2-0.8-0.4-1-0.6    c-0.1-0.2-0.1-0.5-0.1-0.9c0-0.4,0-0.7,0.1-1.1c0.1-0.4,0.2-0.7,0.3-1h0.2c-0.1,0.7,0,1.2,0.3,1.7c0.3,0.5,0.7,0.9,1.2,1.2    c0.5,0.3,1.1,0.4,1.8,0.4c0.9,0,1.6-0.2,2.1-0.7c0.5-0.4,0.7-1,0.7-1.6c0-0.4-0.1-0.7-0.3-1s-0.4-0.6-0.8-0.9l-4-2.9    c-0.5-0.4-0.9-0.8-1.1-1.3c-0.2-0.5-0.3-1-0.3-1.5c0-0.6,0.2-1.2,0.5-1.7c0.3-0.5,0.8-0.9,1.3-1.2    C273.3,206.5,273.9,206.3,274.6,206.3z M277.9,206.5v0.4h-1.8v-0.4H277.9z" fill="#ffffff"/>
	</g>
	<g>
		<path d="M116.5,218.8c-13.4-0.6-28.6-18.2-40.4-18.2H64.7v-1c2.6,0,3-2.3,3.1-3.5v-19c-0.1-0.6-0.5-1.8-2.3-2.7    c-0.1,0-0.1-0.1,0-0.2c1.8-0.7,2.2-2.1,2.3-2.6v-18c-0.1-1.1-0.5-3.5-3.1-3.5v-1h13.2v1c-2.5,0-3,2.3-3.1,3.5v18    c0.1,0.6,0.5,1.9,2.2,2.6c0.1,0.1,0.1,0.2,0,0.2c-1.7,0.8-2.1,2.1-2.2,2.7v22.1h1.4c16.4,0,26.7,13.8,40,13.8    c4.1,0,6.3-1.3,7.4-2.8c-1.1-0.1-2.1-1-2.1-2.1c0-1.2,1-2.1,2.1-2.1c0.6,0,1.1,0.2,1.5,0.6C127.6,208.7,129.2,219.4,116.5,218.8z" fill="#ffffff"/>
		<path d="M113.5,180.9c-1.5,0.7-2,1.8-2.1,2.5c-0.8,14.4-8.6,15.1-11.7,15.1c-3.2,0-10.8-0.8-11.7-14.8v-0.1    c-0.1-0.6-0.5-1.8-2.3-2.7c-0.1,0-0.1-0.1,0-0.2c1.8-0.7,2.1-2.1,2.3-2.7c0.8-14.1,8.5-14.9,11.7-14.9c3.2,0,10.9,0.8,11.7,15.2    c0.1,0.6,0.6,1.8,2.1,2.4C113.6,180.8,113.6,180.9,113.5,180.9z M104.5,183.4c-0.1-0.6-0.6-1.8-2.2-2.5c-0.1,0-0.1-0.1,0-0.2    c1.6-0.6,2.1-1.8,2.2-2.5c-0.4-12.5-3.1-13.7-4.9-13.7s-4.6,1.2-4.9,13.8c0.1,0.6,0.6,1.8,2.2,2.4c0.1,0.1,0.1,0.2,0,0.2    c-1.6,0.7-2.1,1.8-2.2,2.5c0.4,12.6,3.1,13.7,4.9,13.7S104.1,196,104.5,183.4z" fill="#ffffff"/>
		<path d="M139.3,163.1v1c-2.3,0-3.1,1.8-3.4,3.1l-5.7,27.9c-0.1,1.3,0.1,2.5,2.2,2.5v1H124c-1.1-0.1-1.9-0.8-2.1-1.9l-2.5-12.7    c-0.2-1.3-1.7-2.6-3.3-3c-0.1,0-0.1-0.1,0-0.2c1.8-0.7,2.2-2,2.1-3.4l-1.9-9.7c-0.2-1.2-0.9-3.5-3.5-3.5v-1h13.2v1    c-2.6,0-2.8,2.3-2.5,3.5l5.5,27.9l5.7-28.4c0.1-1.3-0.4-3-2.6-3v-1H139.3z" fill="#ffffff"/>
		<path d="M164.9,193.9l-1.5,4.7h-22.3v-1c2.6,0,3-2.3,3.1-3.5v-10.5c-0.1-0.6-0.5-1.8-2.3-2.7c-0.1,0-0.1-0.1,0-0.2    c1.8-0.7,2.2-2.1,2.3-2.7v-10.4c-0.1-1.2-0.5-3.5-3.1-3.5v-1h20.4l1.4,4.7h-1.1c0,0-0.7-3.3-5.3-3.3h-5.3v15.6h4.5    c0.8-0.1,3.2-0.4,3.2-2.7h0.8v6.7h-0.8c0-2.4-2.5-2.6-3.3-2.6h-4.5v15.6h7.3c4.7,0,5.4-3.3,5.4-3.3H164.9z" fill="#ffffff"/>
		<path d="M204.2,152.1c-3,0-6.6-0.4-10.7-1.1c-0.2,0-0.5-0.1-0.7-0.1c-1.7-0.1-1.8,1.5-1.9,2.5v18.2c0.1,0.6,0.5,1.8,2.2,2.6    c0.1,0.1,0.1,0.2,0,0.3c-1.7,0.7-2.1,2.1-2.2,2.6v17c0.1,1.2,0.6,3.5,3.1,3.5v1h-13.2v-1c2.5,0,3-2.3,3.1-3.5v-16.9    c-0.1-0.6-0.5-1.9-2.3-2.6c-0.1-0.1-0.1-0.2,0-0.3c1.8-0.8,2.2-2.1,2.3-2.6v-18.1c-0.1-1.1-0.5-4.1-2.7-4.9    c-11.2-2.3-22.6-5-28.3-5c-5.2,0-7.3,1.7-8.1,3.3c0.1,0,0.1,0,0.1,0c1,0,1.7,0.8,1.7,1.7c0,1-0.7,1.7-1.7,1.7    c-0.4,0-0.8-0.1-1.2-0.5c-3-2.1-4.8-12.8,7.7-12.8c13.3,0,40.3,13.2,52.2,13.2c10.9,0,6.8-9,6.8-9    C215.7,142,215.4,152.1,204.2,152.1z" fill="#ffffff"/>
		<path d="M220,193.9l-1.5,4.7h-22.3v-1c2.6,0,3-2.3,3.1-3.5v-10.5c-0.1-0.6-0.5-1.8-2.3-2.7c-0.1,0-0.1-0.1,0-0.2    c1.8-0.7,2.2-2.1,2.3-2.7v-10.4c-0.1-1.2-0.5-3.5-3.1-3.5v-1h20.4l1.4,4.7h-1.1c0,0-0.7-3.3-5.3-3.3h-5.3v15.6h4.5    c0.8-0.1,3.2-0.4,3.2-2.7h0.8v6.7h-0.8c0-2.4-2.5-2.6-3.3-2.6h-4.5v15.6h7.3c4.7,0,5.4-3.3,5.4-3.3H220z" fill="#ffffff"/>
		<path d="M248.5,197.6v1h-13.2v-1c2.6,0,2.8-2.3,2.6-3.5l-0.4-2.1c0,0-2.8-7.6-8.4-9.3l-2.4,11.9c-0.1,1.3,0.4,3,2.6,3v1h-7.5v-1    c2.3,0,3.1-1.8,3.5-3.1l2.4-12c-0.3-0.1-0.5-0.1-0.7-0.1c-4.3,0-5.2,2.8-5.2,2.8s-0.1-6.6,5.5-6.6c0.4,0,0.8,0.1,1.1,0.1l2.4-12.1    c0.1-1.3-0.1-2.5-2.1-2.5v-1c0,0,8.3,0,8.3,0c1.1,0,2,0.9,2.2,1.9l2.5,12.7c0,0,0.9,2.1,3.2,3c0.1,0.1,0.1,0.2,0,0.2    c-2.3,1.1-2,3-2,3l2,10.1C245.2,195.2,245.9,197.6,248.5,197.6z M236.4,186.7l-4-20.5l-2.6,12.9    C232.8,180.4,235,183.8,236.4,186.7z" fill="#ffffff"/>
		<path d="M277.5,197.6v1h-8.2c-0.7,0-1.3-0.4-1.6-1.1l-5.6-12.8h-1.8v9.6c0.1,1.2,0.7,3.3,3.1,3.3v1h-13.2v-1c2.6,0,3-2.3,3.1-3.5    v-10.5c-0.1-0.6-0.5-2-2.3-2.7c-0.1,0-0.1-0.1,0-0.2c1.8-0.8,2.2-2.1,2.3-2.7v-10.4c-0.1-1.2-0.5-3.5-3.1-3.5v-1h14.1    c9.3,0,11,6.4,11,10.7c0,4.4-1.6,10.8-11,10.8h-0.5c1,0.8,3,1.8,6.2,0.9l4,9.3C274.6,196.1,275.5,197.6,277.5,197.6z M260.3,183.3    h2.1c3,0,6.2-1.2,6.2-9.4c0-8.1-3.2-9.3-6.2-9.3h-2.1V183.3z" fill="#ffffff"/>
		<path d="M297.7,207c-22.1,0-23.1-26.4-9-27.4c9.3-0.6,9.6,11.4,5.8,11.4c-0.8,0-1.6-0.6-1.6-1.6c0-0.8,0.6-1.4,1.4-1.5    c-0.8-0.8-1.9-1.6-4-1.6c-8.9,0-8.8,19.2,7.4,19.2c8.7,0,13.4-7.8,12.4-14.4c-0.5-3.9-3.9-7-8-10c-0.6-0.1-1.6-0.1-2.7,0.6    c-0.1,0.1-0.2,0-0.2-0.1c0.3-1.2,0.1-2.2-0.3-2.7c-6.1-4.1-12.5-8.2-13.4-13.9C284,155,291.7,149,300.6,149    c4.7,0,8.4,2.3,10.9,5.9c0.5,0.7,1.6,0.4,1.6-0.4v-3.3h1.3v15.6h-1.3c0-8.8-5.7-16.4-12.4-16.4c-4.2,0-8.2,4.1-8.2,9.3    c0,4.8,5.1,8.5,10.7,12.3c0.6,0.1,1.7,0.1,2.9-0.6c0.1-0.1,0.2,0,0.1,0.1c-0.3,1.2,0,2.2,0.4,2.8c5.7,3.9,10.9,8.3,11.3,14.5    C318.7,200.9,307.6,207,297.7,207z" fill="#ffffff"/>
	</g>
</g>
</svg>