<?xml version="1.0" encoding="utf-8"?>
<!-- Generator: Adobe Illustrator 24.1.2, SVG Export Plug-In . SVG Version: 6.00 Build 0)  -->
<svg version="1.1" id="Capa_1" xmlns="http://www.w3.org/2000/svg" xmlns:xlink="http://www.w3.org/1999/xlink" x="0px" y="0px"
	 viewBox="0 0 400 282.5" style="enable-background:new 0 0 400 282.5;" xml:space="preserve">
<style type="text/css">
	.st0{fill:#0070D1;}
	.st1{fill:#FFFFFF;}
	.st2{fill:#00579F;}
	.st3{fill:#FAA61A;}
	.st4{clip-path:url(#SVGID_2_);}
	.st5{fill:#FF5F01;}
	.st6{fill:#EA001B;}
	.st7{fill:#F79E1C;}
	.st8{fill:none;stroke:#000000;stroke-width:0.8778;stroke-miterlimit:10;}
	.st9{fill:#170606;}
	.st10{fill:#1A1A1A;}
</style>
<g>
	<g>
		<path d="M217.9,129.2c10.8-2.8,19.5-9.2,26.3-19.3c-3.8-0.5-6.9-0.6-9.1-0.2c-3.4,3.1-8.3,5.2-14.6,6.3
			c15.5-6,18.8-13.1,17.1-21.6c0,0,0,0,0,0c-0.5-2.5-1.4-5-2.5-7.8c-0.7-1.7-1.5-3.4-2.3-5.1c-1.7-3.7-3-7.5-4.1-11.2
			c-2-7.1-3.3-14-5.7-19.9c-1-2.6-2.3-5-3.9-7.2c-10.3-13.5-30.8-13.5-41.1,0c-1.6,2.1-2.9,4.5-3.9,7.2c-2.3,5.9-3.6,12.8-5.7,19.9
			c-1.1,3.7-2.3,7.5-4.1,11.2c-0.8,1.8-1.6,3.5-2.3,5.1c-1.1,2.7-2,5.3-2.5,7.8c0,0,0,0,0,0c-1.7,8.5,1.6,15.6,17.1,21.6
			c-6.3-1.1-11.2-3.2-14.6-6.3c-2.2-0.4-5.2-0.4-9.1,0.2c6.8,10.1,15.5,16.5,26.3,19.3c-4.1-2.8-6.6-5.4-7.6-7.8
			c6.3,4.4,15.2,8.3,26.9,11.7c11.7-3.4,20.7-7.3,26.9-11.7C224.5,123.8,222,126.4,217.9,129.2z M201.3,115.4
			c-0.8,1.1-1.4,2.2-2,3.5c-0.3,0.4-1.2,0.4-1.4,0c-0.6-1.2-1.2-2.4-2-3.5c-5-7.2-13.9-11.5-18.8-19.7c-1.8-3-3.1-6.6-3.4-11.1
			c-2.8,6.2-2.3,11.7,1.6,16.4c-4.7-2.8-6.7-6.9-6.9-11.4c-0.7-16.5,22.4-39.8,26.9-37.9c0.7,0.5,1.5,0.8,2.3,1c0.7,0.1,1.3,0.1,2,0
			c0.8-0.1,1.6-0.5,2.3-1c4.5-1.9,27.6,21.4,26.9,37.9c-0.2,4.5-2.2,8.5-6.9,11.4c3.9-4.7,4.5-10.2,1.6-16.4
			c-0.3,4.5-1.6,8.1-3.4,11.1C215.2,103.9,206.3,108.1,201.3,115.4z"/>
	</g>
	<g>
		<path d="M89.5,127.2c1.5,0.1,2.7,0.9,3.4,2.4c0.4,2,0.1,3.4-0.8,4.3c-1,0.9-2,1.2-3.1,0.7c-1.1-0.5-1.6-1.9-1.6-4.2
			c-1.9,4.1-1.8,7.3,0.4,9.7c2.2,2.4,5.1,3.5,8.7,3.2c3.2-0.4,6.4-1.1,9.4-2.1c3.8-1.3,7.8-2,11.9-2.2c3.6-0.1,7.6,0.9,12,3.1
			c-2.5,1.9-4,4.6-4.5,8.3c-0.5,3.6-0.7,7.6-0.5,11.9c0,2.1,0,4.2,0,6.4c0.1,6-1.3,11.1-4.1,15.2c-0.4,0.5-0.8,0.9-1.2,1.4
			c2,1.5,5.8,5.4,5.8,15.2c0,4.8-1.7,23,4.5,29c-3.3,0-7.2-0.7-8.7-2.3c-4.2-4.6-3.3-19.1-3.4-21.7c-0.2-3.5,0.5-17.3-2.6-17.4
			c-2.1,0.8-4.5,1.3-6.9,1.4v35.2c0,1.8,0.8,3.4,2.1,4.8H97c1.5-1.4,2.3-3,2.4-4.8v-46.3c-0.8-0.3-1.6-0.4-2.4-0.4
			c0.8-0.7,1.6-1.1,2.4-1.3v-28c-1.1,0.2-2,0.3-2.8,0.3c-5.1,0.2-8.9-1.9-11.2-6c-2.3-4.2-2.3-8.7,0-13.4c1.1-1.6,2.3-2.4,3.7-2.4
			C89.3,127.2,89.4,127.2,89.5,127.2z M108.3,147.7v30.2c0.8,0.2,1.6,0.2,2.4,0.2c-0.8,0.8-1.6,1.4-2.4,1.7v7.2
			c3.6-0.9,5.8-3.3,6.5-7.1c0.7-3.8,1-8.2,0.7-13.1c0-0.5,0-1,0-1.5c0-0.4,0-0.9,0-1.3c-0.4-6.5,0.5-12,2.8-16.5
			c-1.1-0.2-2.3-0.3-3.7-0.3C112.8,147.3,110.6,147.4,108.3,147.7z"/>
		<path d="M153.7,158.3v4.8V176c0,2.2,0.5,4.2,1.5,6.3c-2.2,0.1-4.7,1.1-7.6,3.3c-0.1,0.1-0.2,0.2-0.3,0.2c-2.2,1.6-4.6,2.9-7,4.1
			v14c0,1.1,0.3,1.9,0.8,2.4c0.4,0.5,1,0.8,1.6,0.8c0.6,0,1.1-0.3,1.5-0.8c0.4-0.5,0.7-1.3,0.7-2.3v-5.8c0-1.9-0.4-3.6-1.5-5
			c3,0.2,5.1-0.3,6.4-1.5c0.4-0.3,0.8-0.6,1.2-0.9c0.7-0.6,1.4-1.1,2.2-1.5c0.8-0.5,1.7-0.8,2.9-0.9c-1.1,0.9-1.8,2.2-2.1,4.1
			c-0.2,1.9-0.4,3.4-0.4,4.8v6.8c0,2.9-1.3,4.6-3.7,4.8H129c1.5-1.1,2.3-2.8,2.4-4.8v-13.6c-0.8-0.3-1.6-0.8-2.3-1.4
			c0.7,0.1,1.5,0.1,2.3,0.1v-25.9c-0.1-1.8-0.9-3.4-2.4-4.8H153.7z M141,160.5c-0.4,0.5-0.7,1.4-0.7,2.6v23.1c2-1.3,3.2-2.7,3.8-4.2
			c0.5-1.5,0.8-3.5,0.8-5.9v-12.9c0-1.2-0.2-2.1-0.7-2.7c-0.5-0.6-1-0.9-1.6-0.9C141.9,159.7,141.5,159.9,141,160.5z"/>
		<path d="M181.8,150.3v27.5c0.8,0.2,1.6,0.3,2.5,0.3c-0.9,0.9-1.7,1.5-2.5,1.7V204c0.1,2,0.9,3.6,2.4,4.8h-20.9
			c-1.4,0-2.3-0.3-2.9-0.9c-0.6-0.5-0.8-1.9-0.8-4v-40.8c-0.1-2.1-0.9-3.6-2.4-4.8H173v-7c-0.2-1.9-0.9-8.5-2-9.9
			c2.7,0.2,4.9-0.3,6.9-1.4c1-0.5,1.9-1.1,2.8-1.7c2-1.4,4.1-2.3,6.3-2.7C183.6,137.8,181.8,145.9,181.8,150.3z M169.1,160.5
			c-0.4,0.6-0.7,1.5-0.7,2.6V204c0,1,0.3,1.8,0.8,2.3c0.4,0.5,0.9,0.8,1.5,0.8c0.6,0,1.1-0.3,1.6-0.8c0.4-0.5,0.7-1.3,0.8-2.4v-25.5
			c-0.8-0.2-1.5-0.3-2.3-0.3c0.8-0.6,1.5-1,2.3-1.3v-13.6c0-1.2-0.3-2-0.7-2.6c-0.5-0.5-1-0.9-1.6-0.9
			C170.1,159.7,169.6,160,169.1,160.5z"/>
		<path d="M205.1,141.4c-1,1.4-1.6,3.1-1.7,4.9l0,38.5c1.3-0.8,2.7-1.4,4.1-1.7c2.9-0.6,5.7-0.1,8.5,1.4v-4.8
			c-0.7-0.3-1.3-0.8-2-1.5c0.7,0,1.4-0.1,2-0.2v-36.5c2.9,0.9,6,1.6,9.1,2c3.6,0.3,6.5-0.8,8.7-3.2c2.2-2.4,2.4-5.6,0.4-9.7
			c0,2.3-0.5,3.7-1.6,4.2c-1.1,0.5-2.1,0.2-3.1-0.7c-0.9-0.9-1.2-2.3-0.8-4.3c0.7-1.5,1.9-2.3,3.4-2.4c1.6-0.1,2.9,0.7,4,2.4
			c2.4,4.7,2.4,9.1,0,13.3c-2.3,4.2-6,6.3-11.1,6.1v27.6c0.8,0.2,1.6,0.7,2.5,1.4c-0.8,0-1.6,0.2-2.5,0.4v48.1
			c0.2,1.2,0.5,2.4,0.7,3.6c0.6,3.4,1.4,6.6,2.4,9.9c1,3.2,2.8,6.2,5.3,8.7c-1.8,0.7-3.4,0.4-4.9-0.9c-1.5-1.3-3-2.9-4.4-5.1
			c-1.1-1.5-2.2-2.9-3.4-4.3c-2.7-3.5-6.3-5-10.9-4.5c3-1.9,5-4.4,6.1-7.6v-21.7c-1.1,0.4-2.4,0.7-3.7,0.7c-1.7,0-3.2-0.7-4.6-1.9
			c-1.3-1.2-1.9-2.8-2-4.8c0-2.2,0.9-3.7,2.6-4.4c0.5,1,1,1.7,1.5,2.1c0.6,0.4,1.1,0.5,1.6,0.5c0.9-0.1,1.6-0.5,2.2-1.3
			c0.5-0.8,0.8-1.7,0.9-2.8c0-1.2-0.4-2.3-1.3-3.3c-0.8-1-2.3-1.5-4.3-1.6c-2.1-0.1-3.9,0.8-5.4,2.6V209c0.1,1.8,0.9,3.4,2.4,4.8
			h-13.4c1.3-1.4,1.9-3,1.9-4.8v-63.7c0-4.4-1.7-7.6-5.2-9.7c2.2,0.4,4.4,1.3,6.3,2.7c0.7,0.4,1.4,0.9,2.1,1.3
			C199.5,140.9,202,141.5,205.1,141.4z"/>
		<path d="M254.8,158.3v45.6c0,2.1-0.2,3.4-0.8,4c-0.5,0.6-1.5,0.9-2.9,0.9h-14.8c-2.4,0-3.6-1.6-3.7-4.8v-25.5
			c-0.8-0.3-1.6-0.4-2.5-0.4c0.9-0.7,1.7-1.1,2.5-1.4v-13.6c-0.1-2.1-0.9-3.6-2.4-4.8H254.8z M242.1,160.5c-0.4,0.5-0.7,1.4-0.7,2.6
			v14.7c0.7,0.1,1.5,0.2,2.3,0.2c-0.8,0.8-1.5,1.3-2.3,1.6v24.2c0.1,1.1,0.3,1.9,0.8,2.4c0.5,0.5,1,0.8,1.6,0.8
			c0.5,0,1.1-0.3,1.5-0.8c0.4-0.5,0.7-1.3,0.7-2.3v-40.8c0-1.1-0.2-2-0.7-2.6c-0.5-0.5-1-0.8-1.6-0.8
			C243.1,159.7,242.6,159.9,242.1,160.5z"/>
		<path d="M283,158.3v45.6c0,2.1-0.2,3.4-0.8,4c-0.5,0.6-1.5,0.9-2.9,0.9h-14.8c-2.4,0-3.6-1.6-3.7-4.8v-25.5
			c-0.8-0.3-1.6-0.4-2.5-0.4c0.9-0.7,1.7-1.1,2.5-1.4v-13.6c-0.1-2.1-0.9-3.6-2.4-4.8H283z M270.3,160.5c-0.4,0.5-0.7,1.4-0.7,2.6
			v14.7c0.7,0.1,1.5,0.2,2.3,0.2c-0.8,0.8-1.5,1.3-2.3,1.6v24.2c0.1,1.1,0.3,1.9,0.8,2.4c0.5,0.5,1,0.8,1.6,0.8
			c0.5,0,1.1-0.3,1.5-0.8c0.4-0.5,0.7-1.3,0.7-2.3v-40.8c0-1.1-0.2-2-0.7-2.6c-0.5-0.5-1-0.8-1.6-0.8
			C271.3,159.7,270.8,159.9,270.3,160.5z"/>
		<path d="M311.1,137v40.8c0.8,0.2,1.6,0.3,2.5,0.3c-0.9,0.9-1.7,1.5-2.5,1.7V204c0.1,2,0.9,3.6,2.4,4.8h-20.9
			c-1.4,0-2.3-0.3-2.9-0.9c-0.6-0.5-0.8-1.9-0.8-4v-40.8c-0.1-2.1-0.9-3.6-2.4-4.8h15.8V138c-0.2-1.9-0.9-3.5-2-5
			c2.7,0.2,4.9-0.3,6.9-1.4c1-0.5,1.9-1.1,2.8-1.7c2-1.4,4.1-2.3,6.3-2.7C312.9,129.4,311.1,132.6,311.1,137z M298.4,160.5
			c-0.4,0.6-0.7,1.5-0.7,2.6V204c0,1,0.3,1.8,0.8,2.3c0.4,0.5,0.9,0.8,1.5,0.8c0.6,0,1.1-0.3,1.6-0.8c0.4-0.5,0.7-1.3,0.8-2.4v-25.5
			c-0.8-0.2-1.5-0.3-2.3-0.3c0.8-0.6,1.5-1,2.3-1.3v-13.6c0-1.2-0.3-2-0.7-2.6c-0.5-0.5-1-0.9-1.6-0.9
			C299.4,159.7,298.9,160,298.4,160.5z"/>
	</g>
	<path d="M217.1,71.2c-0.1-0.1-0.2-0.1-0.4-0.2c0,0-0.1,0-0.1,0c0,0-0.1,0-0.1,0c-0.3-0.1-0.5-0.2-0.8-0.3c-0.1,0-0.3-0.1-0.4-0.1
		c-0.1,0-0.1,0-0.2,0c0,0,0,0-0.1,0c0,0-0.1,0-0.1,0c-3.1-0.3-5.6-0.1-7.6,0.7c-2.5,1-4.3,2.7-5.4,5.4l1.3,0.6
		c0.9-2.2,2.4-3.8,4.6-4.6c2.2-0.8,5-1,8.7-0.4c0,0,0,0,0,0c0.3-0.3,0.7-0.5,1-0.7C217.5,71.4,217.3,71.3,217.1,71.2z"/>
	<path d="M200.1,88.8c-1,0-1.8,0-2.8,0c0.3-6.9-0.5-11.8-3-14.8c-2.3-2.9-6-4-11.6-3.4c0,0,0-0.1,0.1-0.1c-0.1,0-0.1,0-0.2,0.1
		c-1,0.3-1.9,0.9-2.8,1.4c0.5,0.1,0.9,0.2,1.4,0.3c0,0,0.1-0.1,0.1-0.1c5.9-0.9,9.7,0,12,2.7c2.3,2.8,3,7.7,2.6,14.6l0,0.7l0.7,0
		c1.4,0,2.3,0,3.6,0c0.4,0,0.8,0,1.3,0l0-1.4C200.9,88.8,200.4,88.8,200.1,88.8z"/>
	<path d="M177.8,77.6c0.4,0.5,0.8,1,1.2,1.4c0.5,6.8,3.1,13,6.4,17.8c5.9,8.6,13.4,9.1,13.7,9.1c0.2,0,6.5-0.3,13.4-9.4
		c3.6-4.7,5.9-10.9,6.5-17.6c0.4-0.4,0.9-0.9,1.3-1.4l-1.1-0.9c-1.7,2.2-4.1,3.6-6.6,4c-2.6,0.4-5.3-0.1-7.6-1.6l-0.8,1.2
		c2.6,1.7,5.7,2.3,8.6,1.8c1.7-0.3,3.3-0.9,4.7-1.9c-0.7,5.9-3,11.3-6,15.5c-3.4,4.7-7.8,7.9-12.3,8.6c-4.7-0.7-9-3.8-12.4-8.4
		c-3.1-4.3-5.3-9.8-6-15.7c1.4,1,3.1,1.6,4.7,1.9c2.9,0.5,6-0.1,8.6-1.8l-0.8-1.2c-2.3,1.5-5,2-7.6,1.6c-2.6-0.4-5-1.8-6.6-4
		L177.8,77.6z"/>
	<g>
		<path d="M173.3,82.6c0.1-1.5,0.5-3.1,1.1-4.6c0.6-1.5,1.5-2.8,2.5-4.1c1.1-1.2,2.3-2.3,3.7-3.1c1.3-0.8,2.5-1.5,3.7-2.4
			c2.4-1.7,4.6-3.6,6.5-5.8c1.9-2.2,3.5-4.7,4.5-7.6c-0.2,1.5-0.7,2.9-1.2,4.4c-0.6,1.4-1.4,2.7-2.2,4c-1.7,2.5-3.9,4.7-6.3,6.6
			c-1.2,1-2.5,1.8-3.7,2.6c-1.2,0.7-2.2,1.7-3.1,2.7c-0.9,1-1.7,2.2-2.3,3.5c-0.6,1.3-1,2.6-1.3,4L173.3,82.6z"/>
	</g>
	<g>
		<path d="M203.5,54.9c0.9,2.7,2.2,5.2,4,7.5c1.8,2.3,3.9,4.3,6.1,6.1c1.1,0.9,2.3,1.7,3.6,2.6c1.3,0.9,2.5,2,3.4,3.2
			c1,1.2,1.7,2.6,2.3,4c0.5,1.4,0.8,3,0.9,4.5c-0.7-2.9-2-5.6-4.1-7.7c-1-1-2.1-1.9-3.4-2.6c-1.3-0.7-2.6-1.5-3.9-2.4
			c-2.5-1.8-4.8-3.8-6.7-6.3c-1-1.2-1.8-2.6-2.5-4c-0.7-1.4-1.2-2.9-1.5-4.5L203.5,54.9z"/>
	</g>
	<polyline class="st8" points="195.7,55.5 198.9,58.1 202.7,55.5 	"/>
	<path d="M204.9,94.5c-0.5,0.1-0.9,0-1.4-0.2c-0.4-0.1-0.8-0.4-1.2-0.6l-0.6-0.4l-0.5-0.5l0,0c-0.2-0.1-0.4-0.2-0.6-0.3
		c-0.5-0.1-1,0-1.4,0.4c-0.5-0.5-1.4-0.5-2,0l0,0l-0.5,0.5l-0.6,0.4c-0.4,0.2-0.8,0.5-1.2,0.6c-0.4,0.1-0.9,0.2-1.4,0.2
		c-0.5-0.1-1-0.2-1.4-0.6c0.5,1,1.6,1.7,2.8,1.8c0.2,0,1.3-0.3,2.2-0.5c0.6-0.2,1.3,0,1.8,0.4l0.3,0.2l0.4-0.3
		c0.5-0.4,1.2-0.5,1.8-0.3c0.8,0.2,2,0.5,2.1,0.5c1.2-0.2,2.3-0.9,2.8-1.8C205.9,94.3,205.4,94.5,204.9,94.5z"/>
	<g>
		<path d="M195.6,97.1c1.3,0.4,2.4,0.7,3.5,0.7c0.6,0,1.1-0.1,1.7-0.2c0.6-0.1,1.2-0.3,1.8-0.5c-0.3,0.6-0.8,1.1-1.5,1.5
			c-0.6,0.3-1.4,0.5-2.1,0.5c-0.7,0-1.4-0.2-2.1-0.5C196.5,98.2,195.9,97.7,195.6,97.1z"/>
	</g>
	<polygon points="198.6,116.5 194.7,110.6 198.6,106.7 202.4,110.6 	"/>
	<g>
		<path d="M242.4,106.7l-4.8,0.3c4-6.9,6.2-14.7,6.2-22.7c0-24.7-20.1-44.8-44.8-44.8s-44.8,20.1-44.8,44.8c0,7.5,1.9,14.9,5.4,21.4
			l-4.8,0.2c-3.2-7.5-5-14.6-5-21.6c0-27.2,22.1-49.2,49.2-49.2s49.2,22.1,49.2,49.2C248.2,93.1,246.9,99.2,242.4,106.7z"/>
	</g>
	<g>
		<path d="M143.7,216.6c-0.3,0-0.6,0.1-0.8,0.4s-0.4,0.5-0.5,0.8c-0.4,1.2-0.8,2.5-1.2,3.7c-0.4,1.3-0.7,2.5-1,3.8
			c-0.1,0.4-0.2,0.7-0.3,1s-0.2,0.7-0.3,1c0,0.2-0.1,0.3-0.1,0.5c0,0.2-0.1,0.4-0.1,0.5c0,0.1-0.1,0.1-0.2,0.1c-0.1,0-0.1,0-0.2-0.1
			c-0.4-1.2-0.8-2.5-1.1-3.7c-0.4-1.2-0.7-2.5-1.1-3.7c-0.3,1.2-0.7,2.5-1.1,3.7c-0.4,1.2-0.7,2.5-1.1,3.7l-0.2,0.1l-0.1-0.1
			c-0.5-1.8-1-3.6-1.5-5.3c-0.5-1.8-1-3.5-1.6-5.3c-0.1-0.3-0.2-0.5-0.4-0.7c-0.1-0.1-0.3-0.2-0.4-0.3c-0.1-0.1-0.3-0.1-0.4-0.1
			c-0.1,0-0.2-0.1-0.3-0.2l0.1-0.1c0.5,0,1,0,1.6,0c0.5,0,1,0,1.6,0.1c0,0,0.1,0,0.1,0.1s0,0.1,0.1,0.1l-0.1,0.1
			c-0.2,0-0.3,0-0.3,0.1c0,0.1-0.1,0.2-0.1,0.3c0,0,0,0.1,0,0.1c0,0,0,0.1,0,0.1c0.4,1.2,0.7,2.4,1.1,3.6s0.7,2.4,1,3.6
			c0.3-0.9,0.5-1.8,0.8-2.6c0.2-0.9,0.5-1.8,0.8-2.6c-0.1-0.3-0.2-0.5-0.2-0.8c-0.1-0.2-0.2-0.5-0.2-0.8c-0.1-0.3-0.2-0.6-0.4-0.7
			c-0.2-0.2-0.5-0.3-0.8-0.4l-0.1,0l-0.1-0.2l0.1-0.1c0.5,0,1,0,1.6,0c0.5,0,1,0,1.6,0c0,0,0.1,0,0.1,0.1s0,0.1,0.1,0.1l-0.1,0.1
			c-0.2,0-0.3,0.1-0.3,0.2c-0.1,0.2-0.1,0.3,0,0.4c0.3,1.2,0.7,2.4,1,3.6c0.3,1.2,0.7,2.4,1,3.6c0.3-1.2,0.7-2.5,1-3.7
			c0.4-1.2,0.7-2.4,1.2-3.6v0c0-0.1,0-0.2,0-0.2s0-0.1,0-0.2s0-0.1-0.1-0.1c-0.1,0-0.2-0.1-0.3-0.1l-0.1-0.2l0.2-0.1
			c0.4,0,0.8,0,1.2,0s0.8,0,1.2,0L143.7,216.6z"/>
		<path d="M157.5,217.6c0.6,0.5,1.1,1.1,1.4,1.9c0.3,0.7,0.6,1.5,0.6,2.3c0.1,0.8,0,1.6-0.2,2.4s-0.5,1.5-1,2.1
			c-0.5,0.6-1.1,1.1-1.8,1.5c-0.7,0.4-1.5,0.6-2.3,0.7s-1.6,0.1-2.4-0.1c-0.8-0.2-1.5-0.5-2.1-1.1c-0.6-0.5-1.1-1.1-1.4-1.9
			c-0.4-0.7-0.6-1.5-0.6-2.3c-0.1-0.8,0-1.6,0.2-2.4s0.6-1.5,1-2.1c0.6-0.7,1.2-1.3,2-1.6s1.6-0.6,2.4-0.7c0.7-0.1,1.5,0,2.2,0.2
			S156.9,217.1,157.5,217.6L157.5,217.6z M158.4,223.9c0.1-0.6,0.1-1.3,0-1.9c-0.1-0.7-0.3-1.3-0.7-1.9c-0.3-0.6-0.7-1.1-1.2-1.4
			c-0.5-0.4-1-0.7-1.7-0.9s-1.3-0.3-1.9-0.3c-0.6,0-1.3,0.2-1.8,0.4c-0.6,0.3-1.1,0.6-1.5,1.2c-0.4,0.5-0.6,1.1-0.7,1.7
			s-0.1,1.3,0,1.9s0.3,1.3,0.6,1.9s0.7,1.1,1.2,1.4h0c0.5,0.4,1,0.7,1.6,0.9s1.3,0.3,1.9,0.3c0.6,0,1.3-0.2,1.9-0.4s1.1-0.6,1.5-1.1
			C158.1,225.1,158.3,224.6,158.4,223.9z"/>
		<path d="M177.2,228.4c-0.2,0-0.4,0-0.6,0c-0.2,0-0.5,0-0.8,0c-0.3,0-0.6,0-0.8,0c-0.3,0-0.5,0-0.7,0s-0.3,0-0.4,0
			c0,0-0.1-0.1-0.1-0.2l0.1-0.1c0.3,0,0.5-0.1,0.7-0.3c0.2-0.2,0.3-0.4,0.3-0.7V227c0-0.4-0.1-0.8-0.1-1.1c0-0.4-0.1-0.7-0.2-1.1
			c-0.1-0.7-0.2-1.5-0.2-2.3s-0.1-1.6-0.2-2.3c-0.6,1.3-1.2,2.6-1.7,4c-0.6,1.4-1.1,2.7-1.7,4c0,0-0.1,0.1-0.2,0.1s-0.1,0-0.2-0.1
			c-0.1-0.1-0.1-0.2-0.3-0.4s-0.2-0.4-0.3-0.7s-0.2-0.5-0.3-0.7c-0.1-0.2-0.2-0.4-0.3-0.5c-0.5-1-1-2-1.4-3c-0.5-1-1-2-1.4-3
			c-0.1,1.2-0.2,2.3-0.3,3.6s-0.3,2.4-0.4,3.6c0,0,0,0,0,0s0,0,0,0c0,0.3,0.1,0.5,0.3,0.7s0.4,0.3,0.7,0.3l0.1,0l0.1,0.1l-0.1,0.1
			c-0.5,0-1,0-1.5,0s-1,0-1.5,0c0,0-0.1,0-0.1-0.1s0-0.1,0-0.1l0.1-0.1c0.3,0,0.5-0.1,0.7-0.3c0.2-0.2,0.3-0.4,0.3-0.7
			c0.1-0.3,0.1-0.7,0.2-1s0.1-0.7,0.1-1c0.1-0.9,0.2-1.9,0.3-2.9c0.1-1,0.2-2,0.2-2.9c0.1-0.7,0.1-1.3,0.1-2c0-0.2,0-0.3,0-0.5
			s0-0.4,0-0.5c0-0.1,0.1-0.1,0.2-0.1s0.1,0,0.2,0.1c0.9,1.5,1.7,3.1,2.4,4.8c0.8,1.7,1.6,3.3,2.3,4.8c0.2-0.5,0.5-1.1,0.7-1.6
			c0.2-0.6,0.5-1.1,0.7-1.7c0.2-0.6,0.5-1.1,0.7-1.7c0.2-0.6,0.5-1.1,0.7-1.6c0.2-0.5,0.5-1,0.7-1.5c0.2-0.5,0.5-1,0.7-1.5
			c0,0,0.1,0,0.2-0.1l0.1,0.1c0,1.2,0.1,2.5,0.2,3.8c0.1,1.3,0.2,2.5,0.4,3.8c0.1,0.6,0.1,1.1,0.2,1.7c0.1,0.6,0.1,1.1,0.3,1.7
			c0,0.2,0.1,0.4,0.3,0.6c0.1,0.2,0.3,0.3,0.5,0.3c0,0,0.1,0,0.1,0c0,0,0.1,0,0.1,0c0.1,0,0.2,0.1,0.1,0.1c0,0.1,0,0.1-0.1,0.1
			C177.5,228.4,177.4,228.4,177.2,228.4z"/>
		<path d="M189.8,226.9c0,0.2-0.1,0.3-0.1,0.5c0,0.2-0.1,0.3-0.1,0.5s-0.1,0.3-0.1,0.3c0,0,0,0-0.1,0.1c0,0-0.1,0-0.1,0
			c-1.3,0-2.6-0.1-3.8-0.1s-2.5,0-3.8,0.1c0,0-0.1,0-0.1-0.1s0-0.1,0-0.1l0.1-0.1c0.3,0,0.5-0.1,0.7-0.3c0.2-0.2,0.3-0.5,0.3-0.7
			c0-0.8,0.1-1.6,0.1-2.4s0-1.6,0-2.4c0-0.8,0-1.5,0-2.3c0-0.8,0-1.5-0.1-2.3c0-0.3-0.1-0.6-0.3-0.7c-0.2-0.2-0.4-0.3-0.7-0.4
			c0,0-0.1,0-0.1-0.1c0,0,0-0.1,0-0.1c0,0,0.1-0.1,0.1-0.1c0.8,0,1.6,0.1,2.4,0.1c0.8,0,1.6,0,2.3,0c0.4,0,0.7,0,1.1-0.1
			c0.4,0,0.8,0,1.1,0c0,0,0.1,0,0.1,0c0,0,0,0.1,0.1,0.1c0,0.1,0,0.2,0,0.4c0,0.1,0,0.3,0,0.4c0,0.1,0,0.3,0,0.4c0,0.1,0,0.3,0,0.4
			c0,0.1-0.1,0.1-0.2,0.1c-0.1,0-0.1,0-0.2-0.1c0-0.1,0-0.1,0-0.2s0-0.2-0.1-0.3c0-0.1-0.1-0.2-0.1-0.2c0-0.1-0.1-0.1-0.2-0.1
			c-0.2,0-0.4,0-0.6,0s-0.4,0-0.6,0c-0.9,0-1.7,0-2.6,0c0,0.8,0,1.5,0,2.2c0,0.7,0,1.5,0,2.3h2.1c0.2,0,0.4-0.1,0.6-0.2
			c0.2-0.1,0.3-0.3,0.3-0.5l0.1-0.1l0.2,0l0.1,0.1v2.3c0,0.1,0,0.1-0.1,0.1c-0.1,0-0.2,0-0.2-0.1c0-0.2-0.2-0.4-0.3-0.5
			c-0.2-0.1-0.4-0.2-0.6-0.2h-2.1c0,0.8,0,1.6,0,2.4s0,1.6,0,2.4c0.7,0,1.3,0,2,0c0.7,0,1.3,0,2,0c0.3,0,0.6-0.1,0.9-0.3
			c0.3-0.2,0.5-0.4,0.6-0.7l0.1-0.1l0.1,0l0.1,0.1C189.9,226.6,189.8,226.8,189.8,226.9z"/>
		<path d="M205.6,216.6c-0.3,0-0.5,0.1-0.7,0.4s-0.3,0.5-0.3,0.8c0,0.4-0.1,0.8-0.1,1.2c0,0.4,0,0.8,0,1.2c0,0.9,0,1.8,0,2.8
			c0,0.9,0,1.8,0,2.8c0,0.3,0,0.7,0,1s0,0.7,0,1c0,0.1,0,0.2,0,0.3s0,0.2,0,0.3c0,0.1-0.1,0.1-0.1,0.1c-0.1,0-0.1,0-0.2,0
			c-0.1-0.1-0.3-0.2-0.4-0.4c-0.1-0.2-0.3-0.3-0.4-0.5c-0.3-0.3-0.6-0.7-1-1s-0.6-0.7-0.9-1c-0.9-1-1.9-2.1-2.8-3.2
			s-1.9-2.2-2.8-3.2c0,0.9,0,1.8,0,2.7s0,1.8,0,2.7c0,0.4,0,0.8-0.1,1.3s0,0.9,0,1.2c0,0.3,0.1,0.5,0.3,0.7c0.2,0.1,0.4,0.2,0.7,0.3
			l0.1,0v0.1l-0.1,0.1c-0.5,0-1,0-1.5,0c-0.5,0-1,0-1.5,0.1c0,0-0.1,0-0.1-0.1s0-0.1,0-0.1l0.1-0.1c0.3,0,0.5-0.1,0.7-0.3
			c0.2-0.2,0.3-0.4,0.3-0.7c0-0.4,0.1-0.8,0.1-1.2s0-0.8,0-1.2c0-0.9,0-1.8,0-2.8s0-1.9,0-2.8c0-0.3,0-0.7,0-1c0-0.3,0-0.7,0-1
			c0-0.1,0-0.2,0-0.3s0-0.2,0-0.3c0-0.1,0-0.1,0.1-0.1c0.1,0,0.1,0,0.2,0c0.1,0.1,0.3,0.3,0.4,0.4c0.1,0.2,0.3,0.3,0.4,0.5
			c0.3,0.4,0.6,0.7,1,1s0.6,0.7,0.9,1c0.9,1,1.9,2.1,2.8,3.2c0.9,1.1,1.9,2.2,2.8,3.2c0-0.9,0-1.8,0-2.7c0-0.9,0-1.8,0-2.7
			c0-0.4,0-0.8,0.1-1.3c0-0.4,0-0.8,0-1.3c0-0.1,0-0.3-0.1-0.4c0-0.1-0.1-0.2-0.2-0.3s-0.2-0.2-0.3-0.2c-0.1-0.1-0.2-0.1-0.4-0.1
			l-0.1,0l0-0.2l0.1-0.1c0.5,0,1,0,1.5-0.1c0.5,0,1,0,1.5-0.1L205.6,216.6z"/>
	</g>
	<g>
		<path d="M243,224c-0.3,0.8-0.8,1.4-1.4,2s-1.3,0.9-2.1,1.2c-0.8,0.2-1.6,0.3-2.4,0.3c-0.9,0-1.7,0-2.6,0c-0.9,0-1.7,0-2.6,0.1
			c0,0-0.1,0-0.1-0.1s0-0.1,0-0.1l0.1-0.1c0.3,0,0.5-0.1,0.7-0.3s0.3-0.4,0.3-0.7c0.1-0.7,0.1-1.5,0.1-2.3c0-0.8,0-1.6,0-2.3
			c0-0.4,0-0.8,0-1.2s0-0.8,0-1.3c0-0.4,0-0.8,0-1.3s0-0.8-0.1-1.2c0-0.3-0.1-0.6-0.3-0.7c-0.2-0.1-0.4-0.3-0.7-0.3
			c0,0-0.1,0-0.1-0.1c0-0.1,0-0.1-0.1-0.1l0.1-0.1c0.9,0,1.7,0.1,2.6,0.1c0.9,0,1.7,0,2.6,0c0.9,0,1.8,0.1,2.5,0.4s1.5,0.6,2,1.1
			c0.6,0.5,1,1.1,1.3,1.8c0.3,0.7,0.5,1.6,0.5,2.5C243.4,222.4,243.3,223.2,243,224z M239.2,217c-0.5-0.2-1-0.3-1.5-0.4
			c-0.5-0.1-1.1-0.1-1.6-0.1s-1.1,0-1.7,0c0.1,2.1,0.1,4.1,0.1,6.2c0,0.4,0,0.7,0,1c0,0.3,0,0.7,0,1c0,0.1,0,0.3,0,0.4
			c0,0.2,0,0.3,0,0.4c0,0.3,0.1,0.5,0.3,0.7c0.2,0.2,0.4,0.3,0.7,0.3h1.7c0.6,0,1.3-0.1,1.9-0.4c0.6-0.3,1.1-0.6,1.6-1.1
			c0.5-0.5,0.8-1,1.1-1.7c0.2-0.6,0.4-1.3,0.4-1.9s-0.1-1.3-0.3-1.9c-0.2-0.6-0.6-1.2-1.1-1.7C240.1,217.5,239.7,217.2,239.2,217z"
			/>
		<path d="M259.2,227.9c-0.3-0.1-0.6-0.2-1-0.2c-0.4-0.1-0.7-0.2-1-0.3c-0.1,0-0.3-0.1-0.4-0.2c-0.1-0.1-0.3-0.2-0.4-0.3
			c-0.1-0.1-0.3-0.2-0.4-0.4c-0.1-0.1-0.2-0.2-0.3-0.3c-0.8-0.8-1.6-1.6-2.3-2.4c-0.8-0.8-1.6-1.6-2.3-2.4l0-0.1c0,0,0,0,0.1,0
			c0,0,0.1,0,0.1,0c0.4,0,0.7-0.1,1-0.2c0.3-0.1,0.6-0.3,0.9-0.5c0.2-0.2,0.4-0.5,0.5-0.7c0.1-0.3,0.2-0.6,0.2-0.9s0-0.6-0.1-0.9
			c-0.1-0.3-0.3-0.6-0.5-0.8c-0.2-0.2-0.4-0.4-0.7-0.5c-0.2-0.1-0.5-0.2-0.8-0.2s-0.5,0-0.8,0c-0.3,0-0.6,0-0.8,0
			c0,1.1,0.1,2.2,0.1,3.3c0,1.1,0,2.2,0,3.3c0,0.5,0,1,0,1.6c0,0.5,0,1,0,1.6c0,0.3,0.1,0.5,0.3,0.7s0.4,0.3,0.7,0.3l0.1,0l0,0.1
			l-0.1,0.1c-0.6,0-1.2,0-1.7,0c-0.6,0-1.2,0-1.7,0.1c0,0-0.1-0.1-0.1-0.1c0,0,0-0.1,0-0.1l0.2-0.1c0.3,0,0.5-0.1,0.7-0.3
			c0.2-0.2,0.3-0.4,0.3-0.7c0-0.8,0.1-1.6,0.1-2.4s0-1.6,0-2.4c0-0.8,0-1.5,0-2.3s0-1.5-0.1-2.3c0-0.3-0.1-0.5-0.3-0.7
			c-0.2-0.2-0.4-0.3-0.7-0.3c0,0-0.1,0-0.1-0.1c0,0-0.1-0.1,0-0.1c0,0,0.1,0,0.1-0.1c0.8,0,1.6,0.1,2.3,0.1c0.8,0,1.6,0,2.3,0
			c0.4,0,0.8,0.1,1.2,0.2c0.4,0.2,0.7,0.4,1,0.6c0.3,0.3,0.5,0.6,0.6,0.9c0.2,0.4,0.2,0.8,0.2,1.2c0,0.3-0.1,0.7-0.2,1
			c-0.1,0.3-0.3,0.7-0.5,0.9c-0.2,0.2-0.4,0.4-0.7,0.6c-0.3,0.2-0.5,0.3-0.8,0.4c0.5,0.6,1,1.2,1.4,1.6c0.4,0.5,0.8,0.9,1.1,1.2
			c0.3,0.4,0.6,0.7,0.9,0.9c0.3,0.3,0.6,0.5,0.8,0.8c0.3,0.2,0.6,0.5,0.9,0.7s0.7,0.5,1,0.8L259.2,227.9z"/>
		<path d="M270.6,226.1c0,0.2-0.1,0.3-0.1,0.5c0,0.2-0.1,0.3-0.1,0.5s-0.1,0.3-0.1,0.3c0,0,0,0-0.1,0.1c0,0-0.1,0-0.1,0
			c-1.3,0-2.6-0.1-3.8-0.1s-2.5,0-3.8,0.1c0,0-0.1,0-0.1-0.1s0-0.1,0-0.1l0.1-0.1c0.3,0,0.5-0.1,0.7-0.3c0.2-0.2,0.3-0.5,0.3-0.7
			c0-0.8,0.1-1.6,0.1-2.4s0-1.6,0-2.4c0-0.8,0-1.5,0-2.3c0-0.8,0-1.5-0.1-2.3c0-0.3-0.1-0.6-0.3-0.7c-0.2-0.2-0.4-0.3-0.7-0.4
			c0,0-0.1,0-0.1-0.1c0,0,0-0.1,0-0.1c0,0,0.1-0.1,0.1-0.1c0.8,0,1.6,0.1,2.4,0.1c0.8,0,1.6,0,2.3,0c0.4,0,0.7,0,1.1-0.1
			c0.4,0,0.8,0,1.1,0c0,0,0.1,0,0.1,0c0,0,0,0.1,0.1,0.1c0,0.1,0,0.2,0,0.4c0,0.1,0,0.3,0,0.4c0,0.1,0,0.3,0,0.4c0,0.1,0,0.3,0,0.4
			c0,0.1-0.1,0.1-0.2,0.1c-0.1,0-0.1,0-0.2-0.1c0-0.1,0-0.1,0-0.2s0-0.2-0.1-0.3c0-0.1-0.1-0.2-0.1-0.2c0-0.1-0.1-0.1-0.2-0.1
			c-0.2,0-0.4,0-0.6,0s-0.4,0-0.6,0c-0.9,0-1.7,0-2.6,0c0,0.8,0,1.5,0,2.2c0,0.7,0,1.5,0,2.3h2.1c0.2,0,0.4-0.1,0.6-0.2
			c0.2-0.1,0.3-0.3,0.3-0.5l0.1-0.1l0.2,0l0.1,0.1v2.3c0,0.1,0,0.1-0.1,0.1c-0.1,0-0.2,0-0.2-0.1c0-0.2-0.2-0.4-0.3-0.5
			c-0.2-0.1-0.4-0.2-0.6-0.2H265c0,0.8,0,1.6,0,2.4s0,1.6,0,2.4c0.7,0,1.3,0,2,0c0.7,0,1.3,0,2,0c0.3,0,0.6-0.1,0.9-0.3
			c0.3-0.2,0.5-0.4,0.6-0.7l0.1-0.1l0.1,0l0.1,0.1C270.7,225.8,270.6,226,270.6,226.1z"/>
		<path d="M278.1,215.5L278.1,215.5c1.9,0,2.7,0.3,2.7,1l0.1,1.8l-0.1,0.1h-0.1l-1-1.6c-0.5-0.4-0.9-0.6-1.4-0.6h-0.6
			c-0.9,0.2-1.4,0.7-1.4,1.5v0.3c0,0.6,1,1.5,3.1,2.6c1.6,1.2,2.5,2.4,2.5,3.5c0,1.6-1,2.7-2.9,3.3l-1.2,0.1
			c-2.6-0.3-3.9-1.2-3.9-2.7v-0.1c0-1.1,0.8-1.8,2.3-2.1l0.2,0.2c-0.7,0.4-1.1,1-1.1,1.6v0.5c0,1.1,0.7,1.8,2.2,2h0.5
			c1.2,0,2-0.8,2.2-2.5c0-1.1-1.4-2.4-4.2-3.9c-0.7-0.7-1-1.3-1-1.9v-0.2C274.9,216.6,276,215.7,278.1,215.5z"/>
		<path d="M288.4,215.5L288.4,215.5c1.9,0,2.7,0.3,2.7,1l0.1,1.8l-0.1,0.1H291l-1-1.6c-0.5-0.4-0.9-0.6-1.4-0.6h-0.6
			c-0.9,0.2-1.4,0.7-1.4,1.5v0.3c0,0.6,1,1.5,3.1,2.6c1.6,1.2,2.5,2.4,2.5,3.5c0,1.6-1,2.7-2.9,3.3l-1.2,0.1
			c-2.6-0.3-3.9-1.2-3.9-2.7v-0.1c0-1.1,0.8-1.8,2.3-2.1l0.2,0.2c-0.7,0.4-1.1,1-1.1,1.6v0.5c0,1.1,0.7,1.8,2.2,2h0.5
			c1.2,0,2-0.8,2.2-2.5c0-1.1-1.4-2.4-4.2-3.9c-0.7-0.7-1-1.3-1-1.9v-0.2C285.2,216.6,286.3,215.7,288.4,215.5z"/>
		<path d="M303,226.1c0,0.2-0.1,0.3-0.1,0.5c0,0.2-0.1,0.3-0.1,0.5s-0.1,0.3-0.1,0.3c0,0,0,0-0.1,0.1c0,0-0.1,0-0.1,0
			c-1.3,0-2.6-0.1-3.8-0.1s-2.5,0-3.8,0.1c0,0-0.1,0-0.1-0.1s0-0.1,0-0.1l0.1-0.1c0.3,0,0.5-0.1,0.7-0.3c0.2-0.2,0.3-0.5,0.3-0.7
			c0-0.8,0.1-1.6,0.1-2.4s0-1.6,0-2.4c0-0.8,0-1.5,0-2.3c0-0.8,0-1.5-0.1-2.3c0-0.3-0.1-0.6-0.3-0.7c-0.2-0.2-0.4-0.3-0.7-0.4
			c0,0-0.1,0-0.1-0.1c0,0,0-0.1,0-0.1c0,0,0.1-0.1,0.1-0.1c0.8,0,1.6,0.1,2.4,0.1c0.8,0,1.6,0,2.3,0c0.4,0,0.7,0,1.1-0.1
			c0.4,0,0.8,0,1.1,0c0,0,0.1,0,0.1,0c0,0,0,0.1,0.1,0.1c0,0.1,0,0.2,0,0.4c0,0.1,0,0.3,0,0.4c0,0.1,0,0.3,0,0.4c0,0.1,0,0.3,0,0.4
			c0,0.1-0.1,0.1-0.2,0.1c-0.1,0-0.1,0-0.2-0.1c0-0.1,0-0.1,0-0.2s0-0.2-0.1-0.3c0-0.1-0.1-0.2-0.1-0.2c0-0.1-0.1-0.1-0.2-0.1
			c-0.2,0-0.4,0-0.6,0s-0.4,0-0.6,0c-0.9,0-1.7,0-2.6,0c0,0.8,0,1.5,0,2.2c0,0.7,0,1.5,0,2.3h2.1c0.2,0,0.4-0.1,0.6-0.2
			c0.2-0.1,0.3-0.3,0.3-0.5l0.1-0.1l0.2,0l0.1,0.1v2.3c0,0.1,0,0.1-0.1,0.1c-0.1,0-0.2,0-0.2-0.1c0-0.2-0.2-0.4-0.3-0.5
			c-0.2-0.1-0.4-0.2-0.6-0.2h-2.1c0,0.8,0,1.6,0,2.4s0,1.6,0,2.4c0.7,0,1.3,0,2,0c0.7,0,1.3,0,2,0c0.3,0,0.6-0.1,0.9-0.3
			c0.3-0.2,0.5-0.4,0.6-0.7l0.1-0.1l0.1,0l0.1,0.1C303.1,225.8,303.1,226,303,226.1z"/>
		<path d="M310.5,215.5L310.5,215.5c1.9,0,2.7,0.3,2.7,1l0.1,1.8l-0.1,0.1h-0.1l-1-1.6c-0.5-0.4-0.9-0.6-1.4-0.6h-0.6
			c-0.9,0.2-1.4,0.7-1.4,1.5v0.3c0,0.6,1,1.5,3.1,2.6c1.6,1.2,2.5,2.4,2.5,3.5c0,1.6-1,2.7-2.9,3.3l-1.2,0.1
			c-2.6-0.3-3.9-1.2-3.9-2.7v-0.1c0-1.1,0.8-1.8,2.3-2.1l0.2,0.2c-0.7,0.4-1.1,1-1.1,1.6v0.5c0,1.1,0.7,1.8,2.2,2h0.5
			c1.2,0,2-0.8,2.2-2.5c0-1.1-1.4-2.4-4.2-3.9c-0.7-0.7-1-1.3-1-1.9v-0.2C307.4,216.6,308.4,215.7,310.5,215.5z"/>
	</g>
</g>
</svg>
