<?xml version="1.0" encoding="utf-8"?>
<!-- Generator: Adobe Illustrator 24.1.2, SVG Export Plug-In . SVG Version: 6.00 Build 0)  -->
<svg version="1.1" id="Capa_1" xmlns="http://www.w3.org/2000/svg" xmlns:xlink="http://www.w3.org/1999/xlink" x="0px" y="0px"
	 viewBox="0 0 400 282.5" style="enable-background:new 0 0 400 282.5;" xml:space="preserve">
<style type="text/css">
	.st0{fill:#0070D1;}
	.st1{fill:#FFFFFF;}
	.st2{fill:#00579F;}
	.st3{fill:#FAA61A;}
	.st4{clip-path:url(#SVGID_2_);}
	.st5{fill:#FF5F01;}
	.st6{fill:#EA001B;}
	.st7{fill:#F79E1C;}
	.st8{fill:none;stroke:#000000;stroke-width:0.8778;stroke-miterlimit:10;}
	.st9{fill:#170606;}
	.st10{fill:#1A1A1A;}
</style>
<g>
	<g>
		<polygon points="120.1,169.6 121.1,173.6 122.8,173.6 121.7,169.6 		"/>
		<polygon points="122.4,169.6 123.4,173.6 125.1,173.6 124,169.6 		"/>
		<polygon points="117.8,169.6 118.8,173.6 120.5,173.6 119.4,169.6 		"/>
		<polygon points="132.1,169.6 127,169.6 128,173.6 132.1,173.6 		"/>
		<polygon points="124.7,169.6 125.7,173.6 127.4,173.6 126.3,169.6 		"/>
		<polygon points="115.5,169.6 116.5,173.6 118.2,173.6 117.1,169.6 		"/>
		<polygon points="111.3,169.6 111.3,173.6 115.9,173.6 114.8,169.6 		"/>
	</g>
	<g>
		<path d="M99.4,212.9c-0.3,0.7-0.3,1.3-0.2,1.8c0.2,0.5,0.5,0.9,0.9,1.1c0.4,0.3,0.8,0.4,1.3,0.4h0.5v0.5h-11v-0.5h0.5
			c0.8,0,1.6-0.3,2.5-0.8c0.9-0.5,1.6-1.4,2.1-2.6H99.4z M110.7,178.9l0.3,5.5l-13.1,32.1h-3.6l13.6-31.2c0.1-0.1,0.2-0.5,0.4-1
			c0.2-0.5,0.5-1.2,0.8-1.9c0.3-0.7,0.6-1.4,0.8-2c0.2-0.6,0.3-1.1,0.4-1.5H110.7z M116.9,203.5v2H101v-2H116.9z M110.7,178.9
			l16.6,37.5h-7.8l-11.3-29L110.7,178.9z M118.2,212.9h7.6c0.6,1.2,1.3,2,2.1,2.6c0.9,0.5,1.7,0.8,2.5,0.8h0.4v0.5h-15.1v-0.5h0.5
			c0.7,0,1.3-0.3,1.8-0.9C118.5,214.7,118.6,213.9,118.2,212.9z"/>
		<path d="M135.6,188.5h-0.1c0-0.8-0.3-1.5-0.9-2c-0.5-0.5-1.2-0.8-2-0.8c-0.1,0-0.3,0-0.7,0v-0.5h4L135.6,188.5z M135.6,213.4
			l0.4,3.3h-4v-0.5c0.4,0,0.6,0,0.6,0c0.8,0,1.5-0.3,2-0.8c0.5-0.5,0.8-1.2,0.9-2H135.6z M141.7,185.1v31.6h-6.2v-31.6H141.7z
			 M147.2,185.1c1.5,0,3,0.2,4.3,0.5c1.3,0.3,2.5,0.8,3.6,1.5c1,0.7,1.8,1.6,2.4,2.7c0.6,1.1,0.9,2.4,0.9,3.9c0,1.3-0.3,2.6-0.8,3.8
			c-0.6,1.2-1.4,2.3-2.5,3.2c-1.1,0.9-2.5,1.4-4.2,1.6c0.9,0.3,1.8,0.9,2.7,1.8c0.9,0.9,1.6,1.8,2.1,2.6c0.1,0.2,0.4,0.6,0.8,1.2
			c0.4,0.6,0.9,1.3,1.5,2.2c0.6,0.8,1.2,1.6,1.8,2.4c0.7,0.9,1.3,1.6,1.9,2.2c0.6,0.5,1.1,0.9,1.8,1.2c0.6,0.2,1.3,0.4,2.1,0.4v0.5
			h-3.5c-1.9,0-3.5-0.2-4.8-0.5c-1.3-0.3-2.4-0.9-3.3-1.6c-0.9-0.7-1.7-1.6-2.4-2.7c-0.2-0.4-0.6-0.9-1-1.6
			c-0.4-0.7-0.8-1.4-1.2-2.1c-0.4-0.7-0.8-1.4-1.2-2.1c-0.4-0.6-0.6-1.1-0.7-1.5c-0.5-1.1-1.1-1.9-1.8-2.4c-0.7-0.6-1.4-0.9-2.1-0.9
			v-0.5c0,0,0.2,0,0.6,0c0.4,0,0.8,0,1.3,0c0.8,0,1.6-0.2,2.4-0.4c0.8-0.2,1.6-0.7,2.2-1.4c0.7-0.7,1.2-1.8,1.5-3.3
			c0.1-0.3,0.2-0.6,0.2-1.1c0.1-0.4,0.1-0.9,0-1.4c0-1.2-0.2-2.2-0.6-3c-0.4-0.8-0.9-1.4-1.5-1.9c-0.6-0.5-1.2-0.8-1.9-1
			c-0.7-0.2-1.4-0.3-2-0.4c-1,0-1.9,0-2.7,0c-0.8,0-1.2,0-1.4,0c0,0-0.1-0.2-0.2-0.5c-0.1-0.3-0.2-0.8-0.3-1.5H147.2z M141.6,213.4
			h0.1c0,0.8,0.4,1.5,0.9,2c0.6,0.5,1.3,0.8,2,0.8c0.4,0,0.5,0,0.6,0l0.1,0.5h-4.1L141.6,213.4z"/>
		<path d="M163.2,184.2c0.3,0.1,0.7,0.2,1.4,0.4c0.6,0.1,1.3,0.3,2.1,0.3c0.8,0.1,1.5,0.1,2.2,0.1l-5.6,0.5V184.2z M193.1,185.1v1.9
			h-29.9v-1.9H193.1z M167.8,186.9v0.2c-1.3,0-2.3,0.4-3,1.2c-0.7,0.8-1.1,1.7-1.1,3v0.6h-0.5v-4.9H167.8z M175.1,213.4v3.3h-3.6
			v-0.5h0.6c0.8,0,1.5-0.3,2.1-0.8c0.6-0.5,0.9-1.2,0.9-2H175.1z M181.3,185.3v31.4H175v-31.4H181.3z M181.1,213.4h0.2
			c0,0.8,0.3,1.4,0.9,2s1.3,0.8,2.1,0.8h0.5v0.5h-3.7V213.4z M193.1,184.2v1.4l-5.7-0.5c0.7,0,1.4,0,2.2-0.1
			c0.8-0.1,1.5-0.2,2.1-0.3C192.4,184.5,192.9,184.3,193.1,184.2z M193.1,186.9v4.9h-0.6v-0.6c0-1.2-0.3-2.2-1-3
			c-0.7-0.8-1.7-1.1-3-1.2v-0.2H193.1z"/>
		<path d="M199.9,188.5h-0.2c0-0.8-0.3-1.5-0.8-2c-0.6-0.5-1.2-0.8-2.1-0.8c0,0-0.2,0-0.6,0v-0.5h3.7V188.5z M199.9,213.4v3.3h-3.7
			v-0.5c0.4,0,0.6,0,0.6,0c0.8,0,1.5-0.3,2.1-0.8c0.6-0.5,0.8-1.2,0.8-2H199.9z M205.9,185.1v31.6h-6.2v-31.6H205.9z M222.1,200.1
			v1.9h-16.7v-1.9H222.1z M205.7,188.5v-3.3h3.7v0.5h-0.6c-0.8,0-1.5,0.3-2.1,0.8c-0.6,0.5-0.9,1.2-0.9,2H205.7z M205.7,213.4h0.2
			c0,0.8,0.3,1.4,0.9,2c0.6,0.5,1.3,0.8,2.1,0.8h0.6v0.5h-3.7V213.4z M221.7,188.5h-0.2c0-0.8-0.3-1.5-0.9-2
			c-0.5-0.5-1.2-0.8-2.1-0.8h-0.6v-0.5h3.7V188.5z M221.7,213.4v3.3h-3.7v-0.5h0.6c0.8,0,1.5-0.3,2.1-0.8c0.5-0.5,0.8-1.2,0.9-2
			H221.7z M227.7,185.1v31.6h-6.2v-31.6H227.7z M227.6,213.4h0.2c0,0.8,0.3,1.4,0.9,2c0.6,0.5,1.2,0.8,2.1,0.8h0.6v0.5h-3.7V213.4z
			 M227.6,188.5v-3.3h3.7v0.5h-0.6c-0.8,0-1.5,0.3-2.1,0.8c-0.6,0.5-0.8,1.2-0.8,2H227.6z"/>
		<path d="M238.3,185.1v2.7h-0.1c0-0.6-0.3-1.2-0.7-1.6c-0.5-0.4-1-0.7-1.7-0.7h-0.8v-0.5H238.3z M244.4,185.1V205
			c0,3.3,0.8,5.8,2.4,7.7s3.8,2.8,6.5,2.8c2.9,0,5.3-0.9,6.9-2.7c1.7-1.8,2.5-4.2,2.5-7.3v-20.5h3.1v20.2c0,3.8-1.1,6.7-3.4,8.8
			c-2.3,2.1-5.5,3.2-9.7,3.2c-4.7,0-8.3-1.1-10.8-3.2c-2.5-2.1-3.7-5-3.7-8.8v-20.3H244.4z M247.5,185.1v0.5h-0.8
			c-0.6,0-1.2,0.2-1.7,0.7c-0.5,0.4-0.7,1-0.7,1.6h-0.1v-2.7H247.5z M262.8,185.1v2.7h-0.1c0-0.6-0.2-1.2-0.7-1.6
			c-0.5-0.4-1-0.7-1.7-0.7h-0.8v-0.5H262.8z M269,185.1v0.5h-0.7c-0.7,0-1.2,0.2-1.7,0.7c-0.5,0.4-0.7,1-0.8,1.6h-0.1v-2.7H269z"/>
		<path d="M276.8,183.7h-0.2c0-0.9-0.4-1.7-1-2.3c-0.6-0.6-1.4-1-2.3-1c0,0-0.1,0-0.3,0c-0.2,0-0.3,0-0.3,0v-0.5h4.2V183.7z
			 M276.8,212.9v3.8h-4.2v-0.5c0,0,0.1,0,0.3,0c0.2,0,0.3,0,0.3,0c0.9,0,1.7-0.3,2.3-1c0.6-0.6,1-1.4,1-2.3H276.8z M283.1,179.9
			v36.8h-6.4v-36.8H283.1z M289.4,179.9c1.6,0,3.1,0.2,4.5,0.6c1.4,0.4,2.7,1,3.8,1.8c1.1,0.8,1.9,1.8,2.6,3.1
			c0.6,1.2,0.9,2.7,0.9,4.4c0,1.5-0.3,3.1-1,4.6c-0.7,1.5-1.6,2.8-2.9,3.8c-1.3,1-2.9,1.6-4.8,1.7c0.9,0.3,1.8,0.9,2.7,1.8
			c0.9,0.9,1.6,1.7,2.1,2.6c0,0,0.3,0.4,0.7,1c0.4,0.6,0.9,1.4,1.5,2.2c0.6,0.9,1.2,1.8,1.9,2.6c0.6,0.9,1.2,1.6,1.7,2.2
			c0.8,0.9,1.5,1.7,2.1,2.2c0.6,0.6,1.3,1,2.1,1.3s1.6,0.4,2.5,0.4v0.5h-4.4c-1.8,0-3.4-0.2-4.9-0.6c-1.4-0.4-2.7-1-3.7-1.7
			c-1.1-0.8-2-1.7-2.7-2.9c-0.2-0.3-0.5-0.8-0.9-1.4c-0.4-0.6-0.8-1.4-1.3-2.2c-0.5-0.8-0.9-1.6-1.3-2.3c-0.4-0.8-0.8-1.4-1.1-2
			c-0.3-0.6-0.5-1-0.6-1.3c-0.6-1-1.2-1.8-1.8-2.5c-0.7-0.6-1.4-1-2.2-1.1v-0.5c0.1,0,0.3,0,0.7,0c0.4,0,0.8,0,1.3,0
			c0.9,0,1.9-0.2,2.9-0.5c1-0.3,1.8-0.9,2.6-1.8c0.8-0.9,1.3-2.1,1.7-3.6c0.1-0.3,0.1-0.7,0.2-1.2c0.1-0.5,0.1-1,0.1-1.5
			c-0.1-2.5-0.7-4.3-1.9-5.6c-1.2-1.3-2.6-1.9-4.4-2c-0.7,0-1.4,0-2.1,0s-1.4,0-1.9,0c-0.5,0-0.9,0-1,0c0,0,0-0.2-0.1-0.6
			c-0.1-0.3-0.2-0.9-0.4-1.5H289.4z M282.9,212.9h0.2c0,0.9,0.3,1.7,1,2.3c0.7,0.6,1.5,1,2.4,1c0,0,0.2,0,0.6,0v0.5h-4.2V212.9z"/>
	</g>
	<g>
		<path d="M182.1,157.7c0.4,0,0.9,0,1.4,0.1c0.5,0,1.1,0.1,1.7,0.2c0.6,0.1,1.1,0.1,1.5,0.2c0.4,0.1,0.7,0.2,0.9,0.2l-0.3,4h-0.3
			c0-1.1-0.4-1.9-1.2-2.6c-0.8-0.6-1.8-1-3-1c-1.2,0-2.2,0.3-2.9,1c-0.7,0.6-1.1,1.4-1.1,2.3c0,0.5,0.1,1,0.5,1.5
			c0.3,0.5,0.8,1,1.4,1.4l6.1,4.5c0.9,0.6,1.5,1.3,1.9,2.1c0.4,0.8,0.6,1.7,0.5,2.7c-0.1,1.9-0.8,3.5-2.1,4.6
			c-1.3,1.1-3.2,1.7-5.5,1.7c-0.8,0-1.6-0.1-2.4-0.2s-1.6-0.3-2.2-0.6c-0.7-0.3-1.2-0.6-1.6-1c-0.1-0.4-0.2-0.9-0.2-1.5
			c0-0.6,0.1-1.2,0.3-1.9c0.1-0.6,0.3-1.2,0.5-1.6h0.3c-0.1,1.1,0.1,2.1,0.5,2.9c0.4,0.9,1.1,1.6,1.9,2.1c0.9,0.5,1.9,0.7,3,0.7
			c1.3,0,2.4-0.4,3.2-1.1c0.8-0.7,1.2-1.6,1.2-2.7c0-0.6-0.2-1.2-0.5-1.7c-0.3-0.5-0.9-1-1.6-1.4l-5.7-4.3c-1-0.6-1.7-1.4-2.1-2.3
			c-0.4-0.9-0.6-1.8-0.5-2.8c0.1-1,0.3-1.9,0.9-2.8c0.5-0.8,1.2-1.5,2.1-2S180.9,157.7,182.1,157.7z M187.7,158l0,0.7h-3.3V158
			H187.7z"/>
		<path d="M194.6,163.3L194.6,163.3c-0.1-0.5-0.3-0.9-0.7-1.2c-0.4-0.3-0.8-0.5-1.4-0.5c0,0-0.2,0-0.4,0v-0.3h2.4V163.3z
			 M194.6,178.3v2h-2.4V180h0.4c0.5,0,1-0.2,1.4-0.5C194.3,179.2,194.5,178.8,194.6,178.3L194.6,178.3z M198.2,161.3v19h-3.7v-19
			H198.2z M198.1,163.3v-2h2.4l0,0.3h-0.3c-0.5,0-1,0.2-1.4,0.5C198.4,162.4,198.2,162.8,198.1,163.3L198.1,163.3z M198.1,178.3
			L198.1,178.3c0.1,0.5,0.3,0.9,0.7,1.2c0.4,0.3,0.8,0.5,1.4,0.5c0.2,0,0.4,0,0.4,0v0.3h-2.4V178.3z"/>
		<path d="M205.3,163.3L205.3,163.3c-0.1-0.5-0.3-0.9-0.6-1.2c-0.3-0.3-0.7-0.5-1.2-0.5c0,0-0.2,0-0.4,0v-0.3h2.4L205.3,163.3z
			 M205.3,178.3l0.2,2h-2.4V180c0.2,0,0.4,0,0.4,0c0.5,0,0.9-0.2,1.2-0.5C205.1,179.2,205.2,178.8,205.3,178.3L205.3,178.3z
			 M209,161.3v19h-3.7v-19H209z M212.3,161.3c0.9,0,1.8,0.1,2.6,0.3c0.8,0.2,1.5,0.5,2.2,0.9c0.6,0.4,1.1,0.9,1.5,1.6
			c0.3,0.7,0.5,1.4,0.5,2.4c0,0.8-0.2,1.5-0.5,2.3c-0.3,0.8-0.8,1.4-1.5,1.9c-0.7,0.5-1.5,0.8-2.5,1c0.5,0.2,1.1,0.5,1.6,1.1
			c0.5,0.5,1,1.1,1.3,1.6c0.1,0.1,0.2,0.3,0.5,0.7c0.2,0.4,0.5,0.8,0.9,1.3s0.7,1,1.1,1.5c0.4,0.5,0.8,1,1.1,1.3s0.7,0.6,1.1,0.7
			c0.4,0.1,0.8,0.2,1.3,0.2v0.3h-2.1c-1.1,0-2.1-0.1-2.9-0.3c-0.8-0.2-1.4-0.5-2-1c-0.5-0.4-1-1-1.5-1.6c-0.1-0.2-0.3-0.5-0.6-1
			c-0.2-0.4-0.5-0.8-0.7-1.3s-0.5-0.8-0.7-1.2c-0.2-0.4-0.3-0.7-0.4-0.9c-0.3-0.6-0.7-1.1-1.1-1.5c-0.4-0.3-0.8-0.5-1.2-0.5v-0.3
			c0,0,0.1,0,0.3,0c0.2,0,0.5,0,0.8,0c0.5,0,1-0.1,1.5-0.2s0.9-0.4,1.3-0.8c0.4-0.4,0.7-1.1,0.9-2c0.1-0.2,0.1-0.4,0.1-0.6
			c0-0.3,0-0.5,0-0.9c0-0.7-0.1-1.3-0.4-1.8c-0.2-0.5-0.5-0.8-0.9-1.1c-0.4-0.3-0.8-0.5-1.2-0.6c-0.4-0.1-0.8-0.2-1.2-0.2
			c-0.6,0-1.2,0-1.6,0s-0.7,0-0.9,0c0,0-0.1-0.1-0.1-0.3c0-0.2-0.1-0.5-0.2-0.9H212.3z M208.9,178.3L208.9,178.3
			c0.1,0.5,0.3,0.9,0.6,1.2c0.4,0.3,0.8,0.5,1.2,0.5c0.2,0,0.3,0,0.3,0l0,0.3h-2.4L208.9,178.3z"/>
	</g>
	<g>
		<path d="M240.9,84.5c-0.6-3.7-1.8-7.6-3.9-11.6l-0.7-1.4l-0.1-0.2l-0.5,0.9l-0.3,0.6c0,0-0.8,1.6-2.2,3.7c-0.3-0.2-0.6-0.5-1-0.8
			l0.5-0.5l1.1-1c2.1-2,2.9-4.3,2.1-6.5c-1.1-2.9-4.6-5-9.2-5.6c-4.7-0.5-6.4-3.3-7-5.1c4.2,2.5,8.4-0.4,8.5-0.5l1.6-1.2h-2
			c-0.8,0-4.5-1.4-6.8-5.9c-2.5-5-6.3-5.6-9-5.6c-1,0-1.7-0.1-2.2-0.1c-0.4-0.9-1-1.8-1.5-2.5c0.2-0.3,2.5-4.9,0.2-9.7l-0.3-0.6
			l-4.5,4l0,0.3c0,0,0.1,0.9-0.2,1.7c-1.1-0.7-2.2-1.1-3.2-1.5c0-0.2,0-0.3,0.1-0.4l0.1-0.3l-4.1-4h-0.1l-4.1,4l0.1,0.3
			c0,0.1,0.1,0.3,0.1,0.4c-1,0.3-2.1,0.8-3.2,1.5c-0.3-0.8-0.2-1.7-0.2-1.7l0-0.3l-4.5-4l-0.3,0.6c-2.3,4.8,0.1,9.5,0.2,9.7l0,0
			c-1.8,2.6-3.3,6.3-3.4,11.5l-1.1-1.8l0.4,3.5c0.3,2.7,1.5,11.7,3,13.2c0.3,0.3,0.7,0.6,1.1,0.9l-1.6,4l-4,1.2
			c-0.3-0.6-0.5-0.9-0.5-0.9l-0.3-0.6l-0.7,0.2l-5.5,1.7l0,0c-1-0.9-2.3-1.5-3.6-0.8c-0.6,0.3-1.3,0.9-1.8,1.2
			c-0.8-0.5-2.1-0.9-3.7,0c-1.2,0.7-2.2,1.4-2.8,1.9c-1.4-2.1-2.2-3.7-2.2-3.7l-0.8-1.6l-0.8,1.6c-2,4.1-3.2,8-3.9,11.7
			c-6-0.5-9.9-1.6-9.9-1.6c0,56.1,54,74,54,74s54-17.9,54-74C250.5,82.8,246.7,84,240.9,84.5z M236.2,75c7,15.4,2,29,0.4,32.6
			c-0.7-0.4-1.4-0.8-2.1-1h0c6-9.6,1.2-27.5,1.2-27.5l-2,3.3c0.8,3.2,1.1,6.2,1.2,8.8c0,0.8,0,1.5,0,2.2c0,0.3,0,0.7,0,1
			c0,0.7-0.1,1.3-0.1,1.9c0,0.4-0.1,0.8-0.1,1.1c-0.7,5.5-2.5,8.5-2.5,8.5c-0.3-0.1-0.6-0.1-0.9-0.2c-0.8-0.1-1.4-0.2-1.6-0.2
			c-10.3-1-14.4-5.6-14.7-9.1c-0.5-5,2.1-8.2,7.7-9.4C229.3,85.6,234.3,78.3,236.2,75z M233,120.2l-0.2,0.4l0,0.1l0,0l0,0l-0.1,0.2
			c0,0,0,0,0,0l-0.6-0.7c0,0,2.1-5.3,0.5-8.3l-3.4-2c0,0,0.7,4.6-0.5,7.6c0,0-5.6-8.1-23.9-6.8l-0.9,3.1c0,0,9.2,6.9,20.8,5
			c0,0-0.1,0.6-0.5,1.3c-0.5,0.5-1,0.9-1.6,1.3c-0.2,0.1-0.5,0.3-0.7,0.4c-0.1,0-0.2,0.1-0.4,0.2l-0.4,0.1c-0.1,0-0.3,0.1-0.4,0.1
			l-0.4,0.1c-0.3,0-0.5,0-0.8,0.1l-0.8,0l-0.8-0.1l0,0l0,0l0,0l0,0l-0.1,0l-0.2-0.1l-0.4-0.1c-0.3-0.1-0.5-0.2-0.8-0.2
			c-0.5-0.1-1-0.4-1.6-0.5c-0.5-0.2-1-0.4-1.6-0.6c-0.5-0.2-1-0.4-1.5-0.7c-0.5-0.2-1-0.5-1.5-0.7c-1-0.5-2-1-3-1.5l-1.5-0.8
			l-1.5-0.8c-0.7-0.4-1.4-0.7-2.1-1.1c0.2-3.4-0.4-5.8-1.1-7.4c0,0,0,0,0,0c-0.1-0.3-0.2-0.5-0.4-0.7c-0.2-0.4-0.5-0.8-0.7-1
			c-0.1-0.2-0.3-0.3-0.4-0.4c1.3-0.1,2.6-0.2,3.9-0.2c1.7-0.1,3.5-0.1,5.2-0.2c0.9,0,1.7,0,2.6,0c0.8,0,1.7,0,2.5,0
			c1.6,0,3.2,0,4.7,0.1c0.4,0,0.7,0,1.1,0.1c0.2,0,0.4,0,0.5,0l0.3,0c0.1,0,0.2,0,0.2,0c0.2,0,0.3,0,0.5,0.1c0.2,0,0.3,0,0.5,0.1
			c0.2,0,0.3,0.1,0.5,0.1c0.2,0,0.3,0.1,0.4,0.1c0.8,0.3,1.5,0.7,2.2,1.1c0.3,0.2,0.5,0.4,0.7,0.6c0.8,0.7,1.3,1.4,1.7,1.9
			c0.4,0.6,0.7,1.1,0.9,1.4c0.2,0.3,0.3,0.5,0.3,0.5s0-0.2-0.2-0.6c-0.1-0.4-0.3-0.9-0.6-1.6c-0.3-0.7-0.8-1.5-1.5-2.3
			c-0.1-0.1-0.3-0.3-0.4-0.5c1.3,0.3,2.7,0.5,4.3,0.7l0,0c0,0,0.2,0,0.4,0c0.8,0.4,1.6,0.8,2.2,1.5c0.3,0.3,0.6,0.7,0.9,1.2
			c0.1,0.1,0.1,0.2,0.2,0.4c0.1,0.1,0.1,0.2,0.2,0.3c0.1,0.2,0.2,0.4,0.3,0.7c0.4,1,0.6,2,0.6,3.1c0,1.1-0.1,2.2-0.4,3.3
			c-0.1,0.6-0.3,1.1-0.5,1.6C233.2,119.7,233.1,119.9,233,120.2z M213.3,144.3c-2.1-0.8-7.7-2.4-17.4-2.5v0h-0.7h-0.7v0
			c-9.7,0.1-15.3,1.7-17.4,2.5v-9.5h12.7l0,0h5.4v0h5.8h12.3V144.3z M203.1,150.5l-7.3,3.9v-11.3c2.7,0,5.2,0.2,7.3,0.4V150.5z
			 M194.5,154.4l-7.3-3.9v-7c2.1-0.2,4.5-0.4,7.3-0.4V154.4z M167.3,130.1c0-0.1-0.1-0.2-0.1-0.3c-0.1-0.3-0.2-0.7-0.4-1.1
			c-0.1-0.2-0.1-0.5-0.2-0.8c0-0.2-0.1-0.4-0.1-0.6c1.4,1.1,4.3,2.8,5.1,2.8h13.7V128h-13.7c-0.6,0-4.2-2.2-5.2-3
			c0-0.3,0-0.6,0.1-0.9c0-0.2,0.1-0.3,0.1-0.5c0-0.2,0.1-0.3,0.1-0.5c0-0.1,0.1-0.3,0.1-0.4c0.1-0.1,0.1-0.3,0.2-0.4
			c0.1-0.3,0.2-0.5,0.4-0.7c0-0.1,0.1-0.1,0.1-0.2c0.1-0.1,0.2-0.3,0.2-0.4c0.1-0.2,0.2-0.3,0.3-0.4c0.2-0.2,0.3-0.4,0.3-0.4
			s-0.1,0.1-0.3,0.3c-0.1,0.1-0.2,0.2-0.4,0.4c-0.1,0.2-0.3,0.4-0.4,0.6c-0.2,0.2-0.3,0.4-0.5,0.7c-0.1,0.1-0.2,0.3-0.2,0.4
			c-0.1,0.1-0.1,0.3-0.2,0.4c-0.1,0.2-0.1,0.3-0.2,0.5c-0.1,0.2-0.1,0.3-0.2,0.5c-0.1,0.3-0.2,0.7-0.3,1c-0.1,0.3-0.1,0.7-0.1,1
			c0,0.3-0.1,0.7,0,1c0,0.3,0,0.6,0,0.9c0,0.3,0.1,0.6,0.1,0.8c0,0.1,0,0.1,0,0.2c-2.1-1.6-4.7-4-5-6.6c-0.2-1.9,0.1-3.5,0.7-4.8
			c0.3-0.7,0.8-1.3,1.3-1.8c1.1-1.1,2.8-2,5-2.6l9.9,2.3c0,1.8,0.1,3.8,0.1,3.8s0,0,0,0c0,0.1,0,0.2,0,0.2l0,0.4l0,0.2l0,0.6l0,0.1
			l0.1,0.1c0.2,0.3,0.3,0.5,0.5,0.7c0.2,0.2,0.3,0.4,0.5,0.6c0,0,0,0.1,0.1,0.1c0.2,0.2,0.4,0.4,0.6,0.6c0.2,0.2,0.4,0.4,0.6,0.6
			c0.2,0.2,0.4,0.4,0.6,0.6c0.2,0.2,0.4,0.4,0.7,0.6l0.7,0.5l0.7,0.5c0.2,0.2,0.5,0.3,0.7,0.5c0.2,0.2,0.5,0.3,0.7,0.5l0.8,0.4
			c0.1,0,0.2,0.1,0.3,0.1l0,0c0.2,0.1,0.3,0.2,0.5,0.2c0.3,0.1,0.5,0.3,0.8,0.4l0.8,0.3c0.3,0.1,0.6,0.2,0.8,0.3l0.4,0.1
			c0.1,1.6,0.3,3,0.5,4c-0.8-0.4-1.9-1-2.7-1.8l-0.2-0.2h-0.6h0h0h-17.3C168.2,130.8,167.8,130.5,167.3,130.1
			C167.3,130.2,167.3,130.2,167.3,130.1z M179.5,91.3l16,5.3v7.4c-0.1,0-0.2,0-0.3,0c-0.9,0.1-1.7,0.2-2.5,0.4
			c-0.4,0.1-0.8,0.1-1.2,0.2c-0.2,0-0.4,0.1-0.6,0.1c-0.2,0-0.4,0.1-0.6,0.1c-0.4,0.1-0.8,0.2-1.2,0.3c-0.4,0.1-0.8,0.2-1.1,0.3
			c-1.5,0.4-2.9,0.9-4.1,1.5c-1.2,0.6-2.3,1.2-3.1,1.9c-0.5,0.4-0.9,0.7-1.3,1.1c-0.4-0.2-0.9-0.3-1.4-0.5c1-0.8,6.9-6.2,6.1-15.1
			l-2.3-0.6c0,0,0.7,8.4-7.1,11.7c-0.1-0.4-0.2-0.8-0.2-1.2c5-2.8,5.7-6.6,5.8-7.6C180.4,94.6,180.1,92.9,179.5,91.3z M206.1,90
			c-1.4,0.8-2.8,1.4-4,1.9c4-2,9.4-5,13.4-9C212.4,86.1,209,88.4,206.1,90z M213.2,96.7c0.1,1,0.7,4.4,5,7.2c-1-0.1-2-0.2-3-0.3
			c-5-3.5-3.6-9.8-3.6-9.8l-2.3,0.6c-0.4,4.7,1,7.6,1.9,9c-1,0-1.9-0.1-2.9,0c-1.7,0-3.5,0-5.3,0.1c-1.7,0.1-3.4,0.2-5.1,0.3v-7.2
			l16-5.3C213.2,92.9,213,94.6,213.2,96.7z M198.9,105.6c0.2,0.4,0.4,0.8,0.6,1.2c0.1,0.4,0.3,0.7,0.4,1.1c0.7,2.5,0.8,5.4,0.8,6.7
			l-0.1,0c-0.6-0.1-1.2-0.2-1.8-0.3c-0.1-1.4-0.4-3.9-1.5-6.1c-0.1-0.3-0.3-0.6-0.5-0.8c-0.1-0.1-0.1-0.2-0.2-0.3c0,0,0,0,0,0
			c-0.3-0.4-0.6-0.8-1-1.2C196.7,105.7,197.8,105.6,198.9,105.6z M200.5,123.9v1.8h-6.8v1.6h6.1v2.2h-6.1v1.6h5.5v1.9h-8.2
			c-0.1-1-0.7-3.1-0.7-5.3l0.1-3.9l0.1-3.4c0.1,0,0.3,0,0.4-0.1l0.6-0.2c0.2-0.1,0.4-0.1,0.6-0.2c0.1,0,0.2-0.1,0.2-0.1h0.8h7.9v1.3
			v1h-7.1v1.6H200.5z M196,107.2c0.6,1.2,1.2,2.9,1.4,4.9c-1.8,0.2-7.8,1.1-12.5,4.2v2.5h1.7c0,0,6.2-1.5,9.1-3.8c0,0,0,0,0,0.1
			c-0.1,0.1-0.2,0.3-0.3,0.4c-0.2,0.3-0.4,0.5-0.7,0.8l-0.4,0.4l-0.4,0.3c-0.1,0.1-0.3,0.2-0.4,0.3c-0.1,0.1-0.3,0.2-0.4,0.3
			c-0.1,0.1-0.3,0.2-0.4,0.3c-0.1,0.1-0.3,0.2-0.4,0.2l-0.5,0.2c-0.2,0.1-0.3,0.1-0.5,0.2c-0.2,0.1-0.3,0.1-0.5,0.2l-0.5,0.1
			c-0.2,0.1-0.3,0.1-0.5,0.1l-0.5,0.1l-0.9,0.2l0,0.8l0,4.2l0,3c-0.1,0-0.2-0.1-0.3-0.1l-0.8-0.3c-0.3-0.1-0.5-0.2-0.8-0.3
			c-0.3-0.1-0.5-0.2-0.8-0.3l-0.3-0.1v-4.1l-1.4-1.3v4.7c-0.2-0.1-0.4-0.2-0.5-0.3l-0.7-0.4l-0.7-0.5c0,0-0.1,0-0.1-0.1v-4.3
			l-1.4-1.4v4.6c-0.2-0.1-0.3-0.3-0.5-0.4c-0.2-0.2-0.4-0.4-0.6-0.5c-0.2-0.2-0.4-0.4-0.6-0.6c-0.2-0.2-0.3-0.3-0.4-0.5l-0.1-0.4
			l-0.1-0.6c0-0.4-0.1-0.8-0.1-1.2c0-0.8,0-1.6,0-2.4c0-0.6,0-1.2,0-1.7c0-0.4,0.1-0.8,0.2-1.2c0,0,0,0,0,0c0.6-2.2,2.3-3.5,2.8-3.8
			c0.8-0.5,1.7-0.9,2.7-1.3c1.2-0.4,2.5-0.8,4-1.1c0.4-0.1,0.7-0.1,1.1-0.2c0.4-0.1,0.8-0.1,1.2-0.2c0.2,0,0.4-0.1,0.6-0.1
			c0.2,0,0.4-0.1,0.6-0.1c0.4-0.1,0.8-0.1,1.2-0.2c0.8-0.1,1.6-0.2,2.5-0.3c0.1,0.2,0.2,0.4,0.3,0.6
			C195.8,106.7,195.9,106.9,196,107.2z M176.5,110.2c0.7,0.3,1.4,0.6,1.9,0.8c0,0-0.1,0.1-0.1,0.1c0,0,0,0,0,0.1
			c-0.3,0.5-0.4,0.9-0.5,1.2c-0.1,0.2-0.1,0.3-0.1,0.4c0,0.1-0.1,0.7-0.1,1.4l-0.6-0.1C177.4,113.1,177,111.5,176.5,110.2z
			 M174.4,108.8L174.4,108.8c1,2,1.8,4.5,1.2,5l0,0l-8-1.8l-0.2,0c-1.2,0.3-2.2,0.7-3.1,1.1c-1.2,0.6-2.2,1.3-3,2.1
			c-1,1.1-1.6,2.4-1.9,3.9l-1.5-10.4c1-0.6,2.3-1,3.4-1.2c1.4-0.3,2.5-0.4,2.5-0.4l0,0c0.3,0,0.5-0.1,0.8-0.1
			c3.6-0.4,6.3-1.2,8.5-2.2c0.2,1.2,0.7,2.9,1.1,3.7C174.3,108.7,174.4,108.7,174.4,108.8z M232.3,77.9c-2.4,3.1-5.9,6.8-10.1,7.7
			c-3.1,0.7-5.4,1.9-6.9,3.6l-13.8,4.5c1.6-0.6,3.4-1.4,5.3-2.4c1.5-0.8,3.2-1.8,5-3.1c2.8-1.6,5.2-3.8,7.2-5.9
			c-0.3-0.1-0.5-0.2-0.8-0.3c1.4-1.7,2.6-3.7,3.6-5.9c0.5-0.6,1.6-1.6,2.2-1.3c0.2,0.1,0.4,0.2,0.6,0.4c0.4,0.3,0.8,0.6,1.1,0.8
			c-0.1,0.2-0.3,0.5-0.5,0.9c-0.2,0.4-0.5,0.9-0.8,1.5c-0.3,0.5-0.7,1.1-1.1,1.6c-0.2,0.3-0.4,0.5-0.6,0.8c-0.2,0.3-0.4,0.5-0.6,0.8
			c-0.2,0.2-0.4,0.5-0.6,0.7c-0.2,0.2-0.4,0.4-0.6,0.6c-0.2,0.2-0.4,0.3-0.5,0.5c-0.2,0.1-0.3,0.2-0.4,0.3c-0.2,0.2-0.4,0.3-0.4,0.3
			s0.2-0.1,0.4-0.2c0.1-0.1,0.3-0.2,0.5-0.3c0.2-0.1,0.4-0.3,0.6-0.4c0.2-0.1,0.4-0.3,0.7-0.5c0.2-0.2,0.5-0.4,0.7-0.6
			c0.3-0.2,0.5-0.4,0.8-0.7c0.3-0.2,0.5-0.5,0.7-0.7c0.5-0.5,1-1,1.4-1.5c0.4-0.5,0.8-1,1.1-1.4c0.3-0.4,0.6-0.8,0.7-1
			c0.1-0.1,0.2-0.2,0.2-0.3l0,0c0.2-0.2,0.8-0.9,2.1-0.2C230.7,76.7,231.7,77.4,232.3,77.9z M232.7,73.6l-0.4,1.3l-0.2,0.8
			c-0.5-0.3-1.1-0.7-1.7-1.1c-1.6-0.9-2.9-0.5-3.7,0c-0.5-0.4-1.2-0.9-1.8-1.2c-1.3-0.7-2.7,0-3.7,0.9l-0.4-0.1l-5.4-1.7l-0.7-0.2
			l-0.3,0.6c0,0-0.2,0.3-0.5,0.9l-4-1.2l-1.6-4c0.5-0.4,0.9-0.7,1.1-0.9c0.6-0.5,1.1-2.2,1.5-4.1c3.9,5.9,9.3,5.5,14.1,5.2
			c1.1-0.1,2.3-0.2,3.4-0.2c1.7,0,2.8,0.4,3.5,1.3C233.3,71.3,232.7,73.6,232.7,73.6z M207.9,74.4c0.3-0.6,0.5-1,0.5-1l-1.7-3.2
			c0.2-0.1,0.3-0.2,0.4-0.3l1.4,3.4C208.4,73.6,208.1,74,207.9,74.4z M212.1,45.2c2.5,0,5.6,0.5,7.7,4.8c1.7,3.4,4.3,5.4,6.2,6.2
			c-1.6,0.6-4.3,1.1-6.8-1.3l-1.3-1.2l0.1,1.7c0,0.1,0.5,7,8.6,8c4,0.5,7.2,2.3,8,4.7c0.4,1.2,0.3,2.4-0.4,3.6
			c-0.1-0.8-0.3-1.8-1-2.6c-0.1-0.1-0.3-0.3-0.4-0.4c-1-0.9-2.4-1.3-4.2-1.3c-1.2,0-2.4,0.1-3.5,0.2c-5.2,0.4-10.1,0.7-13.6-5.9
			c0.4-2.1,0.7-4.2,0.9-5.7c0.1-0.5,0.1-1,0.2-1.3l0.4-3.5l-1.1,1.8c-0.1-3-0.6-5.5-1.4-7.6C210.9,45.2,211.4,45.2,212.1,45.2z
			 M210.3,55.1c-0.7,0.8-1.6,1.3-2.6,1.6l1.5-3.6l-1.7-1.2c1.3-0.5,2-0.9,2.1-0.9l0.4-0.3l-0.1-0.4c-0.4-1.7-1.1-3.1-1.9-4.4
			c-0.6-1.7-1.6-3.1-2.8-4.3h1.4C209.2,44.9,210.4,49.7,210.3,55.1z M204.2,51.4l-0.5-1.3c0,0-2.5,1.2-6.9,1.2c0,0,2.6-2.6,3.1-5.6
			c0,0-1.5-1.3-3.6-2v0v8.3c-3.3,0-5.8-0.4-7.7-0.8c-0.3-0.1-0.7-0.1-0.9-0.2c1.2-5.4,7.1-7.4,8.7-7.8c0.1,0,0.1,0,0.2,0
			c1.3,0.3,7.6,2.2,8.8,7.8C205,51.2,204.6,51.3,204.2,51.4z M196.4,42.3C196.4,42.3,196.4,42.3,196.4,42.3
			c-0.6,0.1-2.4,0.6-4.2,1.7c-0.1,0-0.1,0.1-0.2,0.1c-2.2,1.3-3.8,3-4.7,4.9c-0.3,0.6-0.5,1.2-0.6,1.8c-0.5-0.1-0.9-0.3-1.2-0.4
			c-0.4-0.2-0.7-0.3-0.9-0.4c1.3-4.3,4.3-6.9,7-8.5h2.3h2.2h0.3L196.4,42.3L196.4,42.3z M187.2,52.4c2.1,0.6,5.1,1,9.1,1.1v1.7h0
			l0,0c-0.1,0-4.9,2.3-9.2,1.9l-1.4-3.5L187.2,52.4z M206.3,50.8c-0.2-0.7-0.4-1.3-0.7-1.9c-0.9-1.9-2.5-3.6-4.7-4.8
			c-0.1-0.1-0.2-0.1-0.3-0.2l0.5-1.1c-0.7-0.5-1.5-0.9-2.2-1.3h2.5c2.7,1.6,5.7,4.2,7,8.5c-0.2,0.1-0.6,0.3-1.1,0.5
			C207.1,50.6,206.7,50.7,206.3,50.8z M202.3,37.9c-0.1,0-0.1,0-0.2,0c-0.5,0-0.9-0.1-1.2-0.4c-0.1-0.1-0.1-0.2-0.2-0.3
			C201.2,37.3,201.8,37.6,202.3,37.9z M192.3,37.1c-0.1,0.1-0.1,0.2-0.2,0.3c-0.3,0.3-0.6,0.4-1.2,0.4c-0.1,0-0.1,0-0.2,0
			C191.2,37.6,191.7,37.3,192.3,37.1z M185,32.6l0.4,0.4l0.8,0.7l1.8,1.6c0,0.5-0.1,1.8,0.7,2.7c0.2,0.2,0.3,0.3,0.5,0.4
			c0.2,0.1,0.4,0.2,0.6,0.3c0.3,0.1,0.6,0.1,0.9,0.1c0.6,0,1-0.1,1.4-0.4c0.2-0.1,0.4-0.3,0.6-0.5c0.4-0.5,0.6-1.2,0.6-1.8
			c0-0.5,0-0.9-0.1-1.1l3-3l3,3c-0.1,0.6-0.2,2,0.6,3c0.5,0.5,1.1,0.8,2,0.8c0.9,0,1.6-0.3,2.1-0.8c0.8-0.9,0.8-2.1,0.7-2.7l3-2.7
			c1.4,3.5,0.1,7-0.3,7.9h-0.1h-10.5H196h-9.7h-0.9C184.9,39.6,183.7,36.2,185,32.6z M186.4,41.5h1.2h1.5c-1.6,1.1-3.2,2.7-4.4,4.9
			c-0.6,1.1-1.2,2.4-1.6,3.8l-0.1,0.4l0.4,0.3c0.1,0,0.7,0.5,2.1,0.9l-1.7,1.2l1.5,3.6c-1-0.3-1.8-0.8-2.6-1.6
			C182.6,49.7,183.8,44.9,186.4,41.5z M184.7,66.7c-0.7-0.6-1.6-5.2-2.3-9.8c2,1.5,4.8,2,8.2,1.5c2.5-0.4,4.7-1.2,5.7-1.6
			c0.1,0,0.1,0,0.2-0.1c1,0.4,3.3,1.3,5.9,1.7c3.5,0.5,6.3,0,8.2-1.5c-0.7,4.6-1.6,9.2-2.3,9.8c-0.5,0.5-1.7,1.4-3.4,2.4l0.1-1
			l0.5-0.2l0.6-7.6l-0.7,0l0-0.2l-1.3-0.1l-0.3,9.7c-0.6,0.3-1.2,0.6-1.9,0.9l0.1-1.5l0.5-0.2l0.7-8.8l-0.6-0.1l0-0.2l-1.7-0.2
			l-0.3,11.5c-0.4,0.2-0.9,0.3-1.3,0.5l0.8-12.1l-3.6-1.4v14.2c0,0,0,0-0.1,0c-1-0.2-2.1-0.5-3-0.9c-0.5-0.2-0.9-0.3-1.3-0.5
			c-0.4-0.2-0.8-0.3-1.2-0.5c-0.7-0.3-1.3-0.6-1.9-1c-0.4-0.2-0.8-0.4-1.2-0.7C186.3,68,185.1,67.1,184.7,66.7z M185.9,69.8
			c0.1,0.1,0.2,0.2,0.3,0.2c0.5,0.4,1.1,0.8,1.8,1.3c0.3,0.2,0.6,0.4,0.9,0.6c1.9,1.2,4.4,2.6,6.9,3.4c0.2,0.1,0.4,0.1,0.6,0.2
			c0,0,0,0,0.1,0h0.2c0.1,0,0.2-0.1,0.3-0.1l-0.5,0.3l0,0v5.9c-1.5-0.4-6.2-1.9-9.5-5.2c-0.3-0.3-0.6-0.7-0.9-1
			c-0.5-0.7-1-1.4-1.4-2.2c0,0,0-0.1,0-0.1L185.9,69.8z M183.2,74.1c0.4,0.8,0.9,1.6,1.5,2.3c0.3,0.4,0.7,0.8,1.1,1.2
			c3.9,3.9,9.6,5.4,10.6,5.6l0,3.6c-5.9-1.9-10.1-4.9-12.7-7.4c-0.4-0.3-0.7-0.7-1-1c-0.2-0.2-0.3-0.3-0.5-0.5c-0.9-1-1.7-2-2.2-2.8
			L183.2,74.1z M177.4,74.1c0.5,1,1.8,2.9,3.9,5.2c2.7,2.9,7.6,6.8,15,9.1c0,0,0,0,0.1,0h0.2c7.5-2.3,12.3-6.2,15.1-9.1
			c2.2-2.3,3.4-4.3,3.9-5.2l0.6,0.2l0.6,0.2l3.6,1.1l0.1,0c-0.1,0.2-0.2,0.4-0.3,0.6c-0.3,0.6-0.7,1.3-1,1.9l-4.4-1
			c0,0-5.2,9.5-18.3,12.3c0,0-0.1,0-0.1,0v4.2c-1.1-0.3-3.6-1-6.7-2.4c-0.8-0.4-1.7-0.8-2.6-1.3c-2.2-1.2-4.7-2.8-7.1-4.9
			c-2.2-1.9-4.2-4.2-5.9-7c-0.5-0.8-0.9-1.6-1.3-2.4L177.4,74.1z M163.8,76c1.3-0.7,1.9,0,2.1,0.2l0,0c0,0.1,0.1,0.2,0.2,0.3
			c0.2,0.3,0.4,0.6,0.7,1c0.3,0.4,0.7,0.9,1.1,1.4c0.4,0.5,0.9,1,1.4,1.5c0.3,0.2,0.5,0.5,0.7,0.7c0.3,0.2,0.5,0.5,0.8,0.7
			c0.3,0.2,0.5,0.4,0.7,0.6c0.2,0.2,0.5,0.4,0.7,0.5c0.2,0.1,0.4,0.3,0.6,0.4c0.2,0.1,0.3,0.2,0.5,0.3c0.3,0.2,0.4,0.2,0.4,0.2
			s-0.1-0.1-0.4-0.3c-0.1-0.1-0.3-0.2-0.4-0.3c-0.2-0.1-0.3-0.3-0.5-0.5c-0.2-0.2-0.4-0.4-0.6-0.6c-0.2-0.2-0.4-0.4-0.6-0.7
			c-0.2-0.2-0.4-0.5-0.6-0.8c-0.2-0.3-0.4-0.5-0.6-0.8c-0.4-0.5-0.8-1.1-1.1-1.6c-0.3-0.5-0.5-0.9-0.8-1.3c0-0.1-0.1-0.1-0.1-0.2
			c-0.2-0.3-0.3-0.6-0.5-0.9c0.4-0.3,1.1-0.8,1.7-1.1c0.4-0.2,1,0.1,1.5,0.6l0,0c2.7,6.4,7.4,10.8,11.8,13.7
			c1.2,0.8,2.4,1.5,3.5,2.1c1.3,0.7,2.6,1.3,3.7,1.8l-11.8-3.9c-1.5-1.7-3.8-3-6.9-3.6c-3.6-0.8-6.8-3.6-9.1-6.4
			c-0.4-0.4-0.7-0.9-1-1.3C161.6,77.4,162.6,76.7,163.8,76z M157.2,75c0.9,1.6,2.5,4.1,4.7,6.4c0.7,0.7,1.4,1.5,2.2,2.1
			c1.9,1.6,4.2,3,6.7,3.5c5.6,1.2,8.1,4.4,7.7,9.4c-0.3,3.4-4,7.6-13.2,8.9c-0.5,0.1-1,0.1-1.5,0.2c-0.1,0-0.6,0-1.2,0.1
			c-0.4,0.1-0.8,0.1-1.3,0.2c0,0-5-8.7-1.5-23.5l-2-3.3c0,0-4.8,17.9,1.2,27.5h0c-0.7,0.3-1.5,0.6-2.1,1
			C155.2,104,150.2,90.4,157.2,75z"/>
		<polygon points="196.3,58.1 196.3,58.1 196.3,58.2 196.4,58.1 		"/>
		<polygon points="190.8,69.1 191.7,69.5 191.5,59.9 190.1,60.1 189.8,60.2 190.5,68.9 		"/>
		<polygon points="188.4,60.2 187.4,60.2 186.9,60.2 187.5,67.8 187.8,68 188.7,68.4 		"/>
		<path d="M223.8,88.9c-3.7,0-6.8,2.9-6.8,6.4c0,3.5,3,6.4,6.8,6.4c3.7,0,6.8-2.9,6.8-6.4C230.6,91.7,227.5,88.9,223.8,88.9z
			 M223.8,99.7c-2.6,0-4.7-2-4.7-4.4c0-2.4,2.1-4.4,4.7-4.4c2.6,0,4.7,2,4.7,4.4C228.5,97.7,226.4,99.7,223.8,99.7z"/>
		<path d="M169.6,101.6c3.7,0,6.8-2.9,6.8-6.4c0-3.5-3-6.4-6.8-6.4c-3,0-5.5,1.8-6.4,4.3c-0.2,0.7-0.4,1.4-0.4,2.1
			c0,1.1,0.3,2.2,0.9,3.1C164.8,100.3,167,101.6,169.6,101.6z M169.6,90.8c2.6,0,4.7,2,4.7,4.4c0,2.4-2.1,4.4-4.7,4.4
			s-4.7-2-4.7-4.4C164.9,92.8,167,90.8,169.6,90.8z"/>
		<path d="M198.5,35.4l-2-1.9l-2,1.9l2,1.9L198.5,35.4z M196.5,34.1l1.3,1.2l-1.3,1.2l-1.3-1.2L196.5,34.1z"/>
		<path d="M195.1,39l0.9,0.9l0.5,0.5l0.5-0.5l1-0.9l-1.4-1.4L195.1,39z M196.5,39.8l-0.8-0.8l0.8-0.8l0.8,0.8L196.5,39.8z"/>
		<path d="M201,140.4l2.1-2l-2.1-2l-2.1,2L201,140.4z M202.4,138.4l-1.4,1.3l-1.4-1.3l1.4-1.3L202.4,138.4z"/>
		<path d="M192,138.4l3.2,3l3.2-3l-3.2-3L192,138.4z M195.2,140.4l-2.1-2l2.1-2l2.1,2L195.2,140.4z"/>
		<path d="M187.3,138.4l2.1,2l2.1-2l-2.1-2L187.3,138.4z M189.4,139.7l-1.4-1.3l1.4-1.3l1.4,1.3L189.4,139.7z"/>
	</g>
	<path d="M132,177.7h-2.1c-0.3,0-0.5-0.2-0.5-0.5v-11c0-0.3,0.2-0.5,0.5-0.5h2.1c0.3,0,0.5,0.2,0.5,0.5v11
		C132.6,177.4,132.3,177.7,132,177.7z"/>
	<circle cx="110.3" cy="171.6" r="3.6"/>
	<rect x="113.3" y="168.5" width="1.3" height="6.1"/>
	<circle class="st1" cx="110.3" cy="171.6" r="1.7"/>
	<g>
		<polygon points="172,167.6 132.4,167.9 132.4,170.5 172,170.8 		"/>
		<polygon points="299.3,171.6 286.6,166.8 224.9,167.2 224.9,171.1 292.8,171.6 224.9,172 224.9,176 286.6,176.4 		"/>
		<polygon points="132.4,172.6 132.4,175.3 172,175.6 172,172.4 		"/>
		<polygon class="st1" points="292.8,171.6 224.9,171.1 224.9,172 		"/>
		<polygon class="st1" points="172,170.8 132.4,170.5 130.7,170.5 130.7,172.7 132.4,172.6 172,172.4 		"/>
	</g>
	<g>
		<g>
			<path d="M98.1,235.2l0.8,0.6H95l0.8-0.6v-4.7l-2.8,0.9v3.7l0.8,0.6H90l0.8-0.6v-3.8l-0.9-0.4l5.9-1.9v-3.3H93v3.8l-2.3,0.7v-4.2
				c0-0.9,0.8-1.4,2.3-1.4h0.2h2.6H96c1.4,0,2.1,0.5,2.1,1.4v4.1l0.8,0.4l-0.8,0.4V235.2z"/>
			<path d="M140.5,234.7c0.1,0.3,0.2,0.5,0.4,0.6c0.2,0.1,0.3,0.2,0.5,0.3c0.2,0,0.4,0,0.6,0v0.3c-0.6,0-1.1,0-1.5,0
				c-0.5,0-0.8-0.1-1.2-0.2c-0.3-0.1-0.6-0.4-0.8-0.7c-0.2-0.3-0.3-0.9-0.3-1.6c0-0.4-0.2-0.7-0.4-1c-0.3-0.3-0.6-0.5-0.9-0.7
				c-0.3-0.2-0.7-0.4-1-0.5c-0.4-0.1-0.6-0.2-0.9-0.2v4.4l0.8,0.6h-3.9l0.7-0.6v-4.5l-0.8-0.5c0.5-0.1,0.9-0.3,1.4-0.5
				c0.5-0.2,1-0.3,1.4-0.5c0.5-0.2,0.9-0.3,1.2-0.5c0.4-0.2,0.7-0.3,0.9-0.4c0.3-0.2,0.6-0.4,0.8-0.7c0.2-0.3,0.3-0.6,0.3-0.8v-1
				h-2.9v3c-0.4,0.1-0.8,0.3-1.2,0.4c-0.4,0.1-0.8,0.3-1.1,0.4v-4.3l-0.6-0.7h5.9c1.6,0,2.3,0.5,2.3,1.4v1c0,0.3-0.1,0.7-0.2,0.9
				c-0.1,0.3-0.3,0.5-0.6,0.7c-0.2,0.1-0.4,0.2-0.6,0.4c-0.2,0.1-0.6,0.3-1.1,0.5L137,230l-0.4,0.1c1.1,0.2,1.9,0.6,2.4,1
				c0.5,0.4,0.9,0.8,1.1,1.3c0.2,0.5,0.3,0.9,0.3,1.3C140.4,234.1,140.4,234.5,140.5,234.7z"/>
			<path d="M184.4,230.7l0,4.6l0.7,0.6h-0.7h-2.3h-0.9l0.9-0.6l0-4.5l-0.7-0.4l0.7-0.3l0-3l-2.9,2.9l-2.7-2.8l0,2.9l0.8,0.4
				l-0.8,0.3l0,4.3l1,0.8h-1h-2.3h-0.6l0.6-0.6l0-4.4l-0.7-0.4l0.7-0.4l0-4.9l-0.6-0.5h0.6h0.9c0.8,0,1.4,0.1,1.8,0.5l2.2,2.3l1.7-2
				c0.2-0.2,0.4-0.3,0.6-0.4c0.2-0.1,0.4-0.2,0.5-0.2c0.2,0,0.3-0.1,0.5-0.1c0.2,0,0.4,0,0.5,0h1.3h0.6l-0.6,0.5l0,4.8l0.7,0.3
				L184.4,230.7z"/>
			<path d="M226.3,229.1l0.8,0.4l-0.8,0.4v4.3c0,1.1-0.8,1.7-2.3,1.7h-0.2h-2.6h-0.2v0c-1.5,0-2.3-0.6-2.3-1.7V234V230l-0.8-0.4
				l0.8-0.4v-2.9c0-1.1,0.8-1.6,2.3-1.6h0.2h2.6c1.6,0,2.4,0.6,2.4,1.8V229.1z M223.8,225.7h-2.6v3.5l0.8,0.4l-0.8,0.3v5h2.6v-5
				l-0.6-0.4l0.6-0.3V225.7z"/>
			<path d="M268.6,234.7c0.1,0.3,0.2,0.5,0.4,0.6c0.2,0.1,0.3,0.2,0.5,0.3c0.2,0,0.4,0,0.6,0v0.3c-0.6,0-1.1,0-1.5,0
				c-0.5,0-0.8-0.1-1.2-0.2c-0.3-0.1-0.6-0.4-0.8-0.7c-0.2-0.3-0.3-0.9-0.3-1.6c0-0.4-0.2-0.7-0.4-1c-0.3-0.3-0.6-0.5-0.9-0.7
				c-0.3-0.2-0.7-0.4-1-0.5c-0.4-0.1-0.6-0.2-0.9-0.2v4.4l0.8,0.6H260l0.7-0.6v-4.5l-0.8-0.5c0.5-0.1,0.9-0.3,1.4-0.5
				c0.5-0.2,1-0.3,1.4-0.5c0.5-0.2,0.9-0.3,1.2-0.5c0.4-0.2,0.7-0.3,0.9-0.4c0.3-0.2,0.6-0.4,0.8-0.7c0.2-0.3,0.3-0.6,0.3-0.8v-1
				h-2.9v3c-0.4,0.1-0.8,0.3-1.2,0.4s-0.8,0.3-1.1,0.4v-4.3l-0.6-0.7h5.9c1.6,0,2.3,0.5,2.3,1.4v1c0,0.3-0.1,0.7-0.2,0.9
				c-0.1,0.3-0.3,0.5-0.6,0.7c-0.2,0.1-0.4,0.2-0.6,0.4c-0.2,0.1-0.6,0.3-1.1,0.5l-0.8,0.3l-0.4,0.1c1.1,0.2,1.9,0.6,2.4,1
				c0.5,0.4,0.9,0.8,1.1,1.3c0.2,0.5,0.3,0.9,0.3,1.3C268.5,234.1,268.5,234.5,268.6,234.7z"/>
			<path d="M309.5,227.7l0.6,0.6h-3.9l1-0.6v-1.8h-2.6v2.4l4.2,2.7c0.4,0.3,0.6,0.7,0.6,1.2v0.2v2.1c0,0.5-0.2,0.9-0.6,1.1
				c-0.4,0.2-1,0.3-1.7,0.3h-0.3h-2.8c-1.2,0-1.8-0.4-1.8-1.2v-0.2v-2.4l-0.6-0.7h3.8l-0.9,0.7v2.7h2.5v-3h0l-4-2.5l-0.2-0.1
				c-0.2-0.1-0.4-0.3-0.5-0.5c-0.1-0.2-0.1-0.4-0.1-0.6v-1.8v-0.3V226c0-0.8,0.8-1.3,2.3-1.3h2.6c0.8,0,1.3,0.1,1.7,0.3
				c0.4,0.2,0.6,0.5,0.6,1V227.7z"/>
		</g>
	</g>
</g>
<polygon class="st1" points="276.7,136.8 276.7,137.1 276.7,137.1 276.6,137.1 "/>
</svg>
