<svg xmlns="http://www.w3.org/2000/svg" xmlns:xlink="http://www.w3.org/1999/xlink" version="1.1" id="Capa_1" x="0px" y="0px" viewBox="0 0 400 282.5" style="enable-background:new 0 0 400 282.5;" xml:space="preserve">
<style type="text/css">
	.st0{fill:#0070D1;}
	.st1{fill:#FFFFFF;}
	.st2{fill:#00579F;}
	.st3{fill:#FAA61A;}
	.st4{clip-path:url(#SVGID_2_);}
	.st5{fill:#FF5F01;}
	.st6{fill:#EA001B;}
	.st7{fill:#F79E1C;}
	.st8{fill:none;stroke:#ffffff;stroke-width:0.8778;stroke-miterlimit:10;}
	.st9{fill:#ffffff;}
	.st10{fill:#ffffff;}
</style>
<g>
	<g>
		<path d="M136.9,181.7c0,4.9-1.7,9-5.2,12.4c-3.5,3.4-7.7,5.1-12.7,5.1c-3.1,0-6.5-1.3-10.4-3.9c-4.4-3-6.6-6.1-6.6-9.5    c0-1,2.1-2.9,6.2-5.8c0.2,4,1.5,7.2,3.7,9.6c2.2,2.4,5.4,3.6,9.3,3.6c6.4,0,9.5-1.9,9.5-5.8c0-2.8-1.5-4.9-4.5-6.3    c-0.6-0.3-3.3-1.1-8.1-2.4c-9-2.4-13.6-7-13.6-13.7c0-4.1,1.5-7.6,4.5-10.2c2.8-2.6,6.4-3.9,10.6-3.9c2.6,0,5.3,0.8,8,2.5    c2.7,1.6,4.4,3.6,5.2,6c-1.4,1-3.7,2.7-6.9,5.1c-0.9-3-1.8-4.9-2.8-6c-1.3-1.5-3.3-2.2-6-2.2c-1.6,0-3,0.4-4.2,1.3    c-1.3,0.9-2,2.2-2,3.8c0,4,3,6.3,8.9,6.8c4.5,0.4,8.3,1.6,11.3,3.7C135,174.2,136.9,177.5,136.9,181.7z" fill="#ffffff"/>
		<path d="M181.4,153.3c-2.8,3.3-5.1,5.8-6.9,7.6h-11.6c-3.5,0-6.6,1.9-9.4,5.8c-2.4,3.4-3.7,6.6-3.7,9.5c0,4,1.3,7.4,4,10.1    c2.7,2.8,6,4.2,9.9,4.2c4,0,7.9-1.5,11.8-4.6c0,3.7-2.4,6.9-7.2,9.5c-4,2.2-7.4,3.3-10.2,3.3c-4.5,0-8.3-1.8-11.5-5.4    c-3.2-3.6-4.8-7.7-4.8-12.2c0-4.1,1-7.7,3.1-11c1.7-2.6,4.4-5.4,8.1-8.3c-1.4-0.6-2.4-0.9-3-0.9c-3.6-0.1-6.7,0.6-9.2,1.8    c-0.9,0.5-2.6,1.4-5.1,2.6c6.8-8,10.7-12,11.6-12H181.4z" fill="#ffffff"/>
		<path d="M222.2,174.9c0,5.8-1.8,11.2-5.5,16.1c-4,5.4-9.1,8.1-15.1,8.1c-6.6,0-11.8-2-15.4-6.1c-3.6-4-5.5-9.4-5.5-16.1    c0-6.6,2.3-12.4,6.9-17.5s10.2-7.6,16.7-7.6c5.5,0,10,2.9,13.6,8.7C220.8,165.3,222.2,170.1,222.2,174.9z M214.5,179.7    c0-3.2-1.1-7.1-3.3-11.7c-2.9-6.1-6.8-9.1-11.5-9.1c-4,0-7,1.8-8.9,5.4c-1.4,2.5-2,5.3-2,8.3c0,4.1,1.2,8.2,3.7,12.2    c3,4.9,6.9,7.3,11.7,7.3c3.5,0,6.1-1.2,8-3.7C213.7,186.2,214.5,183.3,214.5,179.7z" fill="#ffffff"/>
		<path d="M277.9,216.6c0,3.6-2,6.7-6,9.2c-3.5,2.2-7.1,3.3-10.7,3.3c-5.2,0-9.2-2-12.1-6c-2.6-3.5-3.8-7.9-3.8-13.2    c0-5,0.8-9.7,2.4-14.2c1.1-2.8,2.6-7.1,4.6-12.8c0.9-2.7,1.4-5.9,1.4-9.5c0-3.4-0.5-6.7-1.6-10c-1.6-5.1-4.2-7.7-7.8-7.7    c-1.6,0-3.2,0.7-4.9,2s-2.6,2.8-2.6,4.3v24.7c-1.8,1.3-4.6,3.3-8.4,5.9v-27.1c0-0.9-1.4-2.9-4.2-6c1.6-1.6,5.7-5.2,12.3-10.7v0.5    c0,0.9,0.2,2.3,0.6,4.3c3.1-3.7,6.7-5.5,10.7-5.5c4.5,0,8,2.3,10.7,7c2,3.6,3.1,7.4,3.1,11.2c0,4.4-1,9.2-3,14.5    c-1.3,3.1-3,7.6-5.4,13.7c-1,2.8-1.5,5.5-1.5,8.2c0,4.5,1.6,8.6,4.9,12.3c3.3,3.7,7.2,5.5,11.6,5.5c2,0,3.5-0.2,4.5-0.6    c0.7-0.3,1.6-0.8,2.6-1.6C276.6,217.5,277.5,216.8,277.9,216.6z" fill="#ffffff"/>
		<path d="M300,183.9c0,4.2-2.2,7.9-6.6,11.1c-3.9,2.8-7.8,4.3-11.7,4.3c-5.3,0-9.7-2.5-13.2-7.4c-3.1-4.4-4.6-9.1-4.6-14.1    c0-5.6,2-10.9,6.1-15.9c4.5-5.7,9.8-8.5,15.9-8.5c3,0,5.5,0.5,7.5,1.6c0.9,0.5,2.8,2,5.9,4.5c-1.8,2.1-4.5,5.1-8.4,9    c-0.5-2.3-1.6-4.3-3.3-6c-1.7-1.7-3.7-2.6-5.9-2.6c-2.2,0-4.2,0.9-5.9,2.7c-1.7,1.8-2.6,3.8-2.6,6.1v4h14.3c-3.1,4.7-6.7,7-10.8,7    c-0.8,0-1.6-0.1-2.4-0.2c-0.2,0.3-0.4,0.4-0.4,0.4c-0.3,0.2-0.4,0.5-0.3,0.9v0.5c0,2.8,2.1,5.1,6.3,6.9c3,1.3,5.4,1.9,7.3,1.9    c2.2,0,4.5-0.8,6.9-2.3c2.4-1.6,4.1-3.3,5.1-5.3h0.3C299.8,183,300,183.5,300,183.9z" fill="#ffffff"/>
	</g>
	<g>
		<polygon class="st10" points="205.2,87.9 203.3,93.6 208.1,86.5   " fill="#ffffff"/>
		<path class="st10" d="M204.1,87.6l-2.1-3.5l-0.8,0.7l0.7,0.8c0.1,0.1,0.1,0.3,0.1,0.4l-0.5,9.4L204.1,87.6z" fill="#ffffff"/>
		<polygon class="st10" points="202.6,66.7 202.6,83 204.9,86.8 209.3,84.7 210.1,68.2 205.7,65   " fill="#ffffff"/>
		<path class="st10" d="M208.2,96.1l-0.9-6.3l-0.8,1.2l1.3,5.2C208,96.2,208.1,96.1,208.2,96.1z" fill="#ffffff"/>
		<path class="st10" d="M214.1,89.6l7.2-13.4l-0.2-5.8l-3.4-3c-2.7,4.3-6.5,10.7-7,11.7l-0.3,6.1c0,0.1,0,0.2-0.1,0.3l-1.8,2.6    L214.1,89.6z" fill="#ffffff"/>
		<polygon class="st10" points="208.9,65.9 204.2,57.8 206.2,64   " fill="#ffffff"/>
		<polygon class="st10" points="231.2,74 227.7,66 227.2,68.2 228.1,73.2   " fill="#ffffff"/>
		<polygon class="st10" points="226.1,67.7 226.8,64.9 218.8,66.8 221.8,69.4   " fill="#ffffff"/>
		<polygon class="st10" points="209.3,95.3 213.4,90.6 208.4,89.1   " fill="#ffffff"/>
		<path class="st10" d="M222.3,76.8l-7.2,13.5l1.4,3.2c3.6-1.6,6.8-3.7,9.7-6.3l5.3-11.9l-3.8-1L222.3,76.8z" fill="#ffffff"/>
		<path class="st10" d="M214.2,91.3l-3.8,4.3c1.7-0.4,3.3-1,4.9-1.6L214.2,91.3z" fill="#ffffff"/>
		<polygon class="st10" points="202.1,65.7 205,64.1 201.9,54.4 198.8,63   " fill="#ffffff"/>
		<polygon class="st10" points="222.3,70.5 222.4,75.5 226.9,73.3 226.2,69   " fill="#ffffff"/>
		<path class="st10" d="M205.6,92.2l-3.1,4.5c1.4,0,2.8-0.2,4.2-0.4L205.6,92.2z" fill="#ffffff"/>
		<path class="st10" d="M176.3,80.8l-2.4,3.7c3.3,3.7,7.4,6.7,12.1,8.8c0.9,0.4,1.9,0.8,2.8,1.1l3.7-1.1l-10.6-11.1    C181,82.1,177.7,81.3,176.3,80.8z" fill="#ffffff"/>
		<polygon class="st10" points="173.2,83.7 175.4,80.1 171.7,70.3 173.2,83.7   " fill="#ffffff"/>
		<polygon class="st10" points="186.4,70.4 173,67.1 181.2,73.8   " fill="#ffffff"/>
		<path class="st10" d="M181.5,81l-0.9-6.2l-8.7-7l4.5,11.9C177.3,80,179.7,80.6,181.5,81z" fill="#ffffff"/>
		<g>
			<path class="st10" d="M241.1,55.7c4.3,10.6,4.2,22.8-0.8,33.6c-4.7,10.4-13.2,18.2-23.9,22.2c-4.8,1.8-9.8,2.7-14.9,2.7     c-6.1,0-12-1.3-17.7-3.9c-20.2-9.2-29.7-32.3-22.5-52.8c-0.3,5.5,0.5,11,2.5,16.3c3.7,10,11.2,18,20.9,22.4     c5.2,2.4,10.7,3.6,16.4,3.6c0.1,0,0.2,0,0.3,0c0.1,0,0.2,0,0.3,0c5.4-0.1,10.7-1.2,15.6-3.3c9.1-3.9,16.3-11.1,20.5-20.1     C240.8,70,241.9,62.7,241.1,55.7 M234.8,41.9c5.6,10.4,6.1,23,1.1,33.8c-3.9,8.6-10.8,15.3-19.4,19.1c-4.8,2.1-9.9,3.1-15,3.1     c0,0-0.1,0-0.1,0c0,0-0.1,0-0.1,0c-5.4,0-10.8-1.1-15.8-3.4c-9.2-4.2-16.3-11.8-19.8-21.3c-3.6-9.5-3.2-19.9,1-29.1     c0.1-0.3,0.3-0.6,0.4-0.9c-2.5,3-4.5,6.3-6.2,9.9c-10.2,22.4-0.3,48.9,22,59.1c5.9,2.7,12.2,4.1,18.5,4.1     c5.3,0,10.5-0.9,15.6-2.8c11.2-4.2,20-12.4,25-23.3C249.6,73.8,246.6,55,234.8,41.9L234.8,41.9z" fill="#ffffff"/>
		</g>
		<polygon class="st10" points="200.7,87.4 194.5,93.3 200.3,96.2   " fill="#ffffff"/>
		<polygon class="st10" points="200.2,55.7 194,63.3 197.7,62.7   " fill="#ffffff"/>
		<path class="st10" d="M192.8,94.6l-2.1,0.6c0.6,0.2,1.3,0.4,2,0.5L192.8,94.6z" fill="#ffffff"/>
		<path class="st10" d="M196.1,96.4c0.8,0.1,1.7,0.2,2.6,0.3l-3.8-1.8l0.6,0.9L196.1,96.4z" fill="#ffffff"/>
		<polygon class="st10" points="201.5,82.9 201.4,66.7 197.9,63.8 193.1,64.6 192.6,74.8 200.4,83.9   " fill="#ffffff"/>
		<path class="st10" d="M194.4,96.1l-0.6-0.8l-0.1,0.7C194,96,194.2,96.1,194.4,96.1z" fill="#ffffff"/>
		<polygon class="st10" points="182.8,81.5 193.4,92.7 200.6,85.9 187.7,70.9 181.8,74.8   " fill="#ffffff"/>
		<polygon class="st10" points="185.9,58.6 186.6,56.3 188.9,55.6 186.6,54.9 185.9,52.5 185.2,54.9 182.8,55.6 185.2,56.3   " fill="#ffffff"/>
		<polygon class="st10" points="203.8,45.4 204.4,43.6 206.1,43.1 204.4,42.5 203.8,40.7 203.2,42.5 201.5,43.1 203.2,43.6   " fill="#ffffff"/>
		<polygon class="st10" points="217.2,62.5 218.2,59.1 221.6,58.1 218.2,57 217.2,53.7 216.1,57 212.8,58.1 216.1,59.1   " fill="#ffffff"/>
		<polygon class="st10" points="168.6,59.4 170.4,59.9 171,61.7 171.5,59.9 173.3,59.4 171.5,58.8 171,57 170.4,58.8   " fill="#ffffff"/>
		<polygon class="st10" points="232.7,51.5 234.5,51 232.7,50.4 232.2,48.6 231.6,50.4 229.8,51 231.6,51.5 232.2,53.3   " fill="#ffffff"/>
	</g>
	<g>
		<path d="M131.4,116.5c-0.6,1.8-1,3.9-1.3,6.4c-0.3,2.5-0.4,4.8-0.4,7.1c0,2.5,0.3,4.6,0.8,6.2c0.6,1.6,1.2,2.8,1.9,3.5    c0.7,0.7,1.4,1.2,2,1.5c0.6,0.2,1,0.4,1.2,0.4c0.8,0,1.6-0.3,2.6-1c0.9-0.7,1.8-1.7,2.6-2.9c0.8-1.3,1.5-2.8,2-4.5    c0.5-1.7,0.8-3.6,0.8-5.5c0-1.2-0.1-2.3-0.3-3.3c-0.2-1-0.5-2-0.9-2.8s-0.9-1.5-1.5-1.9c-0.6-0.5-1.3-0.7-2-0.7    c-0.8,0-1.6,0.2-2.4,0.5c-0.8,0.4-1.8,0.9-3,1.7l-0.4-1.1c0.3-0.2,1.1-1,2.4-2.3c0.8-0.7,1.4-1.3,1.8-1.7c0.4-0.4,0.8-0.7,1-1    c1.1-1,1.8-1.6,2.2-1.9s0.8-0.4,1.3-0.4c0.7,0,1.5,0.3,2.4,0.8c0.9,0.6,1.8,1.4,2.6,2.5c0.8,1.1,1.5,2.5,2,4.3    c0.5,1.7,0.8,3.8,0.8,6.1c0,1.3-0.1,2.6-0.4,4.1c-0.2,1.5-0.7,3-1.4,4.7c-0.7,1.6-1.7,3.2-3.1,4.6s-3.1,2.5-5.3,3.3    c-0.2,0-0.6,0.2-1.4,0.4c-1,0.3-1.5,0.4-1.5,0.5c-0.9,0.4-1.7,0.6-2.4,0.8c-0.7,0.1-1.3,0.2-1.9,0.2c-2,0-3.6-0.6-4.9-1.7    c-1.3-1.1-2.1-2.3-2.4-3.4c-0.2,0.2-0.6,0.6-1.4,1.2s-1.6,1.1-2.6,1.5c-0.3,0.2-0.8,0.4-1.6,0.7c-0.8,0.3-1.6,0.5-2.5,0.8    c-0.9,0.3-1.8,0.5-2.7,0.7c-0.9,0.2-1.7,0.3-2.3,0.3c-1.8,0-3.3-0.4-4.5-1.3s-2-1.9-2.6-3.1c-0.6-1.2-0.9-2.3-1.1-3.4    c-0.2-1.1-0.3-2-0.3-2.8c0-1.9,0.3-3.6,0.8-5.2c0.5-1.6,1.2-3.1,2.1-4.4c0.9-1.3,1.7-2.5,2.7-3.4c0.9-1,1.6-1.7,2.1-2.1    c-0.8,0.1-1.8,0.2-3.1,0.5c-1.3,0.2-2.6,0.7-3.9,1.4l-0.4-0.9l2.1-4.1h15.6v0.9c-2.3,0.8-4.2,1.9-5.6,3.3    c-1.5,1.4-2.6,2.9-3.4,4.5c-0.8,1.6-1.4,3.2-1.8,4.8c-0.3,1.6-0.5,3-0.5,4.2c0,1.4,0.2,2.6,0.5,3.6c0.3,1,0.8,1.9,1.3,2.5    c0.5,0.6,1.1,1.1,1.6,1.4c0.5,0.3,1,0.5,1.5,0.5c0.4,0,0.8-0.1,1.3-0.3c0.5-0.2,1.1-0.5,1.8-1c0.7-0.5,1.4-1.2,2.1-2.2    s1.4-2.2,2-3.7c0.3-0.7,0.5-1.4,0.8-2.1c0.2-0.8,0.5-1.7,0.7-2.9c0.2-1.1,0.4-2.6,0.5-4.2c0.1-1.7,0.2-3.6,0.2-5.7    c0-0.6,0-1.1,0-1.6c0-0.4,0-1-0.1-1.6l0.4-0.6l0.9,0.1c0.2,0,0.7,0,1.5,0.1c0.8,0.1,1.3,0.1,1.7,0.1c0.4,0,0.8,0,1.1-0.1    c0.3,0,0.7-0.1,1.2-0.3L131.4,116.5z" fill="#ffffff"/>
		<path d="M158.1,126.1c-0.3,0.5-0.5,1.2-0.6,2.1s-0.1,2.7-0.2,5.3v3c0,1.5,0,2.8,0,3.7c0.1,0.8,0.1,1.4,0.2,2    c0.1,0.6,0.1,1.2,0.3,1.6l-0.3,0.5c-0.9-0.1-2-0.2-3.1-0.2c-1.2,0-2.2,0.1-3,0.2l-0.4-0.5c0.4-1.3,0.6-2.8,0.8-4.4    s0.2-3.4,0.2-5.4c0-1.4,0-2.5-0.1-3.3c-0.1-0.8-0.2-1.4-0.3-1.9c-0.1-0.5-0.4-0.9-0.6-1.3s-0.8-0.7-1.4-1.2l0.2-0.7h1.5    c1,0,2.1,0,3.3-0.1c1.2-0.1,2.4-0.1,3.4-0.2L158.1,126.1z M160.1,122.6c-0.8,0.3-1.8,0.6-2.8,1.1s-2.3,0.9-3.8,1.5l-0.8,0.3    c-0.5-0.2-0.9-0.4-1.4-0.6c-0.4-0.2-1-0.4-1.6-0.6v-0.7l7.1-3.2l3.2,1.4V122.6z" fill="#ffffff"/>
		<path d="M167.5,137c-1.2,0.1-2.2,0.2-3,0.3l-0.6-0.6c0.7-0.7,1.2-1.3,1.6-1.9c0.4-0.6,0.9-1.3,1.3-1.9c1.6,0.1,3,0.2,4.1,0.2    c0.4,0,0.7,0,0.9,0c2-1.8,3.6-3.4,4.9-4.8c-3.8,0.1-6.5,0.1-8.1,0.2c-0.2,0-0.4,0-0.6,0c-1.2,0.1-2.3,0.2-3.1,0.3    c-0.8,0.1-1.6,0.2-2.3,0.3l-0.5-0.7l2.5-2.9c0.8,0.1,1.4,0.1,1.9,0.1c1.6,0,5.3,0,11.1,0c1.7,0,3.2,0,4.6,0c1.4,0,2.5,0,3.2-0.1    l0.3,0h0.6l0.4,0.8c-0.7,0.6-1.5,1.2-2.2,1.8c-0.7,0.6-1.6,1.4-2.7,2.4c-1,0.9-2,1.7-2.8,2.5c1.4,0,3-0.1,4.7-0.2l0.6,0.6    l-0.2,0.3c-0.3,0.3-0.6,0.6-0.8,0.9c-0.3,0.3-0.5,0.5-0.6,0.7c-0.3,0.4-0.7,1-1.2,1.8c-1.1-0.1-2.3-0.2-3.7-0.2c-1,0-1.9,0-2.8,0    c-2.3,2.3-3.9,3.8-4.8,4.7l-0.2,0h0.1c0.1,0,0.4,0,0.8,0c0.9,0,1.8-0.1,2.7-0.1c2.3-0.1,3.5-0.2,3.6-0.2c0.1,0,0.8,0,2.1-0.1    c1.3,0,2-0.1,2.2-0.1c1.3-0.1,1.9-0.1,2-0.1c0.9,0,1.4,0.2,1.7,0.6c0.3,0.4,0.4,0.8,0.4,1.1c0,0.2-0.1,0.5-0.2,0.8    c-0.1,0.3-0.4,0.7-0.7,1.1c-0.4,0.4-0.9,0.8-1.6,1.3c-0.7,0.4-1.7,0.9-3,1.4l-0.8-0.7c0.6-0.5,1-0.9,1.2-1.2s0.2-0.5,0.2-0.7    c0-0.2-0.1-0.3-0.3-0.4c-0.2-0.1-0.5-0.1-0.8-0.1c-0.7,0-1.4,0-2-0.1c-0.7,0-1.4-0.1-2.2-0.1h-8.1c-1.8,0-3.1,0-3.9,0    c-1.2,0.1-1.9,0.1-2.1,0.1h-1l-0.4-0.7C162.9,141.1,165.4,138.9,167.5,137z" fill="#ffffff"/>
		<path d="M214.7,144.1c-0.7,0-1.4,0-1.8,0.1s-1.7,0.2-3.6,0.4l-0.3-2.9c-0.6,0.5-1.7,1-3.2,1.5c-1.5,0.5-3,0.8-4.6,0.9l-0.1,0    c-1.3,0.2-2.2,0.3-2.6,0.4c-0.4,0.1-0.9,0.1-1.4,0.1c-1.3,0-2.5-0.2-3.5-0.6c-1-0.4-1.9-0.9-2.6-1.5c-0.8-0.8-1.3-1.7-1.7-2.8    s-0.6-2.2-0.6-3.3c0-1.2,0.2-2.4,0.6-3.7c0.4-1.3,1.1-2.5,2.1-3.6c1-1.1,2.2-2.1,3.8-2.8s3.4-1.1,5.5-1.1c0.4,0,1,0,1.6,0    c0.6,0,1.2,0.1,1.6,0.1c1,0,1.6,0,2.1,0c0.4,0,0.9,0.1,1.5,0.2c0.2,0,0.7,0.2,1.5,0.3c0.5,0.1,0.9,0.2,1.1,0.3l0.3,0.1    c0.1,0,0.5-0.1,1.2-0.2c0.7-0.2,1.9-0.6,3.6-1.2c-0.2,0.8-0.4,1.6-0.5,2.4c-0.1,0.8-0.2,1.7-0.3,2.7c-0.1,1-0.1,2.1-0.2,3.4    s-0.1,2.4-0.1,3.7c0,0.5,0,0.9,0,1.4c0,0.5,0.1,1,0.1,1.6c0.1,0.6,0.2,1.2,0.3,1.8c0.1,0.6,0.3,1.2,0.6,1.8L214.7,144.1z     M208.4,130.1c-0.3-0.4-0.7-0.9-1.3-1.3c-0.5-0.4-1.1-0.8-1.8-1.1c-0.6-0.3-1.3-0.4-2-0.4c-0.8,0-1.6,0.2-2.6,0.6    c-1,0.4-2,1-2.9,1.8c-0.9,0.8-1.7,1.7-2.3,2.9c-0.6,1.1-0.9,2.3-0.9,3.7c0,1.9,0.6,3.3,1.8,4.4c1.2,1.1,2.5,1.6,4.1,1.6    c0.8,0,1.8-0.4,3-1.3c1.2-0.8,2.2-1.9,3.1-3.1c0.8-1.2,1.4-2.4,1.8-3.7c0.4-1.2,0.6-2.2,0.6-2.9c0,0,0-0.1,0-0.2v-0.1    C208.9,130.9,208.7,130.6,208.4,130.1z" fill="#ffffff"/>
		<path d="M223.6,127.1c0.1-0.1,0.7-0.3,1.6-0.7c0.9-0.3,1.8-0.6,2.7-0.7s1.6-0.2,2.2-0.3c0.6,0,1,0,1.2,0c0.5,0,0.9,0,1,0    c0.7-0.1,1.3-0.1,1.9-0.1c1.2,0,2.1,0.1,2.8,0.4c0.7,0.3,1.4,0.6,1.9,1.1c1,0.9,1.5,2.2,1.5,3.7c0,1.1-0.3,2.1-0.8,3    c-0.5,0.9-1.2,1.7-2,2.3c-0.8,0.6-1.7,1.1-2.7,1.5l-0.9,0.5c0,0,0,0,0.1,0c0,0,0.1,0,0.2,0l1.3,1.4c0.4,0.3,0.8,0.6,1.3,1    c0.5,0.4,0.9,0.6,1.1,0.8c0.2,0.2,0.6,0.4,1,0.7s0.7,0.4,0.9,0.6c0.6,0.3,1.1,0.6,1.6,0.7c0.5,0.1,1.1,0.2,1.9,0.3l-0.3,1    l-1.5,0.1c-0.6,0-1.5,0.1-2.7,0.1c-1.3,0.1-2.2,0.1-2.7,0.1c-0.5,0-0.9,0-1,0c-0.3,0-0.5,0-0.8-0.1c-0.2-0.1-0.5-0.2-0.8-0.3    c-0.3-0.1-0.6-0.4-1-0.7s-0.9-0.7-1.5-1.2c-1.3-1.1-2.3-1.8-3.1-2.3c-0.8-0.4-1.5-0.7-2.2-0.9c-0.3-0.1-0.6-0.1-0.9-0.1    c-0.3,0-0.9-0.1-1.6-0.2c0,0.2,0,0.9,0,2.2c0,0.8,0,1.7,0.1,2.7v0.2l-0.3,0.5c-0.5-0.1-1-0.1-1.3-0.2c-0.4,0-0.8,0-1.4,0    c-1.1,0-2,0.1-2.9,0.2l-0.4-0.6c0.3-0.5,0.5-1.1,0.6-1.8c0.2-0.7,0.3-1.9,0.4-3.7c0-0.4,0.1-1,0.1-1.8c0-0.8,0.1-1.6,0.1-2.5    c0-1.5,0-2.4,0-2.9c0-1.1-0.1-2-0.4-2.7c-0.3-0.7-0.6-1.2-1-1.7l0.1-0.6c1,0,1.9,0,2.7-0.1c0.8,0,2-0.1,3.6-0.2L223.6,127.1z     M223.5,137.1L223.5,137.1c-0.1,0,0,0,0.3,0c0.4,0,0.6,0,0.7,0c0.6,0,1.2,0,1.8-0.1c0.6-0.1,1.3-0.3,2-0.5c2-0.6,3.5-1.5,4.6-2.7    s1.6-2.3,1.6-3.4c0-1-0.3-1.7-1-2.3c-0.7-0.6-1.3-0.9-2-0.9c-0.6,0-1.4,0.2-2.4,0.7c-1,0.5-1.9,1.2-2.8,2.1    c-1.1,1.2-1.8,2.3-2.1,3.4C223.8,134.6,223.6,135.8,223.5,137.1z" fill="#ffffff"/>
		<path d="M258.9,120.9l3.2,3.1c2.2,2.1,3.7,3.9,4.6,5.3c0.9,1.4,1.4,3.1,1.4,5c0,0.7-0.1,1.5-0.3,2.3c-0.2,0.9-0.6,1.9-1.2,2.9    c-0.6,1-1.6,2-3,2.8c-1.3,0.8-3.1,1.4-5.2,1.6c-0.7,0.1-1.2,0.2-1.7,0.2c-0.5,0.1-0.9,0.1-1.1,0.2c-1,0.2-2,0.3-2.8,0.3    c-1.3,0-2.5-0.2-3.7-0.7c-1.2-0.5-2.2-1.2-3-2.1c-0.8-0.9-1.5-1.9-2-3.1c-0.5-1.2-0.7-2.4-0.7-3.7c0-1.6,0.3-3,0.9-4.2    c0.6-1.2,1.4-2.2,2.4-2.9c1-0.7,2.1-1.3,3.2-1.6c1.1-0.3,2.2-0.5,3.3-0.5c2.1,0,3.7,0.3,5,0.8c0,0-0.5-0.5-1.4-1.4    c-0.9-0.9-1.9-1.7-3-2.5l-2.2-1.4c-1.3-0.7-2.5-1.2-3.7-1.7s-2.4-0.9-3.7-1.2v-0.9l11.3-0.2l1.9,1.9L258.9,120.9z M250,138.2    c0.4,0.9,0.8,1.6,1.4,2.2s1.2,1.1,1.9,1.4c0.7,0.3,1.4,0.5,2.2,0.5c0.7,0,1.4-0.2,2.2-0.5s1.5-0.9,2.2-1.6    c0.7-0.7,1.2-1.6,1.6-2.5c0.4-1,0.6-2.1,0.6-3.2c0-1.9-0.6-3.4-1.6-4.4c-1.1-1-2.5-1.5-4.3-1.5c-0.9,0-1.8,0.1-2.6,0.4    c-0.8,0.3-1.5,0.7-2.1,1.2c-0.8,0.7-1.3,1.5-1.6,2.3c-0.3,0.9-0.4,1.8-0.4,2.8C249.5,136.3,249.6,137.3,250,138.2z" fill="#ffffff"/>
		<path d="M272.7,125.5c-1.4-1.5-2.1-2.9-2.1-4.2c0-0.9,0.2-1.7,0.7-2.5s1.2-1.7,2.2-2.8l0.2-0.4h3.7l0.3,0.7    c-0.9,0.8-1.5,1.5-1.9,2.3c-0.4,0.8-0.6,1.4-0.6,1.8c0,0.5,0.2,1.1,0.5,1.8c0.3,0.6,1.1,1.5,2.3,2.5l-0.4,0.7H272.7z" fill="#ffffff"/>
		<path d="M293.1,130.4c0.1-0.5,0.2-0.8,0.2-1.1c0-0.6-0.2-1-0.6-1.5c-0.4-0.4-1.1-0.6-2-0.6c-0.5,0-1,0.1-1.5,0.2s-1.1,0.3-1.6,0.6    c-0.5,0.3-0.9,0.7-1.2,1.1c-0.3,0.4-0.4,1-0.4,1.5c0,0.5,0.1,1,0.3,1.3s0.5,0.5,0.8,0.7c0.3,0.1,0.6,0.2,1,0.2    c0.3,0,0.7,0.1,1.1,0.1c0.2,0,0.5,0,0.9,0c0.4,0,1-0.1,1.6-0.1c0.1,0,0.5,0,1.2,0c0.7,0,1.1,0,1.3,0c0.8,0,1.6,0.1,2.3,0.3    c0.7,0.2,1.4,0.6,2,1.2c0.9,0.9,1.3,2.1,1.3,3.4c0,1.1-0.4,2.3-1.1,3.5c-0.7,1.2-1.8,2.1-3.1,2.6c-0.9,0.4-1.9,0.6-2.8,0.7    c-1,0.1-1.8,0.2-2.4,0.2c-0.9,0-1.6,0-2.1,0c-0.1,0-0.2,0-0.3,0c-1.2,0.2-2.1,0.3-2.5,0.3c-0.8,0-1.6-0.1-2.4-0.4    c-0.8-0.3-1.5-0.8-2.1-1.5c-0.4-0.5-0.7-1.1-0.8-1.7c-0.1-0.7-0.2-1.5-0.2-2.4c0.5,0,1,0,1.5-0.1c0.5-0.1,1-0.1,1.7-0.2    c0.7-0.1,1.2-0.1,1.6-0.2s0.8-0.1,1.2-0.1l0.5,0.5c-0.2,0.5-0.4,0.9-0.4,1.3c0,0.6,0.1,1.1,0.3,1.5s0.5,0.6,0.8,0.8    s0.6,0.2,0.9,0.3s0.6,0.1,0.9,0.1c1.6,0,2.9-0.4,3.7-1.3c0.8-0.9,1.3-1.8,1.3-2.9c0-0.7-0.1-1.2-0.4-1.5c-0.3-0.4-0.6-0.7-0.9-0.8    c-0.4-0.2-0.7-0.3-1.1-0.3c-0.3,0-0.7,0-1,0c-0.2,0-1.1,0-2.7,0.1c-0.5,0.1-1,0.1-1.5,0.1c-0.5,0-0.8,0-0.9,0    c-1.8,0-3.1-0.4-4-1.2c-0.8-0.8-1.3-1.8-1.3-3.2c0-0.8,0.2-1.6,0.6-2.3c0.4-0.7,0.9-1.4,1.7-2c1.7-1.3,4.1-1.9,7.2-1.9    c0.8,0,1.2,0,1.4,0c0.6-0.1,1.1-0.2,1.5-0.2c0.4,0,0.8,0,1.2,0c1.1,0,2,0.1,2.8,0.4c0.7,0.3,1.3,0.6,1.6,1.1    c0.4,0.5,0.6,1,0.7,1.5c0.1,0.5,0.3,1.3,0.4,2.3l-5.8,0.6L293.1,130.4z" fill="#ffffff"/>
	</g>
	<g>
		<path d="M99.5,217.5V217h0.7l1.2-8.7h-0.9v-0.6h1.9c0,0.2,0.2,0.8,0.4,1.5l2.1,6.5h0l2.8-7.9h1.8v0.6h-0.9l0.8,7.7    c0,0.4,0.1,0.8,0.1,1h0.8v0.6h-2.9V217h1.1l-0.7-7.1h0l-2.7,7.6h-0.7l-2.5-7.6h0l-0.9,7h1v0.6H99.5z" fill="#ffffff"/>
		<path d="M114.9,217.5V217h0.7l2.3-6.2c0.4-1,0.8-2,1.1-3.1h1.2c0,0.3,0.1,0.5,0.3,0.9l3.1,8.5h0.8v0.6h-2.9V217h1l-0.9-2.5h-4.1    l-0.9,2.5h0.9v0.6H114.9z M119.5,208.9l-1.8,4.9h3.6L119.5,208.9z" fill="#ffffff"/>
		<path d="M137.7,208.2l0.4,0.4l-1.9,1.8l-0.4-0.4c0.2-0.2,0.4-0.4,0.4-0.8c0-0.7-0.9-1.2-2-1.2c-2.5,0-3.9,2.2-3.9,4.5    c0,2.4,1.9,4.6,4.3,4.6c1,0,2.2-0.3,2.2-1.5v-3h-2.7v-0.6h2.3c0.5,0,1,0,1.5-0.1l0.3,0.3c-0.2,0.1-0.3,0.3-0.3,0.5v2.8    c0,0.3,0,0.6,0.1,1c-1.1,0.7-2.4,1.3-3.8,1.3c-3.1,0-5.2-1.9-5.2-5c0-2.8,2.3-5.3,5-5.3c1.2,0,2.3,0.4,3.2,1.1L137.7,208.2z" fill="#ffffff"/>
		<path d="M146.9,207.7v0.6h-0.9v8.7h0.9v0.6H144V217h0.9v-8.7H144v-0.6H146.9z" fill="#ffffff"/>
		<path d="M160.6,208.2l0.4,0.4l-2,1.8l-0.4-0.4c0.3-0.2,0.4-0.4,0.4-0.8c0-0.9-0.9-1.2-1.8-1.2c-2.4,0-3.6,2.1-3.6,4.4    c0,2.4,1.6,4.4,3.9,4.4c1.2,0,2.3-0.4,3.1-1.3l0.4,0.5c-1,1.2-2.2,1.8-3.8,1.8c-3,0-4.8-2.3-4.8-5.2c0-2.7,2.1-5.1,4.8-5.1    c1.2,0,2,0.4,2.9,1.1L160.6,208.2z" fill="#ffffff"/>
		<path d="M179,217v0.6h-3.3V217h1v-8.7c-1.3,0-2,0.2-2.3,1.5h-0.6l0.5-2.5h0.6l-0.1,0.4h5l-0.1-0.4h0.6l0.5,2.5h-0.6    c-0.3-1.3-1-1.6-2.3-1.5v8.7H179z" fill="#ffffff"/>
		<path d="M191.2,207.4c3,0,5.6,1.9,5.6,5.1c0,3.1-2.2,5.2-5.2,5.2c-3.2,0-5.6-1.9-5.6-5.2C186,209.6,188.3,207.4,191.2,207.4z     M195.6,213c0-2.7-1.7-5-4.5-5c-2.3,0-3.9,2-3.9,4.2c0,2.5,1.6,5,4.3,5C193.9,217.2,195.6,215.4,195.6,213z" fill="#ffffff"/>
		<path d="M207.3,207.4c3,0,5.6,1.9,5.6,5.1c0,3.1-2.2,5.2-5.2,5.2c-3.2,0-5.6-1.9-5.6-5.2C202.1,209.6,204.4,207.4,207.3,207.4z     M211.8,213c0-2.7-1.7-5-4.5-5c-2.3,0-3.9,2-3.9,4.2c0,2.5,1.6,5,4.3,5C210,217.2,211.8,215.4,211.8,213z" fill="#ffffff"/>
		<path d="M221.6,207.7v0.6h-1.1v8.7h1.4c1,0,2-0.2,2.7-1.9l0.5,0.1l-0.8,2.8h-0.6l0.1-0.4h-5.4V217h0.9v-8.7h-0.9v-0.6H221.6z" fill="#ffffff"/>
		<path d="M230.6,215.4c0.7,0.7,1.7,1.7,2.8,1.7c1.3,0,2.4-0.7,2.4-2.1c0-1.7-1.9-2.1-3.3-2.6c-0.9-0.3-1.8-1-1.8-2.2    c0-1.7,1.5-2.8,3.1-2.8c1,0,1.6,0.3,2.5,0.7l0.4-0.4l0.3,0.3l-0.9,1.1c-0.8-0.6-1.7-1.2-2.7-1.2c-0.9,0-1.8,0.7-1.8,1.6    c0,1.5,1.8,1.8,3.2,2.4c1.2,0.4,2,1.1,2,2.4c0,1.9-1.4,3.3-3.3,3.3c-1.4,0-2.5-0.5-3.6-1.5L230.6,215.4z" fill="#ffffff"/>
	</g>
</g>
</svg>